{"glyphs":{"0":{"ha":707,"x_min":53,"x_max":688,"o":"m 301 -17 q 202 3 247 -17 q 124 63 157 24 q 72 163 90 103 q 53 300 53 222 q 87 558 53 446 q 176 745 121 669 q 300 860 231 821 q 440 899 369 899 q 540 878 494 899 q 617 818 585 858 q 669 718 650 778 q 688 579 688 658 q 653 322 688 433 q 565 135 619 210 q 442 22 511 60 q 301 -17 372 -17 m 429 753 q 356 715 392 753 q 292 614 319 678 q 247 464 264 550 q 229 281 229 378 q 251 164 229 199 q 314 129 274 129 q 388 166 351 129 q 451 267 424 203 q 497 416 479 331 q 514 599 514 501 q 492 717 514 681 q 429 753 469 753 z "},"1":{"ha":707,"x_min":26,"x_max":592,"o":"m 57 153 l 239 153 l 347 685 l 186 685 l 210 804 q 335 834 283 815 q 435 882 386 853 l 576 882 l 429 153 l 592 153 l 561 0 l 26 0 l 57 153 z "},"2":{"ha":707,"x_min":-18,"x_max":665,"o":"m 3 108 q 199 269 111 197 q 350 406 288 342 q 447 526 413 469 q 481 642 481 583 q 453 719 481 689 q 374 749 426 749 q 302 729 336 749 q 229 678 268 710 l 138 788 q 266 870 201 842 q 397 899 331 899 q 594 833 524 899 q 665 661 665 768 q 640 535 665 594 q 567 417 614 476 q 453 296 519 358 q 306 160 386 233 l 604 160 l 574 0 l -18 0 l 3 108 z "},"3":{"ha":707,"x_min":-22,"x_max":674,"o":"m 99 240 q 181 164 133 192 q 276 136 229 136 q 391 169 349 136 q 433 260 433 201 q 424 312 433 289 q 389 351 414 335 q 322 375 364 367 q 215 383 279 383 l 242 518 q 357 529 311 518 q 430 559 403 540 q 468 602 457 578 q 479 654 479 626 q 451 723 479 697 q 372 749 424 749 q 306 734 340 749 q 232 692 272 719 l 140 814 q 272 880 207 861 q 407 899 338 899 q 516 883 467 899 q 600 840 565 868 q 654 773 635 813 q 674 686 674 733 q 631 544 674 603 q 485 450 589 485 l 485 444 q 590 368 556 417 q 624 258 624 319 q 597 140 624 192 q 525 54 571 89 q 416 1 479 19 q 281 -17 353 -17 q 117 22 197 -17 q -22 142 36 60 l 99 240 z "},"4":{"ha":707,"x_min":11,"x_max":682,"o":"m 333 0 l 376 214 l 11 214 l 36 347 l 456 882 l 682 882 l 578 361 l 679 361 l 651 214 l 550 214 l 507 0 l 333 0 m 404 361 l 436 519 q 458 617 446 567 q 482 715 471 667 l 476 715 q 426 633 450 675 q 375 554 401 592 l 224 361 l 404 361 z "},"5":{"ha":707,"x_min":-10,"x_max":706,"o":"m 110 239 q 187 164 144 192 q 283 136 229 136 q 344 147 315 136 q 395 180 374 158 q 430 233 417 201 q 443 303 443 264 q 411 395 443 365 q 322 425 379 425 q 292 424 306 425 q 263 417 278 422 q 232 405 249 413 q 193 385 215 397 l 122 443 l 231 882 l 706 882 l 674 722 l 364 722 l 315 549 q 400 567 356 567 q 493 552 450 567 q 567 508 536 538 q 617 435 599 479 q 635 333 635 392 q 605 187 635 251 q 525 77 575 122 q 411 8 475 32 q 279 -17 347 -17 q 122 21 196 -17 q -10 142 49 58 l 110 239 z "},"6":{"ha":707,"x_min":69,"x_max":731,"o":"m 354 125 q 408 142 385 125 q 448 184 432 158 q 472 242 464 210 q 481 303 481 274 q 456 389 481 358 q 386 419 432 419 q 323 401 358 419 q 247 333 288 383 q 246 306 246 319 q 246 279 246 293 q 276 165 246 204 q 354 125 306 125 m 610 676 q 564 727 590 708 q 500 746 538 746 q 356 676 421 746 q 263 467 290 606 q 350 528 300 507 q 436 550 400 550 q 524 536 483 550 q 593 494 564 522 q 639 422 622 465 q 656 319 656 378 q 633 195 656 256 q 568 88 610 135 q 469 12 526 40 q 344 -17 413 -17 q 231 6 282 -17 q 144 71 179 29 q 89 170 108 113 q 69 297 69 228 q 103 543 69 432 q 195 733 136 654 q 335 856 254 813 q 513 899 417 899 q 588 888 554 899 q 648 858 621 876 q 695 819 675 840 q 731 778 715 799 l 610 676 z "},"7":{"ha":707,"x_min":138,"x_max":754,"o":"m 139 0 q 205 216 169 115 q 285 406 240 317 q 385 574 331 496 q 511 722 440 653 l 138 722 l 169 882 l 754 882 l 731 763 q 565 576 631 671 q 454 386 499 482 q 383 194 410 290 q 335 0 356 97 l 139 0 l 139 0 z "},"8":{"ha":707,"x_min":51,"x_max":692,"o":"m 319 404 q 249 333 278 375 q 221 235 221 292 q 251 150 221 185 q 338 115 282 115 q 387 124 363 115 q 429 148 411 132 q 458 188 447 164 q 469 244 469 213 q 428 332 469 297 q 319 404 386 367 m 447 507 q 504 573 479 535 q 529 664 529 611 q 507 736 529 708 q 438 764 485 764 q 363 735 394 764 q 332 653 332 706 q 361 570 332 603 q 447 507 390 538 m 51 214 q 67 298 51 260 q 108 367 82 336 q 168 422 133 399 q 242 461 203 446 l 242 467 q 185 549 204 506 q 165 646 165 593 q 188 751 165 704 q 251 831 211 799 q 342 881 290 864 q 451 899 393 899 q 539 887 496 899 q 616 849 582 875 q 671 785 650 824 q 692 692 692 746 q 649 550 692 608 q 533 453 606 492 l 533 447 q 612 365 581 415 q 643 246 643 314 q 617 137 643 185 q 548 54 592 89 q 446 1 504 19 q 324 -17 388 -17 q 228 -3 276 -17 q 141 38 181 10 q 76 109 101 65 q 51 214 51 153 z "},"9":{"ha":707,"x_min":15,"x_max":675,"o":"m 360 463 q 422 481 388 463 q 497 549 457 500 q 499 576 499 563 q 499 603 499 589 q 469 717 499 678 q 390 757 439 757 q 336 740 360 757 q 297 698 313 724 q 272 640 281 672 q 264 579 264 608 q 288 493 264 524 q 360 463 313 463 m 135 206 q 181 155 154 174 q 244 136 207 136 q 389 206 324 136 q 482 414 454 275 q 394 353 443 374 q 308 332 344 332 q 222 346 261 332 q 153 388 182 360 q 107 460 124 417 q 90 563 90 504 q 113 687 90 626 q 177 794 136 747 q 275 870 218 842 q 400 899 332 899 q 515 876 464 899 q 601 811 565 853 q 656 712 636 769 q 675 585 675 654 q 642 338 675 449 q 550 149 608 228 q 410 26 492 69 q 233 -17 329 -17 q 158 -6 192 -17 q 97 24 124 6 q 49 63 69 42 q 15 106 29 85 l 135 206 z "},"\u0000":{"ha":0,"x_min":0,"x_max":0,"o":""},"\r":{"ha":275,"x_min":0,"x_max":0,"o":""}," ":{"ha":275,"x_min":0,"x_max":0,"o":""},"A":{"ha":761,"x_min":-86,"x_max":710,"o":"m 493 371 l 488 490 q 482 622 485 557 q 476 760 479 688 l 471 760 q 414 624 442 689 q 354 490 386 558 l 299 371 l 493 371 m 500 228 l 231 228 l 124 0 l -86 0 l 392 906 l 619 906 l 710 0 l 511 0 l 500 228 z "},"B":{"ha":839,"x_min":39,"x_max":801,"o":"m 221 906 l 497 906 q 621 893 565 906 q 717 856 676 881 q 779 792 757 831 q 801 699 801 753 q 748 559 801 619 q 606 472 694 499 l 603 467 q 719 406 678 449 q 760 297 760 364 q 728 161 760 218 q 644 69 697 104 q 519 17 590 33 q 368 0 447 0 l 39 0 l 221 906 m 428 535 q 565 571 524 535 q 607 667 607 607 q 572 735 607 711 q 463 760 538 760 l 382 760 l 338 535 l 428 535 m 376 146 q 525 183 474 146 q 576 290 576 219 q 540 376 576 346 q 429 406 504 406 l 311 406 l 258 146 l 376 146 z "},"C":{"ha":788,"x_min":78,"x_max":801,"o":"m 78 363 q 115 581 78 479 q 217 759 153 683 q 370 878 282 835 q 560 922 458 922 q 701 884 639 922 q 801 778 763 846 l 671 678 q 617 738 646 718 q 550 757 588 757 q 442 726 492 757 q 354 642 392 694 q 295 519 317 589 q 274 375 274 450 q 318 208 274 269 q 463 147 363 147 q 542 167 503 147 q 617 217 581 186 l 696 94 q 647 56 675 75 q 585 20 619 36 q 509 -6 550 4 q 422 -17 468 -17 q 280 9 343 -17 q 172 84 217 35 q 102 203 126 133 q 78 363 78 274 z "},"D":{"ha":856,"x_min":39,"x_max":819,"o":"m 221 906 l 419 906 q 715 818 610 906 q 819 550 819 731 q 783 314 819 417 q 680 141 746 211 q 522 35 614 71 q 322 0 431 0 l 39 0 l 221 906 m 318 153 q 440 176 383 153 q 537 246 496 199 q 601 366 578 293 q 625 538 625 439 q 568 701 625 650 q 415 753 511 753 l 379 753 l 261 153 l 318 153 z "},"E":{"ha":732,"x_min":39,"x_max":757,"o":"m 221 906 l 757 906 l 726 746 l 378 746 l 339 549 l 635 549 l 604 389 l 308 389 l 261 160 l 621 160 l 590 0 l 39 0 l 221 906 z "},"F":{"ha":700,"x_min":39,"x_max":757,"o":"m 221 906 l 757 906 l 726 746 l 378 746 l 335 524 l 629 524 l 599 364 l 303 364 l 231 0 l 39 0 l 221 906 z "},"G":{"ha":849,"x_min":78,"x_max":826,"o":"m 78 363 q 115 581 78 479 q 219 759 153 683 q 376 878 285 835 q 574 922 467 922 q 724 884 661 922 q 826 778 788 846 l 697 678 q 640 738 671 718 q 564 757 608 757 q 448 726 501 757 q 356 642 394 694 q 295 519 317 589 q 274 375 274 450 q 284 281 274 322 q 318 208 294 239 q 379 162 342 178 q 469 146 417 146 q 523 154 497 146 q 568 176 549 163 l 607 354 l 458 354 l 488 510 l 803 510 l 719 78 q 594 10 667 38 q 436 -17 522 -17 q 286 9 353 -17 q 173 83 219 35 q 102 202 126 132 q 78 363 78 272 z "},"H":{"ha":906,"x_min":39,"x_max":908,"o":"m 221 906 l 411 906 l 339 554 l 649 554 l 718 906 l 908 906 l 728 0 l 536 0 l 615 388 l 306 388 l 231 0 l 39 0 l 221 906 z "},"I":{"ha":408,"x_min":39,"x_max":411,"o":"m 221 906 l 411 906 l 231 0 l 39 0 l 221 906 z "},"J":{"ha":682,"x_min":-11,"x_max":692,"o":"m 567 282 q 530 167 554 221 q 466 72 506 113 q 372 7 426 31 q 244 -17 317 -17 q 97 19 165 -17 q -11 121 29 54 l 106 236 q 160 174 125 200 q 244 147 196 147 q 383 315 350 147 l 501 906 l 692 906 l 567 282 l 567 282 z "},"K":{"ha":839,"x_min":39,"x_max":890,"o":"m 221 906 l 411 906 l 338 533 l 342 533 l 682 906 l 890 906 l 561 533 l 764 0 l 565 0 l 421 414 l 283 265 l 231 0 l 39 0 l 221 906 z "},"L":{"ha":694,"x_min":39,"x_max":604,"o":"m 221 906 l 411 906 l 261 160 l 604 160 l 574 0 l 39 0 l 221 906 z "},"M":{"ha":1028,"x_min":39,"x_max":1031,"o":"m 221 906 l 422 906 l 488 488 l 511 325 l 517 325 l 600 488 l 828 906 l 1031 906 l 849 0 l 671 0 l 746 360 q 763 433 753 393 q 783 513 772 472 q 806 591 794 553 q 828 663 817 629 l 824 663 l 711 454 l 499 83 l 422 83 l 356 454 l 328 663 l 322 663 q 316 590 319 629 q 308 511 313 551 q 299 432 304 471 q 286 360 293 393 l 214 0 l 39 0 l 221 906 z "},"N":{"ha":893,"x_min":39,"x_max":894,"o":"m 221 906 l 406 906 l 553 433 l 601 235 l 607 235 q 614 311 611 269 q 621 395 617 353 q 631 481 625 438 q 644 563 636 524 l 714 906 l 894 906 l 714 0 l 531 0 l 382 471 l 336 672 l 331 672 q 315 511 324 596 q 290 347 306 426 l 221 0 l 39 0 l 221 906 z "},"O":{"ha":917,"x_min":79,"x_max":879,"o":"m 419 -17 q 279 9 342 -17 q 172 84 217 35 q 103 205 128 133 q 79 367 79 276 q 117 588 79 486 q 217 765 154 690 q 364 881 281 839 q 539 922 447 922 q 679 896 617 922 q 786 820 742 869 q 855 700 831 771 q 879 539 879 629 q 842 317 879 419 q 741 141 804 215 q 594 25 678 67 q 419 -17 511 -17 m 531 757 q 436 727 482 757 q 354 647 390 697 q 296 527 318 596 q 274 379 274 458 q 314 209 274 271 q 429 147 354 147 q 524 177 478 147 q 606 258 569 207 q 663 378 642 310 q 685 526 685 447 q 645 696 685 635 q 531 757 606 757 z "},"P":{"ha":810,"x_min":39,"x_max":817,"o":"m 221 906 l 507 906 q 630 892 574 906 q 728 851 686 879 q 793 776 769 822 q 817 665 817 731 q 783 504 817 571 q 693 395 750 438 q 560 333 636 353 q 399 314 485 314 l 292 314 l 231 0 l 39 0 l 221 906 m 419 465 q 575 508 521 465 q 629 638 629 551 q 590 726 629 699 q 476 754 550 754 l 379 754 l 324 465 l 419 465 z "},"Q":{"ha":917,"x_min":79,"x_max":879,"o":"m 531 757 q 436 727 482 757 q 354 647 390 697 q 296 527 318 596 q 274 379 274 458 q 314 209 274 271 q 429 147 354 147 q 524 177 478 147 q 606 258 569 207 q 663 378 642 310 q 685 526 685 447 q 645 696 685 635 q 531 757 606 757 m 782 -222 q 726 -238 758 -232 q 671 -244 694 -244 q 292 4 389 -244 q 135 133 192 40 q 79 367 79 225 q 117 588 79 486 q 217 765 154 690 q 364 881 281 839 q 539 922 447 922 q 679 896 617 922 q 786 820 742 869 q 855 700 831 771 q 879 539 879 629 q 849 338 879 431 q 766 172 818 244 q 644 53 714 100 q 493 -10 574 6 q 572 -72 521 -53 q 682 -92 624 -92 q 731 -88 710 -92 q 774 -79 751 -85 l 782 -222 z "},"R":{"ha":828,"x_min":39,"x_max":814,"o":"m 422 483 q 575 527 524 483 q 626 646 626 571 q 588 729 626 704 q 475 754 549 754 l 379 754 l 326 483 l 422 483 m 504 906 q 628 893 571 906 q 726 853 685 881 q 790 781 767 825 q 814 674 814 736 q 797 559 814 610 q 749 469 779 508 q 676 403 718 431 q 583 358 633 375 l 724 0 l 524 0 l 407 332 l 296 332 l 231 0 l 39 0 l 221 906 l 504 906 z "},"S":{"ha":735,"x_min":7,"x_max":742,"o":"m 143 260 q 233 176 179 207 q 344 146 286 146 q 439 174 403 146 q 475 250 475 201 q 447 309 475 286 q 369 363 418 332 l 283 415 q 185 506 221 454 q 149 642 149 558 q 174 751 149 700 q 241 840 199 801 q 342 900 283 878 q 467 922 400 922 q 618 885 547 922 q 742 785 689 847 l 621 672 q 547 733 586 708 q 458 757 508 757 q 373 728 403 757 q 343 660 343 700 q 374 603 343 625 q 457 547 404 581 l 546 493 q 642 405 613 453 q 672 278 672 357 q 648 162 672 215 q 579 69 624 108 q 472 6 535 29 q 331 -17 408 -17 q 158 22 242 -17 q 7 153 74 61 l 143 260 z "},"T":{"ha":739,"x_min":117,"x_max":814,"o":"m 354 744 l 117 744 l 147 906 l 814 906 l 782 744 l 544 744 l 397 0 l 207 0 l 354 744 z "},"U":{"ha":893,"x_min":104,"x_max":901,"o":"m 215 906 l 406 906 l 307 410 q 299 356 301 382 q 296 304 296 329 q 326 188 296 228 q 433 147 357 147 q 542 201 499 147 q 610 381 585 254 l 715 906 l 901 906 l 796 383 q 663 79 754 175 q 428 -17 572 -17 q 185 60 267 -17 q 104 299 104 138 q 110 369 104 329 q 122 444 115 408 l 215 906 z "},"V":{"ha":769,"x_min":110,"x_max":885,"o":"m 110 906 l 308 906 l 332 460 q 338 315 335 388 q 342 169 340 243 l 347 169 q 410 315 379 243 q 474 460 442 388 l 675 906 l 885 906 l 417 0 l 186 0 l 110 906 z "},"W":{"ha":1103,"x_min":107,"x_max":1182,"o":"m 139 906 l 333 906 l 304 471 q 291 326 297 399 q 276 181 285 253 l 282 181 q 341 326 310 253 q 400 471 372 400 l 586 906 l 747 906 l 750 471 q 746 327 749 400 q 740 181 743 254 l 746 181 q 797 327 771 254 q 847 471 824 400 l 1000 906 l 1182 906 l 831 0 l 590 0 l 596 433 q 599 535 596 478 q 608 644 603 592 l 603 644 q 562 540 583 593 q 521 433 540 486 l 343 0 l 107 0 l 139 906 z "},"X":{"ha":768,"x_min":-50,"x_max":839,"o":"m 286 467 l 146 906 l 357 906 l 403 724 q 417 657 410 692 q 435 582 425 622 l 440 582 q 485 658 464 622 q 526 725 507 693 l 636 906 l 839 906 l 521 458 l 672 0 l 461 0 l 410 197 q 392 268 400 233 q 374 343 383 303 l 368 343 q 322 267 344 303 q 278 196 300 232 l 153 0 l -50 0 l 286 467 z "},"Y":{"ha":707,"x_min":111,"x_max":829,"o":"m 256 328 l 111 906 l 308 906 l 347 688 q 365 589 357 636 q 382 489 372 542 l 388 489 q 442 590 415 542 q 499 690 468 638 l 625 906 l 829 906 l 446 328 l 381 0 l 192 0 l 256 328 z "},"Z":{"ha":729,"x_min":-7,"x_max":772,"o":"m 18 114 l 513 746 l 156 746 l 188 906 l 772 906 l 749 790 l 258 160 l 651 160 l 618 0 l -7 0 l 18 114 z "},"a":{"ha":767,"x_min":43,"x_max":746,"o":"m 43 236 q 74 420 43 335 q 156 569 104 506 q 274 669 207 633 q 411 706 340 706 q 500 681 458 706 q 561 615 542 657 l 564 615 l 594 689 l 746 689 l 608 0 l 454 0 l 457 90 l 453 90 q 349 13 406 42 q 238 -17 292 -17 q 94 49 146 -17 q 43 236 43 114 m 321 139 q 395 160 356 139 q 468 240 435 182 l 517 485 q 474 535 500 519 q 425 550 449 550 q 356 528 389 550 q 297 467 322 506 q 256 375 271 428 q 240 260 240 322 q 262 168 240 197 q 321 139 283 139 z "},"b":{"ha":768,"x_min":19,"x_max":722,"o":"m 19 0 l 215 974 l 406 974 l 360 753 l 325 624 l 328 624 q 425 683 374 661 q 528 706 476 706 q 671 640 619 706 q 722 453 722 575 q 692 269 722 354 q 610 119 661 183 q 492 19 558 56 q 356 -17 426 -17 q 269 8 308 -17 q 210 74 229 32 l 207 74 l 176 0 l 19 0 m 446 550 q 374 531 414 550 q 304 464 335 513 l 251 204 q 291 154 267 169 q 342 139 315 139 q 411 161 378 139 q 470 222 444 183 q 511 314 496 261 q 526 429 526 367 q 504 521 526 492 q 446 550 482 550 z "},"c":{"ha":615,"x_min":40,"x_max":631,"o":"m 40 267 q 72 435 40 356 q 158 576 103 515 q 287 671 213 636 q 446 706 361 706 q 558 679 511 706 q 631 621 604 653 l 525 508 q 483 542 504 531 q 433 553 463 553 q 356 531 392 553 q 292 469 319 508 q 250 380 265 431 q 235 271 235 329 q 264 172 235 208 q 351 136 293 136 q 413 150 388 136 q 461 181 439 164 l 540 64 q 447 9 501 35 q 310 -17 392 -17 q 203 2 253 -17 q 118 58 154 21 q 61 147 82 94 q 40 267 40 200 z "},"d":{"ha":758,"x_min":43,"x_max":804,"o":"m 572 753 l 614 974 l 804 974 l 608 0 l 454 0 l 457 90 l 453 90 q 349 13 406 42 q 238 -17 292 -17 q 94 49 146 -17 q 43 236 43 114 q 74 420 43 335 q 156 569 104 506 q 274 669 207 633 q 411 706 340 706 q 495 683 458 706 q 551 622 532 660 l 556 622 l 572 753 m 321 139 q 394 160 356 139 q 468 240 432 182 l 517 485 q 474 535 500 519 q 425 550 449 550 q 356 528 389 550 q 297 467 322 506 q 256 375 271 428 q 240 260 240 322 q 262 168 240 197 q 321 139 283 139 z "},"e":{"ha":689,"x_min":40,"x_max":649,"o":"m 40 278 q 74 452 40 374 q 163 587 108 531 q 286 674 218 643 q 424 706 354 706 q 528 685 485 706 q 598 630 571 665 q 637 548 625 594 q 649 447 649 501 q 644 398 649 422 q 635 352 640 374 q 623 315 629 331 q 613 290 617 299 l 221 290 q 262 165 217 204 q 375 126 307 126 q 442 142 407 126 q 503 175 476 157 l 569 56 q 465 5 528 26 q 322 -17 403 -17 q 208 3 260 -17 q 119 62 156 24 q 61 154 82 100 q 40 278 40 208 m 486 407 q 493 458 493 431 q 473 530 493 500 q 400 560 453 560 q 306 522 351 560 q 236 407 260 483 l 486 407 z "},"f":{"ha":454,"x_min":50,"x_max":613,"o":"m 100 681 l 190 689 l 199 735 q 229 834 208 788 q 283 915 250 881 q 360 970 315 950 q 465 990 406 990 q 543 981 506 990 q 613 953 581 971 l 551 818 q 522 832 540 825 q 485 839 504 839 q 424 819 447 839 q 389 742 400 799 l 379 689 l 499 689 l 469 540 l 347 540 l 240 0 l 50 0 l 160 540 l 71 540 l 100 681 z "},"g":{"ha":758,"x_min":-17,"x_max":738,"o":"m 738 689 l 603 11 q 477 -219 571 -143 q 238 -296 383 -296 q 108 -272 175 -296 q -17 -199 42 -247 l 65 -72 q 150 -124 106 -103 q 243 -144 194 -144 q 355 -108 311 -144 q 419 0 399 -71 l 453 117 l 450 117 q 353 47 403 72 q 244 22 303 22 q 100 81 157 22 q 43 263 43 140 q 73 436 43 356 q 152 576 103 517 q 267 671 201 636 q 403 706 332 706 q 490 681 450 706 q 550 615 531 657 l 554 615 l 583 689 l 738 689 m 318 176 q 392 196 353 176 q 464 267 431 215 l 507 485 q 465 535 489 519 q 417 550 440 550 q 349 530 381 550 q 293 474 317 510 q 255 391 269 439 q 240 288 240 343 q 261 203 240 231 q 318 176 282 176 z "},"h":{"ha":758,"x_min":19,"x_max":708,"o":"m 215 974 l 406 974 l 353 719 l 322 608 l 328 608 q 428 677 374 649 q 544 706 482 706 q 669 660 631 706 q 708 529 708 615 q 706 481 708 506 q 697 431 704 457 l 611 0 l 421 0 l 503 407 q 510 443 507 428 q 514 472 514 458 q 443 543 514 543 q 377 522 411 543 q 299 454 343 500 l 210 0 l 19 0 l 215 974 z "},"i":{"ha":368,"x_min":19,"x_max":407,"o":"m 158 689 l 347 689 l 210 0 l 19 0 l 158 689 m 289 792 q 218 815 250 792 q 186 883 186 838 q 195 926 186 906 q 220 963 204 947 q 258 987 236 978 q 304 996 279 996 q 376 972 344 996 q 407 904 407 949 q 373 824 407 856 q 289 792 339 792 z "},"j":{"ha":371,"x_min":-182,"x_max":410,"o":"m 207 -22 q 176 -120 196 -75 q 126 -199 157 -165 q 53 -253 96 -233 q -49 -272 10 -272 q -117 -265 -85 -272 q -182 -242 -149 -258 l -125 -104 q -96 -117 -110 -112 q -64 -122 -82 -122 q -12 -97 -29 -122 q 19 -14 6 -71 l 160 689 l 350 689 l 207 -22 m 292 792 q 220 815 251 792 q 189 883 189 838 q 223 963 189 929 q 307 996 257 996 q 378 972 346 996 q 410 904 410 949 q 375 824 410 856 q 292 792 340 792 z "},"k":{"ha":729,"x_min":19,"x_max":768,"o":"m 215 974 l 406 974 l 292 410 l 297 410 l 557 689 l 768 689 l 486 388 l 650 0 l 460 0 l 356 278 l 243 165 l 210 0 l 19 0 l 215 974 z "},"l":{"ha":382,"x_min":51,"x_max":406,"o":"m 215 974 l 406 974 l 249 194 q 246 178 246 183 q 246 168 246 174 q 253 143 246 150 q 272 136 261 136 q 283 136 279 136 q 297 139 288 136 l 292 -1 q 249 -12 274 -8 q 190 -17 224 -17 q 83 19 115 -17 q 51 118 51 56 q 61 203 51 154 l 215 974 z "},"m":{"ha":1149,"x_min":19,"x_max":1090,"o":"m 156 689 l 310 689 l 307 597 l 313 597 q 419 674 363 642 q 535 706 476 706 q 647 672 613 706 q 694 585 681 639 q 811 672 753 638 q 928 706 869 706 q 1052 660 1014 706 q 1090 529 1090 615 q 1088 481 1090 506 q 1079 431 1085 457 l 993 0 l 803 0 l 885 407 q 892 443 889 428 q 896 472 896 458 q 826 543 896 543 q 769 522 803 543 q 692 454 736 500 l 600 0 l 410 0 l 492 407 q 499 443 496 428 q 503 472 503 458 q 485 526 503 508 q 436 543 468 543 q 377 522 411 543 q 299 454 343 500 l 210 0 l 19 0 l 156 689 z "},"n":{"ha":767,"x_min":19,"x_max":708,"o":"m 156 689 l 310 689 l 307 597 l 313 597 q 421 674 364 642 q 544 706 478 706 q 669 660 631 706 q 708 529 708 615 q 706 481 708 506 q 697 431 703 457 l 611 0 l 421 0 l 503 407 q 510 443 507 428 q 514 472 514 458 q 443 543 514 543 q 377 522 411 543 q 299 454 343 500 l 210 0 l 19 0 l 156 689 z "},"o":{"ha":740,"x_min":42,"x_max":694,"o":"m 308 -17 q 199 3 247 -17 q 115 61 150 24 q 60 151 79 99 q 42 267 42 203 q 75 448 42 367 q 163 586 108 529 q 288 674 218 643 q 428 706 357 706 q 537 685 488 706 q 621 628 586 665 q 675 538 656 590 q 694 422 694 486 q 661 241 694 322 q 573 103 628 160 q 449 15 518 46 q 308 -17 379 -17 m 406 553 q 340 531 371 553 q 285 472 308 510 q 247 383 261 435 q 233 271 233 331 q 257 172 233 208 q 329 136 281 136 q 395 158 364 136 q 451 217 426 179 q 489 306 475 254 q 503 418 503 357 q 478 517 503 482 q 406 553 454 553 z "},"p":{"ha":768,"x_min":-32,"x_max":722,"o":"m 193 -69 l 158 -256 l -32 -256 l 158 689 l 313 689 l 314 610 l 318 610 q 420 679 365 653 q 528 706 475 706 q 671 640 619 706 q 722 453 722 575 q 692 269 722 354 q 610 119 661 183 q 492 19 558 56 q 356 -17 426 -17 q 275 5 311 -17 q 215 65 239 26 l 213 65 l 193 -69 m 446 550 q 374 531 414 550 q 304 464 335 513 l 251 203 q 291 154 267 169 q 342 139 315 139 q 411 161 378 139 q 470 222 444 183 q 511 314 496 261 q 526 429 526 367 q 504 521 526 492 q 446 550 482 550 z "},"q":{"ha":767,"x_min":43,"x_max":746,"o":"m 457 90 l 454 90 q 349 13 407 42 q 238 -17 292 -17 q 94 49 146 -17 q 43 236 43 114 q 74 420 43 335 q 156 569 104 506 q 274 669 207 633 q 411 706 340 706 q 500 681 458 706 q 561 615 542 657 l 564 615 l 594 689 l 746 689 l 557 -256 l 367 -256 l 406 -69 l 457 90 m 321 139 q 392 160 353 139 q 468 240 432 182 l 517 485 q 474 535 500 519 q 425 550 449 550 q 356 528 389 550 q 297 467 322 506 q 256 375 271 428 q 240 260 240 322 q 262 168 240 197 q 321 139 283 139 z "},"r":{"ha":533,"x_min":19,"x_max":590,"o":"m 156 689 l 310 689 l 301 556 l 307 556 q 403 663 347 621 q 518 706 458 706 q 562 702 544 706 q 590 692 579 699 l 528 528 q 495 537 514 535 q 460 539 476 539 q 371 506 414 539 q 288 399 328 472 l 210 0 l 19 0 l 156 689 z "},"s":{"ha":589,"x_min":-11,"x_max":579,"o":"m 99 208 q 247 122 171 122 q 316 141 288 122 q 344 188 344 160 q 314 238 344 218 q 225 290 283 257 q 126 369 167 322 q 86 481 86 415 q 107 571 86 529 q 164 642 128 613 q 249 689 200 672 q 353 706 297 706 q 480 675 424 706 q 579 600 536 644 l 475 501 q 419 546 450 528 q 353 564 389 564 q 288 545 313 564 q 264 499 264 526 q 274 469 264 482 q 300 447 283 457 q 337 426 317 436 q 378 403 357 415 q 481 325 440 369 q 522 210 522 281 q 501 118 522 160 q 442 47 479 76 q 351 0 404 17 q 236 -17 299 -17 q 169 -8 204 -17 q 102 18 135 1 q 40 60 69 35 q -11 117 10 85 l 99 208 z "},"t":{"ha":510,"x_min":65,"x_max":535,"o":"m 157 540 l 65 540 l 93 681 l 194 689 l 253 869 l 413 869 l 378 689 l 535 689 l 506 540 l 344 540 l 285 244 q 282 221 282 232 q 282 199 282 210 q 353 132 282 132 q 382 136 368 132 q 410 147 396 140 l 443 14 q 375 -7 415 3 q 282 -17 335 -17 q 132 35 178 -17 q 86 165 86 86 q 90 209 86 188 q 97 253 93 231 l 157 540 z "},"u":{"ha":757,"x_min":54,"x_max":735,"o":"m 599 0 l 444 0 l 447 93 l 442 93 q 337 16 394 49 q 217 -17 279 -17 q 92 28 131 -17 q 54 161 54 74 q 57 208 54 185 q 65 258 60 232 l 151 689 l 340 689 l 260 282 q 251 246 254 261 q 249 217 249 231 q 318 146 249 146 q 456 235 376 146 l 544 689 l 735 689 l 599 0 z "},"v":{"ha":693,"x_min":83,"x_max":742,"o":"m 83 689 l 272 689 l 296 351 q 301 247 300 300 q 304 142 303 194 l 310 142 q 356 247 333 194 q 401 351 378 299 l 556 689 l 742 689 l 390 0 l 171 0 l 83 689 z "},"w":{"ha":1039,"x_min":100,"x_max":1065,"o":"m 100 689 l 288 689 l 289 356 q 285 255 288 306 q 281 153 283 204 l 286 153 q 324 256 306 204 q 364 356 342 307 l 506 689 l 671 689 l 682 356 q 683 255 683 306 q 682 153 682 204 l 688 153 q 724 255 707 204 q 760 356 740 306 l 889 689 l 1065 689 l 771 0 l 547 0 l 542 289 q 543 387 543 338 q 544 490 543 436 l 539 490 q 503 387 519 436 q 467 289 486 338 l 349 0 l 133 0 l 100 689 z "},"x":{"ha":681,"x_min":-56,"x_max":733,"o":"m 236 368 l 117 689 l 308 689 l 350 571 q 367 511 358 540 q 383 453 375 482 l 389 453 q 425 512 407 482 q 460 571 443 542 l 531 689 l 733 689 l 464 325 l 592 0 l 397 0 l 354 121 q 335 181 344 150 q 315 242 325 211 l 310 242 q 271 181 290 211 q 232 121 251 151 l 149 0 l -56 0 l 236 368 z "},"y":{"ha":693,"x_min":-49,"x_max":749,"o":"m 10 -106 q 61 -119 33 -119 q 133 -92 99 -119 q 192 -19 168 -65 l 208 15 l 89 689 l 278 689 l 310 378 q 318 276 315 333 q 322 171 321 219 l 328 171 q 374 275 350 219 q 419 378 397 331 l 564 689 l 749 689 l 376 -15 q 305 -125 340 -78 q 231 -204 269 -172 q 147 -253 192 -236 q 50 -269 103 -269 q 1 -261 31 -269 q -49 -242 -28 -253 l 10 -106 l 10 -106 z "},"z":{"ha":615,"x_min":-14,"x_max":639,"o":"m 7 107 l 372 540 l 124 540 l 151 689 l 639 689 l 618 579 l 253 149 l 542 149 l 513 0 l -14 0 l 7 107 z "},"À":{"ha":761,"x_min":-86,"x_max":710,"o":"m 493 371 l 488 490 q 482 622 485 557 q 476 760 479 688 l 471 760 q 414 624 442 689 q 354 490 386 558 l 299 371 l 493 371 m 500 228 l 231 228 l 124 0 l -86 0 l 392 906 l 619 906 l 710 0 l 511 0 l 500 228 m 318 1139 l 513 1139 l 590 975 l 447 975 l 318 1139 z "},"Á":{"ha":761,"x_min":-86,"x_max":744,"o":"m 493 371 l 488 490 q 482 622 485 557 q 476 760 479 688 l 471 760 q 414 624 442 689 q 354 490 386 558 l 299 371 l 493 371 m 500 228 l 231 228 l 124 0 l -86 0 l 392 906 l 619 906 l 710 0 l 511 0 l 500 228 m 539 1139 l 744 1139 l 553 975 l 397 975 l 539 1139 z "},"Â":{"ha":761,"x_min":-86,"x_max":718,"o":"m 493 371 l 488 490 q 482 622 485 557 q 476 760 479 688 l 471 760 q 414 624 442 689 q 354 490 386 558 l 299 371 l 493 371 m 500 228 l 231 228 l 124 0 l -86 0 l 392 906 l 619 906 l 710 0 l 511 0 l 500 228 m 439 1139 l 622 1139 l 718 975 l 579 975 l 521 1063 l 518 1063 l 429 975 l 278 975 l 439 1139 z "},"Ã":{"ha":761,"x_min":-86,"x_max":758,"o":"m 493 371 l 488 490 q 482 622 485 557 q 476 760 479 688 l 471 760 q 414 624 442 689 q 354 490 386 558 l 299 371 l 493 371 m 500 228 l 231 228 l 124 0 l -86 0 l 392 906 l 619 906 l 710 0 l 511 0 l 500 228 m 275 976 q 345 1110 299 1064 q 442 1157 392 1157 q 493 1147 472 1157 q 531 1124 514 1136 q 563 1102 547 1113 q 600 1092 579 1092 q 658 1154 633 1092 l 758 1154 q 688 1020 735 1067 q 590 974 640 974 q 539 984 560 974 q 501 1006 518 994 q 469 1028 485 1018 q 433 1039 454 1039 q 374 976 400 1039 l 275 976 z "},"Ä":{"ha":761,"x_min":-86,"x_max":740,"o":"m 493 371 l 488 490 q 482 622 485 557 q 476 760 479 688 l 471 760 q 414 624 442 689 q 354 490 386 558 l 299 371 l 493 371 m 500 228 l 231 228 l 124 0 l -86 0 l 392 906 l 619 906 l 710 0 l 511 0 l 500 228 m 375 974 q 317 995 340 974 q 294 1054 294 1017 q 302 1091 294 1072 q 324 1125 310 1110 q 356 1149 338 1140 q 397 1158 375 1158 q 453 1138 429 1158 q 476 1079 476 1117 q 448 1007 476 1040 q 375 974 419 974 m 639 974 q 583 995 606 974 q 560 1054 560 1017 q 567 1091 560 1072 q 588 1125 575 1110 q 620 1149 601 1140 q 661 1158 639 1158 q 717 1138 693 1158 q 740 1079 740 1117 q 712 1007 740 1040 q 639 974 683 974 z "},"Ā":{"ha":761,"x_min":-86,"x_max":714,"o":"m 493 371 l 488 490 q 482 622 485 557 q 476 760 479 688 l 471 760 q 414 624 442 689 q 354 490 386 558 l 299 371 l 493 371 m 500 228 l 231 228 l 124 0 l -86 0 l 392 906 l 619 906 l 710 0 l 511 0 l 500 228 m 343 1122 l 714 1122 l 690 1000 l 318 1000 l 343 1122 z "},"Ă":{"ha":761,"x_min":-86,"x_max":711,"o":"m 493 371 l 488 490 q 482 622 485 557 q 476 760 479 688 l 471 760 q 414 624 442 689 q 354 490 386 558 l 299 371 l 493 371 m 500 228 l 231 228 l 124 0 l -86 0 l 392 906 l 619 906 l 710 0 l 511 0 l 500 228 m 499 975 q 381 1020 418 975 q 351 1139 344 1065 l 453 1139 q 467 1089 450 1107 q 517 1071 483 1071 q 574 1090 551 1071 q 607 1139 596 1110 l 711 1139 q 638 1020 688 1065 q 499 975 589 975 z "},"Å":{"ha":761,"x_min":-86,"x_max":710,"o":"m 493 371 l 488 490 q 482 622 485 557 q 476 760 479 688 l 471 760 q 414 624 442 689 q 354 490 386 558 l 299 371 l 493 371 m 500 228 l 231 228 l 124 0 l -86 0 l 392 906 l 619 906 l 710 0 l 511 0 l 500 228 m 515 967 q 416 995 457 967 q 375 1086 375 1024 q 388 1144 375 1117 q 422 1193 400 1172 q 472 1226 443 1214 q 533 1239 500 1239 q 586 1231 561 1239 q 631 1209 611 1224 q 662 1172 650 1194 q 674 1119 674 1150 q 661 1060 674 1088 q 627 1011 649 1032 q 576 978 606 990 q 515 967 547 967 m 531 1164 q 485 1142 503 1164 q 467 1093 467 1121 q 481 1056 467 1071 q 518 1042 494 1042 q 562 1063 543 1042 q 581 1113 581 1083 q 567 1149 581 1135 q 531 1164 554 1164 z "},"Ǎ":{"ha":761,"x_min":-86,"x_max":751,"o":"m 493 371 l 488 490 q 482 622 485 557 q 476 760 479 688 l 471 760 q 414 624 442 689 q 354 490 386 558 l 299 371 l 493 371 m 500 228 l 231 228 l 124 0 l -86 0 l 392 906 l 619 906 l 710 0 l 511 0 l 500 228 m 590 975 l 407 975 l 311 1139 l 450 1139 l 508 1051 l 511 1051 l 600 1139 l 751 1139 l 590 975 z "},"Ạ":{"ha":761,"x_min":-86,"x_max":710,"o":"m 493 371 l 488 490 q 482 622 485 557 q 476 760 479 688 l 471 760 q 414 624 442 689 q 354 490 386 558 l 299 371 l 493 371 m 500 228 l 231 228 l 124 0 l -86 0 l 392 906 l 619 906 l 710 0 l 511 0 l 500 228 m 281 -308 q 210 -285 242 -308 q 178 -217 178 -262 q 187 -174 178 -194 q 212 -137 196 -153 q 249 -113 228 -122 q 296 -104 271 -104 q 367 -128 336 -104 q 399 -196 399 -151 q 365 -276 399 -244 q 281 -308 331 -308 z "},"Ả":{"ha":761,"x_min":-86,"x_max":710,"o":"m 493 371 l 488 490 q 482 622 485 557 q 476 760 479 688 l 471 760 q 414 624 442 689 q 354 490 386 558 l 299 371 l 493 371 m 500 228 l 231 228 l 124 0 l -86 0 l 392 906 l 619 906 l 710 0 l 511 0 l 500 228 m 460 1226 q 615 1192 569 1222 q 660 1119 660 1163 q 643 1053 660 1082 q 598 1006 626 1025 q 531 975 569 986 q 450 958 493 964 l 443 1035 q 495 1052 475 1042 q 515 1086 515 1063 q 494 1116 515 1106 q 419 1129 474 1126 l 460 1226 z "},"Ấ":{"ha":761,"x_min":-86,"x_max":942,"o":"m 493 371 l 488 490 q 482 622 485 557 q 476 760 479 688 l 471 760 q 414 624 442 689 q 354 490 386 558 l 299 371 l 493 371 m 500 228 l 231 228 l 124 0 l -86 0 l 392 906 l 619 906 l 710 0 l 511 0 l 500 228 m 797 1232 l 942 1232 l 792 1067 l 685 1067 l 797 1232 m 454 1131 l 618 1131 l 714 975 l 579 975 l 524 1051 l 518 1051 l 433 975 l 299 975 l 454 1131 z "},"Ầ":{"ha":761,"x_min":-86,"x_max":838,"o":"m 493 371 l 488 490 q 482 622 485 557 q 476 760 479 688 l 471 760 q 414 624 442 689 q 354 490 386 558 l 299 371 l 493 371 m 500 228 l 231 228 l 124 0 l -86 0 l 392 906 l 619 906 l 710 0 l 511 0 l 500 228 m 838 1067 l 729 1067 l 643 1232 l 788 1232 l 838 1067 m 454 1131 l 618 1131 l 714 975 l 579 975 l 524 1051 l 518 1051 l 433 975 l 299 975 l 454 1131 z "},"Ẩ":{"ha":761,"x_min":-86,"x_max":876,"o":"m 493 371 l 488 490 q 482 622 485 557 q 476 760 479 688 l 471 760 q 414 624 442 689 q 354 490 386 558 l 299 371 l 493 371 m 500 228 l 231 228 l 124 0 l -86 0 l 392 906 l 619 906 l 710 0 l 511 0 l 500 228 m 454 1131 l 618 1131 l 714 975 l 579 975 l 524 1051 l 518 1051 l 433 975 l 299 975 l 454 1131 m 706 1269 q 840 1241 804 1267 q 876 1176 876 1215 q 828 1079 876 1110 q 703 1040 781 1049 l 699 1103 q 740 1119 725 1110 q 754 1153 754 1129 q 737 1178 754 1168 q 672 1192 719 1188 l 706 1269 z "},"Ẫ":{"ha":761,"x_min":-86,"x_max":774,"o":"m 493 371 l 488 490 q 482 622 485 557 q 476 760 479 688 l 471 760 q 414 624 442 689 q 354 490 386 558 l 299 371 l 493 371 m 500 228 l 231 228 l 124 0 l -86 0 l 392 906 l 619 906 l 710 0 l 511 0 l 500 228 m 454 1131 l 618 1131 l 714 975 l 579 975 l 524 1051 l 518 1051 l 433 975 l 299 975 l 454 1131 m 344 1181 q 410 1297 368 1258 q 496 1335 451 1335 q 537 1326 518 1335 q 571 1306 556 1317 q 600 1287 586 1296 q 629 1278 614 1278 q 690 1335 665 1278 l 774 1335 q 708 1218 750 1256 q 622 1181 665 1181 q 581 1189 599 1181 q 547 1208 563 1197 q 518 1226 532 1218 q 490 1235 504 1235 q 431 1181 451 1235 l 344 1181 z "},"Ậ":{"ha":761,"x_min":-86,"x_max":718,"o":"m 493 371 l 488 490 q 482 622 485 557 q 476 760 479 688 l 471 760 q 414 624 442 689 q 354 490 386 558 l 299 371 l 493 371 m 500 228 l 231 228 l 124 0 l -86 0 l 392 906 l 619 906 l 710 0 l 511 0 l 500 228 m 439 1139 l 622 1139 l 718 975 l 579 975 l 521 1063 l 518 1063 l 429 975 l 278 975 l 439 1139 m 281 -308 q 210 -285 242 -308 q 178 -217 178 -262 q 187 -174 178 -194 q 212 -137 196 -153 q 249 -113 228 -122 q 296 -104 271 -104 q 367 -128 336 -104 q 399 -196 399 -151 q 365 -276 399 -244 q 281 -308 331 -308 z "},"Ắ":{"ha":761,"x_min":-86,"x_max":728,"o":"m 493 371 l 488 490 q 482 622 485 557 q 476 760 479 688 l 471 760 q 414 624 442 689 q 354 490 386 558 l 299 371 l 493 371 m 500 228 l 231 228 l 124 0 l -86 0 l 392 906 l 619 906 l 710 0 l 511 0 l 500 228 m 586 1279 l 728 1279 l 561 1119 l 465 1119 l 586 1279 m 500 975 q 383 1020 419 975 q 353 1139 346 1065 l 443 1139 q 463 1080 440 1099 q 518 1061 485 1061 q 582 1081 554 1061 q 621 1139 610 1101 l 714 1139 q 641 1020 690 1065 q 500 975 592 975 z "},"Ằ":{"ha":761,"x_min":-86,"x_max":714,"o":"m 493 371 l 488 490 q 482 622 485 557 q 476 760 479 688 l 471 760 q 414 624 442 689 q 354 490 386 558 l 299 371 l 493 371 m 500 228 l 231 228 l 124 0 l -86 0 l 392 906 l 619 906 l 710 0 l 511 0 l 500 228 m 593 1119 l 497 1119 l 421 1279 l 561 1279 l 593 1119 m 500 975 q 383 1020 419 975 q 353 1139 346 1065 l 443 1139 q 463 1080 440 1099 q 518 1061 485 1061 q 582 1081 554 1061 q 621 1139 610 1101 l 714 1139 q 641 1020 690 1065 q 500 975 592 975 z "},"Ẳ":{"ha":761,"x_min":-86,"x_max":714,"o":"m 493 371 l 488 490 q 482 622 485 557 q 476 760 479 688 l 471 760 q 414 624 442 689 q 354 490 386 558 l 299 371 l 493 371 m 500 228 l 231 228 l 124 0 l -86 0 l 392 906 l 619 906 l 710 0 l 511 0 l 500 228 m 500 975 q 383 1020 419 975 q 353 1139 346 1065 l 443 1139 q 463 1080 440 1099 q 518 1061 485 1061 q 582 1081 554 1061 q 621 1139 610 1101 l 714 1139 q 641 1020 690 1065 q 500 975 592 975 m 485 1344 q 568 1335 535 1343 q 621 1315 601 1328 q 649 1287 640 1303 q 657 1251 657 1271 q 608 1154 657 1185 q 482 1117 560 1124 l 478 1178 q 520 1194 506 1185 q 535 1228 535 1204 q 517 1253 535 1243 q 453 1267 499 1263 l 485 1344 z "},"Ẵ":{"ha":761,"x_min":-86,"x_max":774,"o":"m 493 371 l 488 490 q 482 622 485 557 q 476 760 479 688 l 471 760 q 414 624 442 689 q 354 490 386 558 l 299 371 l 493 371 m 500 228 l 231 228 l 124 0 l -86 0 l 392 906 l 619 906 l 710 0 l 511 0 l 500 228 m 500 975 q 383 1020 419 975 q 353 1139 346 1065 l 443 1139 q 463 1080 440 1099 q 518 1061 485 1061 q 582 1081 554 1061 q 621 1139 610 1101 l 714 1139 q 641 1020 690 1065 q 500 975 592 975 m 344 1181 q 410 1297 368 1258 q 496 1335 451 1335 q 537 1326 518 1335 q 571 1306 556 1317 q 600 1287 586 1296 q 629 1278 614 1278 q 690 1335 665 1278 l 774 1335 q 708 1218 750 1256 q 622 1181 665 1181 q 581 1189 599 1181 q 547 1208 563 1197 q 518 1226 532 1218 q 490 1235 504 1235 q 431 1181 451 1235 l 344 1181 z "},"Ặ":{"ha":761,"x_min":-86,"x_max":711,"o":"m 493 371 l 488 490 q 482 622 485 557 q 476 760 479 688 l 471 760 q 414 624 442 689 q 354 490 386 558 l 299 371 l 493 371 m 500 228 l 231 228 l 124 0 l -86 0 l 392 906 l 619 906 l 710 0 l 511 0 l 500 228 m 499 975 q 381 1020 418 975 q 351 1139 344 1065 l 453 1139 q 467 1089 450 1107 q 517 1071 483 1071 q 574 1090 551 1071 q 607 1139 596 1110 l 711 1139 q 638 1020 688 1065 q 499 975 589 975 m 281 -308 q 210 -285 242 -308 q 178 -217 178 -262 q 187 -174 178 -194 q 212 -137 196 -153 q 249 -113 228 -122 q 296 -104 271 -104 q 367 -128 336 -104 q 399 -196 399 -151 q 365 -276 399 -244 q 281 -308 331 -308 z "},"Ą":{"ha":761,"x_min":-86,"x_max":710,"o":"m 493 371 l 488 490 q 482 622 485 557 q 476 760 479 688 l 471 760 q 414 624 442 689 q 354 490 386 558 l 299 371 l 493 371 m 710 0 q 596 -70 628 -32 q 564 -140 564 -108 q 578 -174 564 -162 q 613 -185 593 -185 q 631 -182 622 -185 q 650 -172 639 -179 l 688 -265 q 618 -297 658 -285 q 543 -308 578 -308 q 451 -281 486 -308 q 415 -201 415 -253 q 429 -137 415 -168 q 463 -81 443 -107 q 505 -34 482 -54 q 547 0 528 -14 l 511 0 l 500 228 l 231 228 l 124 0 l -86 0 l 392 906 l 619 906 l 710 0 z "},"Æ":{"ha":1164,"x_min":-49,"x_max":1190,"o":"m 557 364 l 638 768 l 633 768 q 552 638 592 700 q 472 508 513 575 l 385 364 l 557 364 m 822 746 l 785 549 l 1068 549 l 1036 389 l 754 389 l 706 160 l 1054 160 l 1022 0 l 485 0 l 528 215 l 296 215 l 165 0 l -49 0 l 538 906 l 1190 906 l 1158 746 l 822 746 z "},"Ç":{"ha":788,"x_min":78,"x_max":801,"o":"m 78 363 q 115 581 78 479 q 217 759 153 683 q 370 878 282 835 q 560 922 458 922 q 701 884 639 922 q 801 778 763 846 l 671 678 q 617 738 646 718 q 550 757 588 757 q 442 726 492 757 q 354 642 392 694 q 295 519 317 589 q 274 375 274 450 q 318 208 274 269 q 463 147 363 147 q 542 167 503 147 q 617 217 581 186 l 696 94 q 647 56 675 75 q 585 20 619 36 q 509 -6 550 4 q 422 -17 468 -17 q 280 9 343 -17 q 172 84 217 35 q 102 203 126 133 q 78 363 78 274 m 350 6 l 461 6 l 419 -62 q 463 -92 446 -74 q 481 -144 481 -111 q 459 -214 481 -185 q 401 -262 438 -243 q 318 -292 365 -282 q 219 -306 271 -303 l 214 -229 q 303 -207 267 -224 q 339 -160 339 -190 q 326 -130 339 -143 q 275 -106 313 -117 l 350 6 z "},"Ć":{"ha":788,"x_min":78,"x_max":839,"o":"m 78 363 q 115 581 78 479 q 217 759 153 683 q 370 878 282 835 q 560 922 458 922 q 701 884 639 922 q 801 778 763 846 l 671 678 q 617 738 646 718 q 550 757 588 757 q 442 726 492 757 q 354 642 392 694 q 295 519 317 589 q 274 375 274 450 q 318 208 274 269 q 463 147 363 147 q 542 167 503 147 q 617 217 581 186 l 696 94 q 647 56 675 75 q 585 20 619 36 q 509 -6 550 4 q 422 -17 468 -17 q 280 9 343 -17 q 172 84 217 35 q 102 203 126 133 q 78 363 78 274 m 633 1139 l 839 1139 l 647 975 l 492 975 l 633 1139 z "},"Ĉ":{"ha":788,"x_min":78,"x_max":813,"o":"m 78 363 q 115 581 78 479 q 217 759 153 683 q 370 878 282 835 q 560 922 458 922 q 701 884 639 922 q 801 778 763 846 l 671 678 q 617 738 646 718 q 550 757 588 757 q 442 726 492 757 q 354 642 392 694 q 295 519 317 589 q 274 375 274 450 q 318 208 274 269 q 463 147 363 147 q 542 167 503 147 q 617 217 581 186 l 696 94 q 647 56 675 75 q 585 20 619 36 q 509 -6 550 4 q 422 -17 468 -17 q 280 9 343 -17 q 172 84 217 35 q 102 203 126 133 q 78 363 78 274 m 533 1139 l 717 1139 l 813 975 l 674 975 l 615 1063 l 613 1063 l 524 975 l 372 975 l 533 1139 z "},"Č":{"ha":788,"x_min":78,"x_max":846,"o":"m 78 363 q 115 581 78 479 q 217 759 153 683 q 370 878 282 835 q 560 922 458 922 q 701 884 639 922 q 801 778 763 846 l 671 678 q 617 738 646 718 q 550 757 588 757 q 442 726 492 757 q 354 642 392 694 q 295 519 317 589 q 274 375 274 450 q 318 208 274 269 q 463 147 363 147 q 542 167 503 147 q 617 217 581 186 l 696 94 q 647 56 675 75 q 585 20 619 36 q 509 -6 550 4 q 422 -17 468 -17 q 280 9 343 -17 q 172 84 217 35 q 102 203 126 133 q 78 363 78 274 m 685 975 l 501 975 l 406 1139 l 544 1139 l 603 1051 l 606 1051 l 694 1139 l 846 1139 l 685 975 z "},"Ċ":{"ha":788,"x_min":78,"x_max":801,"o":"m 78 363 q 115 581 78 479 q 217 759 153 683 q 370 878 282 835 q 560 922 458 922 q 701 884 639 922 q 801 778 763 846 l 671 678 q 617 738 646 718 q 550 757 588 757 q 442 726 492 757 q 354 642 392 694 q 295 519 317 589 q 274 375 274 450 q 318 208 274 269 q 463 147 363 147 q 542 167 503 147 q 617 217 581 186 l 696 94 q 647 56 675 75 q 585 20 619 36 q 509 -6 550 4 q 422 -17 468 -17 q 280 9 343 -17 q 172 84 217 35 q 102 203 126 133 q 78 363 78 274 m 606 976 q 535 999 567 976 q 503 1068 503 1022 q 512 1111 503 1090 q 537 1147 521 1132 q 574 1172 553 1163 q 621 1181 596 1181 q 692 1157 661 1181 q 724 1089 724 1133 q 690 1008 724 1040 q 606 976 656 976 z "},"Ď":{"ha":856,"x_min":39,"x_max":819,"o":"m 221 906 l 419 906 q 715 818 610 906 q 819 550 819 731 q 783 314 819 417 q 680 141 746 211 q 522 35 614 71 q 322 0 431 0 l 39 0 l 221 906 m 318 153 q 440 176 383 153 q 537 246 496 199 q 601 366 578 293 q 625 538 625 439 q 568 701 625 650 q 415 753 511 753 l 379 753 l 261 153 l 318 153 m 631 975 l 447 975 l 351 1139 l 490 1139 l 549 1051 l 551 1051 l 640 1139 l 792 1139 l 631 975 z "},"Ḍ":{"ha":856,"x_min":39,"x_max":819,"o":"m 221 906 l 419 906 q 715 818 610 906 q 819 550 819 731 q 783 314 819 417 q 680 141 746 211 q 522 35 614 71 q 322 0 431 0 l 39 0 l 221 906 m 318 153 q 440 176 383 153 q 537 246 496 199 q 601 366 578 293 q 625 538 625 439 q 568 701 625 650 q 415 753 511 753 l 379 753 l 261 153 l 318 153 m 349 -308 q 278 -285 310 -308 q 246 -217 246 -262 q 255 -174 246 -194 q 280 -137 264 -153 q 317 -113 296 -122 q 364 -104 339 -104 q 435 -128 404 -104 q 467 -196 467 -151 q 433 -276 467 -244 q 349 -308 399 -308 z "},"Ḏ":{"ha":856,"x_min":39,"x_max":819,"o":"m 221 906 l 419 906 q 715 818 610 906 q 819 550 819 731 q 783 314 819 417 q 680 141 746 211 q 522 35 614 71 q 322 0 431 0 l 39 0 l 221 906 m 318 153 q 440 176 383 153 q 537 246 496 199 q 601 366 578 293 q 625 538 625 439 q 568 701 625 650 q 415 753 511 753 l 379 753 l 261 153 l 318 153 m 188 -125 l 553 -125 l 529 -246 l 164 -246 l 188 -125 z "},"Đ":{"ha":881,"x_min":53,"x_max":844,"o":"m 343 153 q 465 176 408 153 q 562 246 521 199 q 626 366 603 293 q 650 538 650 439 q 593 701 650 650 q 440 753 536 753 l 404 753 l 358 519 l 532 519 l 511 426 l 340 426 l 286 153 l 343 153 m 444 906 q 740 818 635 906 q 844 550 844 731 q 808 314 844 417 q 705 141 771 211 q 547 35 639 71 q 347 0 456 0 l 64 0 l 150 426 l 53 426 l 69 513 l 168 519 l 246 906 l 444 906 z "},"È":{"ha":732,"x_min":39,"x_max":757,"o":"m 221 906 l 757 906 l 726 746 l 378 746 l 339 549 l 635 549 l 604 389 l 308 389 l 261 160 l 621 160 l 590 0 l 39 0 l 221 906 m 321 1139 l 515 1139 l 593 975 l 450 975 l 321 1139 z "},"É":{"ha":732,"x_min":39,"x_max":757,"o":"m 221 906 l 757 906 l 726 746 l 378 746 l 339 549 l 635 549 l 604 389 l 308 389 l 261 160 l 621 160 l 590 0 l 39 0 l 221 906 m 542 1139 l 747 1139 l 556 975 l 400 975 l 542 1139 z "},"Ê":{"ha":732,"x_min":39,"x_max":757,"o":"m 221 906 l 757 906 l 726 746 l 378 746 l 339 549 l 635 549 l 604 389 l 308 389 l 261 160 l 621 160 l 590 0 l 39 0 l 221 906 m 442 1139 l 625 1139 l 721 975 l 582 975 l 524 1063 l 521 1063 l 432 975 l 281 975 l 442 1139 z "},"Ě":{"ha":732,"x_min":39,"x_max":757,"o":"m 221 906 l 757 906 l 726 746 l 378 746 l 339 549 l 635 549 l 604 389 l 308 389 l 261 160 l 621 160 l 590 0 l 39 0 l 221 906 m 593 975 l 410 975 l 314 1139 l 453 1139 l 511 1051 l 514 1051 l 603 1139 l 754 1139 l 593 975 z "},"Ë":{"ha":732,"x_min":39,"x_max":757,"o":"m 221 906 l 757 906 l 726 746 l 378 746 l 339 549 l 635 549 l 604 389 l 308 389 l 261 160 l 621 160 l 590 0 l 39 0 l 221 906 m 378 974 q 320 995 343 974 q 297 1054 297 1017 q 305 1091 297 1072 q 326 1125 313 1110 q 359 1149 340 1140 q 400 1158 378 1158 q 456 1138 432 1158 q 479 1079 479 1117 q 451 1007 479 1040 q 378 974 422 974 m 642 974 q 585 995 608 974 q 563 1054 563 1017 q 570 1091 563 1072 q 591 1125 578 1110 q 623 1149 604 1140 q 664 1158 642 1158 q 719 1138 696 1158 q 743 1079 743 1117 q 715 1007 743 1040 q 642 974 686 974 z "},"Ē":{"ha":732,"x_min":39,"x_max":757,"o":"m 221 906 l 757 906 l 726 746 l 378 746 l 339 549 l 635 549 l 604 389 l 308 389 l 261 160 l 621 160 l 590 0 l 39 0 l 221 906 m 346 1122 l 717 1122 l 693 1000 l 321 1000 l 346 1122 z "},"Ĕ":{"ha":732,"x_min":39,"x_max":757,"o":"m 221 906 l 757 906 l 726 746 l 378 746 l 339 549 l 635 549 l 604 389 l 308 389 l 261 160 l 621 160 l 590 0 l 39 0 l 221 906 m 501 975 q 384 1020 421 975 q 354 1139 347 1065 l 456 1139 q 469 1089 453 1107 q 519 1071 486 1071 q 576 1090 554 1071 q 610 1139 599 1110 l 714 1139 q 641 1020 690 1065 q 501 975 592 975 z "},"Ė":{"ha":732,"x_min":39,"x_max":757,"o":"m 221 906 l 757 906 l 726 746 l 378 746 l 339 549 l 635 549 l 604 389 l 308 389 l 261 160 l 621 160 l 590 0 l 39 0 l 221 906 m 514 976 q 443 999 475 976 q 411 1068 411 1022 q 420 1111 411 1090 q 445 1147 429 1132 q 483 1172 461 1163 q 529 1181 504 1181 q 601 1157 569 1181 q 632 1089 632 1133 q 598 1008 632 1040 q 514 976 564 976 z "},"Ẹ":{"ha":732,"x_min":39,"x_max":757,"o":"m 221 906 l 757 906 l 726 746 l 378 746 l 339 549 l 635 549 l 604 389 l 308 389 l 261 160 l 621 160 l 590 0 l 39 0 l 221 906 m 294 -308 q 224 -285 256 -308 q 192 -217 192 -262 q 201 -174 192 -194 q 226 -137 210 -153 q 263 -113 242 -122 q 310 -104 285 -104 q 381 -128 350 -104 q 413 -196 413 -151 q 378 -276 413 -244 q 294 -308 344 -308 z "},"Ẻ":{"ha":732,"x_min":39,"x_max":757,"o":"m 221 906 l 757 906 l 726 746 l 378 746 l 339 549 l 635 549 l 604 389 l 308 389 l 261 160 l 621 160 l 590 0 l 39 0 l 221 906 m 463 1226 q 617 1192 572 1222 q 663 1119 663 1163 q 646 1053 663 1082 q 601 1006 629 1025 q 534 975 572 986 q 453 958 496 964 l 446 1035 q 498 1052 478 1042 q 518 1086 518 1063 q 497 1116 518 1106 q 422 1129 476 1126 l 463 1226 z "},"Ẽ":{"ha":732,"x_min":39,"x_max":761,"o":"m 221 906 l 757 906 l 726 746 l 378 746 l 339 549 l 635 549 l 604 389 l 308 389 l 261 160 l 621 160 l 590 0 l 39 0 l 221 906 m 278 976 q 348 1110 301 1064 q 444 1157 394 1157 q 496 1147 475 1157 q 533 1124 517 1136 q 566 1102 550 1113 q 603 1092 582 1092 q 661 1154 636 1092 l 761 1154 q 690 1020 738 1067 q 593 974 643 974 q 542 984 563 974 q 504 1006 521 994 q 472 1028 488 1018 q 436 1039 457 1039 q 376 976 403 1039 l 278 976 z "},"Ế":{"ha":732,"x_min":39,"x_max":944,"o":"m 221 906 l 757 906 l 726 746 l 378 746 l 339 549 l 635 549 l 604 389 l 308 389 l 261 160 l 621 160 l 590 0 l 39 0 l 221 906 m 800 1232 l 944 1232 l 794 1067 l 688 1067 l 800 1232 m 457 1131 l 621 1131 l 717 975 l 582 975 l 526 1051 l 521 1051 l 436 975 l 301 975 l 457 1131 z "},"Ề":{"ha":732,"x_min":39,"x_max":840,"o":"m 221 906 l 757 906 l 726 746 l 378 746 l 339 549 l 635 549 l 604 389 l 308 389 l 261 160 l 621 160 l 590 0 l 39 0 l 221 906 m 840 1067 l 732 1067 l 646 1232 l 790 1232 l 840 1067 m 457 1131 l 621 1131 l 717 975 l 582 975 l 526 1051 l 521 1051 l 436 975 l 301 975 l 457 1131 z "},"Ể":{"ha":732,"x_min":39,"x_max":879,"o":"m 221 906 l 757 906 l 726 746 l 378 746 l 339 549 l 635 549 l 604 389 l 308 389 l 261 160 l 621 160 l 590 0 l 39 0 l 221 906 m 457 1131 l 621 1131 l 717 975 l 582 975 l 526 1051 l 521 1051 l 436 975 l 301 975 l 457 1131 m 708 1269 q 843 1241 807 1267 q 879 1176 879 1215 q 831 1079 879 1110 q 706 1040 783 1049 l 701 1103 q 742 1119 728 1110 q 757 1153 757 1129 q 740 1178 757 1168 q 675 1192 722 1188 l 708 1269 z "},"Ễ":{"ha":732,"x_min":39,"x_max":776,"o":"m 221 906 l 757 906 l 726 746 l 378 746 l 339 549 l 635 549 l 604 389 l 308 389 l 261 160 l 621 160 l 590 0 l 39 0 l 221 906 m 457 1131 l 621 1131 l 717 975 l 582 975 l 526 1051 l 521 1051 l 436 975 l 301 975 l 457 1131 m 347 1181 q 413 1297 371 1258 q 499 1335 454 1335 q 540 1326 521 1335 q 574 1306 558 1317 q 603 1287 589 1296 q 632 1278 617 1278 q 693 1335 668 1278 l 776 1335 q 710 1218 753 1256 q 625 1181 668 1181 q 583 1189 601 1181 q 550 1208 565 1197 q 521 1226 535 1218 q 493 1235 507 1235 q 433 1181 454 1235 l 347 1181 z "},"Ệ":{"ha":732,"x_min":39,"x_max":757,"o":"m 221 906 l 757 906 l 726 746 l 378 746 l 339 549 l 635 549 l 604 389 l 308 389 l 261 160 l 621 160 l 590 0 l 39 0 l 221 906 m 442 1139 l 625 1139 l 721 975 l 582 975 l 524 1063 l 521 1063 l 432 975 l 281 975 l 442 1139 m 294 -308 q 224 -285 256 -308 q 192 -217 192 -262 q 201 -174 192 -194 q 226 -137 210 -153 q 263 -113 242 -122 q 310 -104 285 -104 q 381 -128 350 -104 q 413 -196 413 -151 q 378 -276 413 -244 q 294 -308 344 -308 z "},"Ę":{"ha":732,"x_min":39,"x_max":757,"o":"m 221 906 l 757 906 l 726 746 l 378 746 l 339 549 l 635 549 l 604 389 l 308 389 l 261 160 l 621 160 l 590 0 q 533 -21 558 -4 q 488 -58 507 -37 q 460 -101 469 -79 q 450 -140 450 -124 q 465 -174 450 -162 q 499 -185 479 -185 q 516 -182 507 -185 q 536 -172 525 -179 l 572 -265 q 503 -297 543 -285 q 429 -308 463 -308 q 336 -281 371 -308 q 301 -201 301 -253 q 316 -135 301 -167 q 351 -76 331 -103 q 394 -31 372 -50 q 433 0 417 -11 l 39 0 l 221 906 z "},"Ĝ":{"ha":849,"x_min":78,"x_max":826,"o":"m 78 363 q 115 581 78 479 q 219 759 153 683 q 376 878 285 835 q 574 922 467 922 q 724 884 661 922 q 826 778 788 846 l 697 678 q 640 738 671 718 q 564 757 608 757 q 448 726 501 757 q 356 642 394 694 q 295 519 317 589 q 274 375 274 450 q 284 281 274 322 q 318 208 294 239 q 379 162 342 178 q 469 146 417 146 q 523 154 497 146 q 568 176 549 163 l 607 354 l 458 354 l 488 510 l 803 510 l 719 78 q 594 10 667 38 q 436 -17 522 -17 q 286 9 353 -17 q 173 83 219 35 q 102 202 126 132 q 78 363 78 272 m 526 1139 l 710 1139 l 806 975 l 667 975 l 608 1063 l 606 1063 l 517 975 l 365 975 l 526 1139 z "},"Ğ":{"ha":849,"x_min":78,"x_max":826,"o":"m 78 363 q 115 581 78 479 q 219 759 153 683 q 376 878 285 835 q 574 922 467 922 q 724 884 661 922 q 826 778 788 846 l 697 678 q 640 738 671 718 q 564 757 608 757 q 448 726 501 757 q 356 642 394 694 q 295 519 317 589 q 274 375 274 450 q 284 281 274 322 q 318 208 294 239 q 379 162 342 178 q 469 146 417 146 q 523 154 497 146 q 568 176 549 163 l 607 354 l 458 354 l 488 510 l 803 510 l 719 78 q 594 10 667 38 q 436 -17 522 -17 q 286 9 353 -17 q 173 83 219 35 q 102 202 126 132 q 78 363 78 272 m 586 975 q 469 1020 506 975 q 439 1139 432 1065 l 540 1139 q 554 1089 538 1107 q 604 1071 571 1071 q 661 1090 639 1071 q 694 1139 683 1110 l 799 1139 q 726 1020 775 1065 q 586 975 676 975 z "},"Ġ":{"ha":849,"x_min":78,"x_max":826,"o":"m 78 363 q 115 581 78 479 q 219 759 153 683 q 376 878 285 835 q 574 922 467 922 q 724 884 661 922 q 826 778 788 846 l 697 678 q 640 738 671 718 q 564 757 608 757 q 448 726 501 757 q 356 642 394 694 q 295 519 317 589 q 274 375 274 450 q 284 281 274 322 q 318 208 294 239 q 379 162 342 178 q 469 146 417 146 q 523 154 497 146 q 568 176 549 163 l 607 354 l 458 354 l 488 510 l 803 510 l 719 78 q 594 10 667 38 q 436 -17 522 -17 q 286 9 353 -17 q 173 83 219 35 q 102 202 126 132 q 78 363 78 272 m 599 976 q 528 999 560 976 q 496 1068 496 1022 q 505 1111 496 1090 q 530 1147 514 1132 q 567 1172 546 1163 q 614 1181 589 1181 q 685 1157 654 1181 q 717 1089 717 1133 q 683 1008 717 1040 q 599 976 649 976 z "},"Ģ":{"ha":849,"x_min":78,"x_max":826,"o":"m 78 363 q 115 581 78 479 q 219 759 153 683 q 376 878 285 835 q 574 922 467 922 q 724 884 661 922 q 826 778 788 846 l 697 678 q 640 738 671 718 q 564 757 608 757 q 448 726 501 757 q 356 642 394 694 q 295 519 317 589 q 274 375 274 450 q 284 281 274 322 q 318 208 294 239 q 379 162 342 178 q 469 146 417 146 q 523 154 497 146 q 568 176 549 163 l 607 354 l 458 354 l 488 510 l 803 510 l 719 78 q 594 10 667 38 q 436 -17 522 -17 q 286 9 353 -17 q 173 83 219 35 q 102 202 126 132 q 78 363 78 272 m 385 -53 q 484 -89 449 -64 q 519 -158 519 -114 q 499 -228 519 -200 q 444 -272 479 -256 q 365 -295 410 -287 q 268 -306 319 -303 l 263 -229 q 356 -210 326 -224 q 385 -167 385 -196 q 336 -121 385 -136 l 385 -53 z "},"Ǧ":{"ha":849,"x_min":78,"x_max":839,"o":"m 78 363 q 115 581 78 479 q 219 759 153 683 q 376 878 285 835 q 574 922 467 922 q 724 884 661 922 q 826 778 788 846 l 697 678 q 640 738 671 718 q 564 757 608 757 q 448 726 501 757 q 356 642 394 694 q 295 519 317 589 q 274 375 274 450 q 284 281 274 322 q 318 208 294 239 q 379 162 342 178 q 469 146 417 146 q 523 154 497 146 q 568 176 549 163 l 607 354 l 458 354 l 488 510 l 803 510 l 719 78 q 594 10 667 38 q 436 -17 522 -17 q 286 9 353 -17 q 173 83 219 35 q 102 202 126 132 q 78 363 78 272 m 678 975 l 494 975 l 399 1139 l 538 1139 l 596 1051 l 599 1051 l 688 1139 l 839 1139 l 678 975 z "},"Ḡ":{"ha":849,"x_min":78,"x_max":826,"o":"m 78 363 q 115 581 78 479 q 219 759 153 683 q 376 878 285 835 q 574 922 467 922 q 724 884 661 922 q 826 778 788 846 l 697 678 q 640 738 671 718 q 564 757 608 757 q 448 726 501 757 q 356 642 394 694 q 295 519 317 589 q 274 375 274 450 q 284 281 274 322 q 318 208 294 239 q 379 162 342 178 q 469 146 417 146 q 523 154 497 146 q 568 176 549 163 l 607 354 l 458 354 l 488 510 l 803 510 l 719 78 q 594 10 667 38 q 436 -17 522 -17 q 286 9 353 -17 q 173 83 219 35 q 102 202 126 132 q 78 363 78 272 m 431 1122 l 801 1122 l 778 1000 l 406 1000 l 431 1122 z "},"Ĥ":{"ha":906,"x_min":39,"x_max":908,"o":"m 221 906 l 411 906 l 339 554 l 649 554 l 718 906 l 908 906 l 728 0 l 536 0 l 615 388 l 306 388 l 231 0 l 39 0 l 221 906 m 494 1139 l 678 1139 l 774 975 l 635 975 l 576 1063 l 574 1063 l 485 975 l 333 975 l 494 1139 z "},"Ḥ":{"ha":906,"x_min":39,"x_max":908,"o":"m 221 906 l 411 906 l 339 554 l 649 554 l 718 906 l 908 906 l 728 0 l 536 0 l 615 388 l 306 388 l 231 0 l 39 0 l 221 906 m 349 -308 q 278 -285 310 -308 q 246 -217 246 -262 q 255 -174 246 -194 q 280 -137 264 -153 q 317 -113 296 -122 q 364 -104 339 -104 q 435 -128 404 -104 q 467 -196 467 -151 q 433 -276 467 -244 q 349 -308 399 -308 z "},"Ḫ":{"ha":906,"x_min":39,"x_max":908,"o":"m 221 906 l 411 906 l 339 554 l 649 554 l 718 906 l 908 906 l 728 0 l 536 0 l 615 388 l 306 388 l 231 0 l 39 0 l 221 906 m 339 -289 q 263 -273 294 -289 q 215 -231 232 -257 q 192 -170 197 -204 q 194 -99 188 -136 l 296 -99 q 306 -160 292 -135 q 358 -186 319 -186 q 422 -160 397 -186 q 457 -99 446 -135 l 564 -99 q 535 -170 554 -136 q 489 -231 517 -204 q 424 -273 461 -257 q 339 -289 386 -289 z "},"Ħ":{"ha":914,"x_min":43,"x_max":1017,"o":"m 676 679 l 368 679 l 343 554 l 651 554 l 676 679 m 999 679 l 867 679 l 731 0 l 540 0 l 618 388 l 310 388 l 233 0 l 43 0 l 179 679 l 97 679 l 115 765 l 197 772 l 224 906 l 414 906 l 388 774 l 694 774 l 721 906 l 911 906 l 885 774 l 1017 774 l 999 679 z "},"Ì":{"ha":408,"x_min":39,"x_max":411,"o":"m 221 906 l 411 906 l 231 0 l 39 0 l 221 906 m 132 1139 l 326 1139 l 404 975 l 261 975 l 132 1139 z "},"Í":{"ha":408,"x_min":39,"x_max":558,"o":"m 221 906 l 411 906 l 231 0 l 39 0 l 221 906 m 353 1139 l 558 1139 l 367 975 l 211 975 l 353 1139 z "},"Î":{"ha":408,"x_min":39,"x_max":532,"o":"m 221 906 l 411 906 l 231 0 l 39 0 l 221 906 m 253 1139 l 436 1139 l 532 975 l 393 975 l 335 1063 l 332 1063 l 243 975 l 92 975 l 253 1139 z "},"Ĩ":{"ha":408,"x_min":39,"x_max":572,"o":"m 221 906 l 411 906 l 231 0 l 39 0 l 221 906 m 89 976 q 159 1110 113 1064 q 256 1157 206 1157 q 307 1147 286 1157 q 344 1124 328 1136 q 377 1102 361 1113 q 414 1092 393 1092 q 472 1154 447 1092 l 572 1154 q 501 1020 549 1067 q 404 974 454 974 q 353 984 374 974 q 315 1006 332 994 q 283 1028 299 1018 q 247 1039 268 1039 q 188 976 214 1039 l 89 976 z "},"Ï":{"ha":408,"x_min":39,"x_max":554,"o":"m 221 906 l 411 906 l 231 0 l 39 0 l 221 906 m 189 974 q 131 995 154 974 q 108 1054 108 1017 q 116 1091 108 1072 q 138 1125 124 1110 q 170 1149 151 1140 q 211 1158 189 1158 q 267 1138 243 1158 q 290 1079 290 1117 q 262 1007 290 1040 q 189 974 233 974 m 453 974 q 397 995 419 974 q 374 1054 374 1017 q 381 1091 374 1072 q 402 1125 389 1110 q 434 1149 415 1140 q 475 1158 453 1158 q 531 1138 507 1158 q 554 1079 554 1117 q 526 1007 554 1040 q 453 974 497 974 z "},"Ī":{"ha":408,"x_min":39,"x_max":528,"o":"m 221 906 l 411 906 l 231 0 l 39 0 l 221 906 m 157 1122 l 528 1122 l 504 1000 l 132 1000 l 157 1122 z "},"İ":{"ha":408,"x_min":39,"x_max":443,"o":"m 221 906 l 411 906 l 231 0 l 39 0 l 221 906 m 325 976 q 254 999 286 976 q 222 1068 222 1022 q 231 1111 222 1090 q 256 1147 240 1132 q 294 1172 272 1163 q 340 1181 315 1181 q 412 1157 381 1181 q 443 1089 443 1133 q 409 1008 443 1040 q 325 976 375 976 z "},"Ǐ":{"ha":408,"x_min":39,"x_max":565,"o":"m 221 906 l 411 906 l 231 0 l 39 0 l 221 906 m 404 975 l 221 975 l 125 1139 l 264 1139 l 322 1051 l 325 1051 l 414 1139 l 565 1139 l 404 975 z "},"Ỉ":{"ha":408,"x_min":39,"x_max":474,"o":"m 221 906 l 411 906 l 231 0 l 39 0 l 221 906 m 274 1226 q 428 1192 383 1222 q 474 1119 474 1163 q 457 1053 474 1082 q 412 1006 440 1025 q 345 975 383 986 q 264 958 307 964 l 257 1035 q 309 1052 289 1042 q 329 1086 329 1063 q 308 1116 329 1106 q 233 1129 288 1126 l 274 1226 z "},"Ị":{"ha":408,"x_min":-10,"x_max":411,"o":"m 221 906 l 411 906 l 231 0 l 39 0 l 221 906 m 93 -310 q 22 -287 54 -310 q -10 -218 -10 -264 q -1 -175 -10 -196 q 24 -139 8 -154 q 62 -115 40 -124 q 108 -106 83 -106 q 180 -129 149 -106 q 211 -197 211 -153 q 177 -278 211 -246 q 93 -310 143 -310 z "},"Į":{"ha":408,"x_min":-49,"x_max":411,"o":"m 100 -140 q 115 -174 100 -162 q 149 -185 129 -185 q 166 -182 157 -185 q 186 -172 175 -179 l 222 -264 q 153 -296 194 -283 q 79 -308 113 -308 q -14 -281 21 -308 q -49 -201 -49 -253 q -34 -135 -49 -167 q 1 -76 -19 -103 q 44 -31 22 -50 q 83 0 67 -11 l 39 0 l 221 906 l 411 906 l 231 0 q 132 -67 164 -25 q 100 -140 100 -108 z "},"Ĵ":{"ha":682,"x_min":-11,"x_max":810,"o":"m 567 282 q 530 167 554 221 q 466 72 506 113 q 372 7 426 31 q 244 -17 317 -17 q 97 19 165 -17 q -11 121 29 54 l 106 236 q 160 174 125 200 q 244 147 196 147 q 383 315 350 147 l 501 906 l 692 906 l 567 282 l 567 282 m 531 1139 l 714 1139 l 810 975 l 671 975 l 613 1063 l 610 1063 l 521 975 l 369 975 l 531 1139 z "},"Ķ":{"ha":839,"x_min":39,"x_max":890,"o":"m 221 906 l 411 906 l 338 533 l 342 533 l 682 906 l 890 906 l 561 533 l 764 0 l 565 0 l 421 414 l 283 265 l 231 0 l 39 0 l 221 906 m 351 -53 q 451 -89 415 -64 q 486 -158 486 -114 q 466 -228 486 -200 q 411 -272 446 -256 q 331 -295 376 -287 q 235 -306 286 -303 l 229 -229 q 322 -210 293 -224 q 351 -167 351 -196 q 303 -121 351 -136 l 351 -53 z "},"Ĺ":{"ha":694,"x_min":39,"x_max":604,"o":"m 221 906 l 411 906 l 261 160 l 604 160 l 574 0 l 39 0 l 221 906 m 374 1139 l 579 1139 l 388 975 l 232 975 l 374 1139 z "},"Ľ":{"ha":694,"x_min":39,"x_max":718,"o":"m 221 906 l 411 906 l 261 160 l 604 160 l 574 0 l 39 0 l 221 906 m 542 707 l 597 1015 l 718 1015 l 699 919 l 625 707 l 542 707 z "},"Ļ":{"ha":694,"x_min":39,"x_max":604,"o":"m 221 906 l 411 906 l 261 160 l 604 160 l 574 0 l 39 0 l 221 906 m 275 -53 q 374 -89 339 -64 q 410 -158 410 -114 q 390 -228 410 -200 q 335 -272 369 -256 q 255 -295 300 -287 q 158 -306 210 -303 l 153 -229 q 246 -210 217 -224 q 275 -167 275 -196 q 226 -121 275 -136 l 275 -53 z "},"Ŀ":{"ha":694,"x_min":39,"x_max":692,"o":"m 221 906 l 411 906 l 261 160 l 604 160 l 574 0 l 39 0 l 221 906 m 556 332 q 485 360 511 332 q 458 435 458 389 q 468 485 458 460 q 496 531 478 511 q 539 563 514 550 q 594 575 564 575 q 665 545 639 575 q 692 471 692 515 q 682 419 692 444 q 654 375 672 394 q 611 344 636 356 q 556 332 586 332 z "},"Ḷ":{"ha":694,"x_min":39,"x_max":604,"o":"m 221 906 l 411 906 l 261 160 l 604 160 l 574 0 l 39 0 l 221 906 m 279 -308 q 208 -285 240 -308 q 176 -217 176 -262 q 185 -174 176 -194 q 210 -137 194 -153 q 248 -113 226 -122 q 294 -104 269 -104 q 366 -128 335 -104 q 397 -196 397 -151 q 363 -276 397 -244 q 279 -308 329 -308 z "},"Ḹ":{"ha":694,"x_min":39,"x_max":604,"o":"m 221 906 l 411 906 l 261 160 l 604 160 l 574 0 l 39 0 l 221 906 m 178 1122 l 549 1122 l 525 1000 l 153 1000 l 178 1122 m 279 -308 q 208 -285 240 -308 q 176 -217 176 -262 q 185 -174 176 -194 q 210 -137 194 -153 q 248 -113 226 -122 q 294 -104 269 -104 q 366 -128 335 -104 q 397 -196 397 -151 q 363 -276 397 -244 q 279 -308 329 -308 z "},"Ḻ":{"ha":694,"x_min":39,"x_max":604,"o":"m 221 906 l 411 906 l 261 160 l 604 160 l 574 0 l 39 0 l 221 906 m 118 -125 l 483 -125 l 460 -246 l 94 -246 l 118 -125 z "},"Ł":{"ha":694,"x_min":-10,"x_max":604,"o":"m 604 160 l 574 0 l 39 0 l 96 282 l -10 229 l 22 388 l 128 440 l 221 906 l 411 906 l 338 538 l 596 669 l 565 511 l 306 379 l 261 160 l 604 160 z "},"Ṃ":{"ha":1028,"x_min":39,"x_max":1031,"o":"m 221 906 l 422 906 l 488 488 l 511 325 l 517 325 l 600 488 l 828 906 l 1031 906 l 849 0 l 671 0 l 746 360 q 763 433 753 393 q 783 513 772 472 q 806 591 794 553 q 828 663 817 629 l 824 663 l 711 454 l 499 83 l 422 83 l 356 454 l 328 663 l 322 663 q 316 590 319 629 q 308 511 313 551 q 299 432 304 471 q 286 360 293 393 l 214 0 l 39 0 l 221 906 m 407 -319 q 336 -297 368 -319 q 304 -228 304 -274 q 313 -185 304 -206 q 338 -149 322 -164 q 376 -124 354 -133 q 422 -115 397 -115 q 494 -139 463 -115 q 525 -207 525 -162 q 491 -287 525 -256 q 407 -319 457 -319 z "},"Ń":{"ha":893,"x_min":39,"x_max":894,"o":"m 221 906 l 406 906 l 553 433 l 601 235 l 607 235 q 614 311 611 269 q 621 395 617 353 q 631 481 625 438 q 644 563 636 524 l 714 906 l 894 906 l 714 0 l 531 0 l 382 471 l 336 672 l 331 672 q 315 511 324 596 q 290 347 306 426 l 221 0 l 39 0 l 221 906 m 610 1139 l 815 1139 l 624 975 l 468 975 l 610 1139 z "},"Ň":{"ha":893,"x_min":39,"x_max":894,"o":"m 221 906 l 406 906 l 553 433 l 601 235 l 607 235 q 614 311 611 269 q 621 395 617 353 q 631 481 625 438 q 644 563 636 524 l 714 906 l 894 906 l 714 0 l 531 0 l 382 471 l 336 672 l 331 672 q 315 511 324 596 q 290 347 306 426 l 221 0 l 39 0 l 221 906 m 661 975 l 478 975 l 382 1139 l 521 1139 l 579 1051 l 582 1051 l 671 1139 l 822 1139 l 661 975 z "},"Ñ":{"ha":893,"x_min":39,"x_max":894,"o":"m 221 906 l 406 906 l 553 433 l 601 235 l 607 235 q 614 311 611 269 q 621 395 617 353 q 631 481 625 438 q 644 563 636 524 l 714 906 l 894 906 l 714 0 l 531 0 l 382 471 l 336 672 l 331 672 q 315 511 324 596 q 290 347 306 426 l 221 0 l 39 0 l 221 906 m 346 976 q 416 1110 369 1064 q 513 1157 463 1157 q 564 1147 543 1157 q 601 1124 585 1136 q 634 1102 618 1113 q 671 1092 650 1092 q 729 1154 704 1092 l 829 1154 q 758 1020 806 1067 q 661 974 711 974 q 610 984 631 974 q 572 1006 589 994 q 540 1028 556 1018 q 504 1039 525 1039 q 444 976 471 1039 l 346 976 z "},"Ņ":{"ha":893,"x_min":39,"x_max":894,"o":"m 221 906 l 406 906 l 553 433 l 601 235 l 607 235 q 614 311 611 269 q 621 395 617 353 q 631 481 625 438 q 644 563 636 524 l 714 906 l 894 906 l 714 0 l 531 0 l 382 471 l 336 672 l 331 672 q 315 511 324 596 q 290 347 306 426 l 221 0 l 39 0 l 221 906 m 361 -64 q 460 -100 425 -75 q 496 -169 496 -125 q 476 -239 496 -211 q 421 -283 456 -267 q 341 -306 386 -299 q 244 -317 296 -314 l 239 -240 q 332 -221 303 -235 q 361 -178 361 -207 q 313 -132 361 -147 l 361 -64 z "},"Ṅ":{"ha":893,"x_min":39,"x_max":894,"o":"m 221 906 l 406 906 l 553 433 l 601 235 l 607 235 q 614 311 611 269 q 621 395 617 353 q 631 481 625 438 q 644 563 636 524 l 714 906 l 894 906 l 714 0 l 531 0 l 382 471 l 336 672 l 331 672 q 315 511 324 596 q 290 347 306 426 l 221 0 l 39 0 l 221 906 m 582 976 q 511 999 543 976 q 479 1068 479 1022 q 488 1111 479 1090 q 513 1147 497 1132 q 551 1172 529 1163 q 597 1181 572 1181 q 669 1157 638 1181 q 700 1089 700 1133 q 666 1008 700 1040 q 582 976 632 976 z "},"Ṇ":{"ha":893,"x_min":39,"x_max":894,"o":"m 221 906 l 406 906 l 553 433 l 601 235 l 607 235 q 614 311 611 269 q 621 395 617 353 q 631 481 625 438 q 644 563 636 524 l 714 906 l 894 906 l 714 0 l 531 0 l 382 471 l 336 672 l 331 672 q 315 511 324 596 q 290 347 306 426 l 221 0 l 39 0 l 221 906 m 365 -319 q 294 -297 326 -319 q 263 -228 263 -274 q 272 -185 263 -206 q 297 -149 281 -164 q 334 -124 313 -133 q 381 -115 356 -115 q 452 -139 421 -115 q 483 -207 483 -162 q 449 -287 483 -256 q 365 -319 415 -319 z "},"Ṉ":{"ha":893,"x_min":39,"x_max":894,"o":"m 221 906 l 406 906 l 553 433 l 601 235 l 607 235 q 614 311 611 269 q 621 395 617 353 q 631 481 625 438 q 644 563 636 524 l 714 906 l 894 906 l 714 0 l 531 0 l 382 471 l 336 672 l 331 672 q 315 511 324 596 q 290 347 306 426 l 221 0 l 39 0 l 221 906 m 204 -136 l 569 -136 l 546 -257 l 181 -257 l 204 -136 z "},"Ò":{"ha":917,"x_min":79,"x_max":879,"o":"m 419 -17 q 279 9 342 -17 q 172 84 217 35 q 103 205 128 133 q 79 367 79 276 q 117 588 79 486 q 217 765 154 690 q 364 881 281 839 q 539 922 447 922 q 679 896 617 922 q 786 820 742 869 q 855 700 831 771 q 879 539 879 629 q 842 317 879 419 q 741 141 804 215 q 594 25 678 67 q 419 -17 511 -17 m 531 757 q 436 727 482 757 q 354 647 390 697 q 296 527 318 596 q 274 379 274 458 q 314 209 274 271 q 429 147 354 147 q 524 177 478 147 q 606 258 569 207 q 663 378 642 310 q 685 526 685 447 q 645 696 685 635 q 531 757 606 757 m 394 1139 l 589 1139 l 667 975 l 524 975 l 394 1139 z "},"Ó":{"ha":917,"x_min":79,"x_max":879,"o":"m 419 -17 q 279 9 342 -17 q 172 84 217 35 q 103 205 128 133 q 79 367 79 276 q 117 588 79 486 q 217 765 154 690 q 364 881 281 839 q 539 922 447 922 q 679 896 617 922 q 786 820 742 869 q 855 700 831 771 q 879 539 879 629 q 842 317 879 419 q 741 141 804 215 q 594 25 678 67 q 419 -17 511 -17 m 531 757 q 436 727 482 757 q 354 647 390 697 q 296 527 318 596 q 274 379 274 458 q 314 209 274 271 q 429 147 354 147 q 524 177 478 147 q 606 258 569 207 q 663 378 642 310 q 685 526 685 447 q 645 696 685 635 q 531 757 606 757 m 615 1139 l 821 1139 l 629 975 l 474 975 l 615 1139 z "},"Ô":{"ha":917,"x_min":79,"x_max":879,"o":"m 419 -17 q 279 9 342 -17 q 172 84 217 35 q 103 205 128 133 q 79 367 79 276 q 117 588 79 486 q 217 765 154 690 q 364 881 281 839 q 539 922 447 922 q 679 896 617 922 q 786 820 742 869 q 855 700 831 771 q 879 539 879 629 q 842 317 879 419 q 741 141 804 215 q 594 25 678 67 q 419 -17 511 -17 m 531 757 q 436 727 482 757 q 354 647 390 697 q 296 527 318 596 q 274 379 274 458 q 314 209 274 271 q 429 147 354 147 q 524 177 478 147 q 606 258 569 207 q 663 378 642 310 q 685 526 685 447 q 645 696 685 635 q 531 757 606 757 m 515 1139 l 699 1139 l 794 975 l 656 975 l 597 1063 l 594 1063 l 506 975 l 354 975 l 515 1139 z "},"Õ":{"ha":917,"x_min":79,"x_max":879,"o":"m 419 -17 q 279 9 342 -17 q 172 84 217 35 q 103 205 128 133 q 79 367 79 276 q 117 588 79 486 q 217 765 154 690 q 364 881 281 839 q 539 922 447 922 q 679 896 617 922 q 786 820 742 869 q 855 700 831 771 q 879 539 879 629 q 842 317 879 419 q 741 141 804 215 q 594 25 678 67 q 419 -17 511 -17 m 531 757 q 436 727 482 757 q 354 647 390 697 q 296 527 318 596 q 274 379 274 458 q 314 209 274 271 q 429 147 354 147 q 524 177 478 147 q 606 258 569 207 q 663 378 642 310 q 685 526 685 447 q 645 696 685 635 q 531 757 606 757 m 351 976 q 422 1110 375 1064 q 518 1157 468 1157 q 569 1147 549 1157 q 607 1124 590 1136 q 640 1102 624 1113 q 676 1092 656 1092 q 735 1154 710 1092 l 835 1154 q 764 1020 811 1067 q 667 974 717 974 q 615 984 636 974 q 578 1006 594 994 q 546 1028 561 1018 q 510 1039 531 1039 q 450 976 476 1039 l 351 976 z "},"Ö":{"ha":917,"x_min":79,"x_max":879,"o":"m 419 -17 q 279 9 342 -17 q 172 84 217 35 q 103 205 128 133 q 79 367 79 276 q 117 588 79 486 q 217 765 154 690 q 364 881 281 839 q 539 922 447 922 q 679 896 617 922 q 786 820 742 869 q 855 700 831 771 q 879 539 879 629 q 842 317 879 419 q 741 141 804 215 q 594 25 678 67 q 419 -17 511 -17 m 531 757 q 436 727 482 757 q 354 647 390 697 q 296 527 318 596 q 274 379 274 458 q 314 209 274 271 q 429 147 354 147 q 524 177 478 147 q 606 258 569 207 q 663 378 642 310 q 685 526 685 447 q 645 696 685 635 q 531 757 606 757 m 451 974 q 394 995 417 974 q 371 1054 371 1017 q 378 1091 371 1072 q 400 1125 386 1110 q 433 1149 414 1140 q 474 1158 451 1158 q 529 1138 506 1158 q 553 1079 553 1117 q 524 1007 553 1040 q 451 974 496 974 m 715 974 q 659 995 682 974 q 636 1054 636 1017 q 644 1091 636 1072 q 665 1125 651 1110 q 697 1149 678 1140 q 738 1158 715 1158 q 793 1138 769 1158 q 817 1079 817 1117 q 788 1007 817 1040 q 715 974 760 974 z "},"Ō":{"ha":917,"x_min":79,"x_max":879,"o":"m 419 -17 q 279 9 342 -17 q 172 84 217 35 q 103 205 128 133 q 79 367 79 276 q 117 588 79 486 q 217 765 154 690 q 364 881 281 839 q 539 922 447 922 q 679 896 617 922 q 786 820 742 869 q 855 700 831 771 q 879 539 879 629 q 842 317 879 419 q 741 141 804 215 q 594 25 678 67 q 419 -17 511 -17 m 531 757 q 436 727 482 757 q 354 647 390 697 q 296 527 318 596 q 274 379 274 458 q 314 209 274 271 q 429 147 354 147 q 524 177 478 147 q 606 258 569 207 q 663 378 642 310 q 685 526 685 447 q 645 696 685 635 q 531 757 606 757 m 419 1122 l 790 1122 l 767 1000 l 394 1000 l 419 1122 z "},"Ő":{"ha":917,"x_min":79,"x_max":913,"o":"m 419 -17 q 279 9 342 -17 q 172 84 217 35 q 103 205 128 133 q 79 367 79 276 q 117 588 79 486 q 217 765 154 690 q 364 881 281 839 q 539 922 447 922 q 679 896 617 922 q 786 820 742 869 q 855 700 831 771 q 879 539 879 629 q 842 317 879 419 q 741 141 804 215 q 594 25 678 67 q 419 -17 511 -17 m 531 757 q 436 727 482 757 q 354 647 390 697 q 296 527 318 596 q 274 379 274 458 q 314 209 274 271 q 429 147 354 147 q 524 177 478 147 q 606 258 569 207 q 663 378 642 310 q 685 526 685 447 q 645 696 685 635 q 531 757 606 757 m 514 1140 l 676 1140 l 524 975 l 396 975 l 514 1140 m 750 1140 l 913 1140 l 760 975 l 632 975 l 750 1140 z "},"Ǒ":{"ha":917,"x_min":79,"x_max":879,"o":"m 419 -17 q 279 9 342 -17 q 172 84 217 35 q 103 205 128 133 q 79 367 79 276 q 117 588 79 486 q 217 765 154 690 q 364 881 281 839 q 539 922 447 922 q 679 896 617 922 q 786 820 742 869 q 855 700 831 771 q 879 539 879 629 q 842 317 879 419 q 741 141 804 215 q 594 25 678 67 q 419 -17 511 -17 m 531 757 q 436 727 482 757 q 354 647 390 697 q 296 527 318 596 q 274 379 274 458 q 314 209 274 271 q 429 147 354 147 q 524 177 478 147 q 606 258 569 207 q 663 378 642 310 q 685 526 685 447 q 645 696 685 635 q 531 757 606 757 m 667 975 l 483 975 l 388 1139 l 526 1139 l 585 1051 l 588 1051 l 676 1139 l 828 1139 l 667 975 z "},"Ọ":{"ha":917,"x_min":79,"x_max":879,"o":"m 419 -17 q 279 9 342 -17 q 172 84 217 35 q 103 205 128 133 q 79 367 79 276 q 117 588 79 486 q 217 765 154 690 q 364 881 281 839 q 539 922 447 922 q 679 896 617 922 q 786 820 742 869 q 855 700 831 771 q 879 539 879 629 q 842 317 879 419 q 741 141 804 215 q 594 25 678 67 q 419 -17 511 -17 m 531 757 q 436 727 482 757 q 354 647 390 697 q 296 527 318 596 q 274 379 274 458 q 314 209 274 271 q 429 147 354 147 q 524 177 478 147 q 606 258 569 207 q 663 378 642 310 q 685 526 685 447 q 645 696 685 635 q 531 757 606 757 m 358 -308 q 288 -285 319 -308 q 256 -217 256 -262 q 265 -174 256 -194 q 290 -137 274 -153 q 327 -113 306 -122 q 374 -104 349 -104 q 445 -128 414 -104 q 476 -196 476 -151 q 442 -276 476 -244 q 358 -308 408 -308 z "},"Ỏ":{"ha":917,"x_min":79,"x_max":879,"o":"m 419 -17 q 279 9 342 -17 q 172 84 217 35 q 103 205 128 133 q 79 367 79 276 q 117 588 79 486 q 217 765 154 690 q 364 881 281 839 q 539 922 447 922 q 679 896 617 922 q 786 820 742 869 q 855 700 831 771 q 879 539 879 629 q 842 317 879 419 q 741 141 804 215 q 594 25 678 67 q 419 -17 511 -17 m 531 757 q 436 727 482 757 q 354 647 390 697 q 296 527 318 596 q 274 379 274 458 q 314 209 274 271 q 429 147 354 147 q 524 177 478 147 q 606 258 569 207 q 663 378 642 310 q 685 526 685 447 q 645 696 685 635 q 531 757 606 757 m 536 1226 q 691 1192 646 1222 q 736 1119 736 1163 q 719 1053 736 1082 q 674 1006 703 1025 q 608 975 646 986 q 526 958 569 964 l 519 1035 q 572 1052 551 1042 q 592 1086 592 1063 q 571 1116 592 1106 q 496 1129 550 1126 l 536 1226 z "},"Ố":{"ha":917,"x_min":79,"x_max":1018,"o":"m 419 -17 q 279 9 342 -17 q 172 84 217 35 q 103 205 128 133 q 79 367 79 276 q 117 588 79 486 q 217 765 154 690 q 364 881 281 839 q 539 922 447 922 q 679 896 617 922 q 786 820 742 869 q 855 700 831 771 q 879 539 879 629 q 842 317 879 419 q 741 141 804 215 q 594 25 678 67 q 419 -17 511 -17 m 531 757 q 436 727 482 757 q 354 647 390 697 q 296 527 318 596 q 274 379 274 458 q 314 209 274 271 q 429 147 354 147 q 524 177 478 147 q 606 258 569 207 q 663 378 642 310 q 685 526 685 447 q 645 696 685 635 q 531 757 606 757 m 874 1232 l 1018 1232 l 868 1067 l 761 1067 l 874 1232 m 531 1131 l 694 1131 l 790 975 l 656 975 l 600 1051 l 594 1051 l 510 975 l 375 975 l 531 1131 z "},"Ồ":{"ha":917,"x_min":79,"x_max":914,"o":"m 419 -17 q 279 9 342 -17 q 172 84 217 35 q 103 205 128 133 q 79 367 79 276 q 117 588 79 486 q 217 765 154 690 q 364 881 281 839 q 539 922 447 922 q 679 896 617 922 q 786 820 742 869 q 855 700 831 771 q 879 539 879 629 q 842 317 879 419 q 741 141 804 215 q 594 25 678 67 q 419 -17 511 -17 m 531 757 q 436 727 482 757 q 354 647 390 697 q 296 527 318 596 q 274 379 274 458 q 314 209 274 271 q 429 147 354 147 q 524 177 478 147 q 606 258 569 207 q 663 378 642 310 q 685 526 685 447 q 645 696 685 635 q 531 757 606 757 m 914 1067 l 806 1067 l 719 1232 l 864 1232 l 914 1067 m 531 1131 l 694 1131 l 790 975 l 656 975 l 600 1051 l 594 1051 l 510 975 l 375 975 l 531 1131 z "},"Ổ":{"ha":917,"x_min":79,"x_max":953,"o":"m 419 -17 q 279 9 342 -17 q 172 84 217 35 q 103 205 128 133 q 79 367 79 276 q 117 588 79 486 q 217 765 154 690 q 364 881 281 839 q 539 922 447 922 q 679 896 617 922 q 786 820 742 869 q 855 700 831 771 q 879 539 879 629 q 842 317 879 419 q 741 141 804 215 q 594 25 678 67 q 419 -17 511 -17 m 531 757 q 436 727 482 757 q 354 647 390 697 q 296 527 318 596 q 274 379 274 458 q 314 209 274 271 q 429 147 354 147 q 524 177 478 147 q 606 258 569 207 q 663 378 642 310 q 685 526 685 447 q 645 696 685 635 q 531 757 606 757 m 531 1131 l 694 1131 l 790 975 l 656 975 l 600 1051 l 594 1051 l 510 975 l 375 975 l 531 1131 m 782 1269 q 917 1241 881 1267 q 953 1176 953 1215 q 905 1079 953 1110 q 779 1040 857 1049 l 775 1103 q 816 1119 801 1110 q 831 1153 831 1129 q 813 1178 831 1168 q 749 1192 796 1188 l 782 1269 z "},"Ỗ":{"ha":917,"x_min":79,"x_max":879,"o":"m 419 -17 q 279 9 342 -17 q 172 84 217 35 q 103 205 128 133 q 79 367 79 276 q 117 588 79 486 q 217 765 154 690 q 364 881 281 839 q 539 922 447 922 q 679 896 617 922 q 786 820 742 869 q 855 700 831 771 q 879 539 879 629 q 842 317 879 419 q 741 141 804 215 q 594 25 678 67 q 419 -17 511 -17 m 531 757 q 436 727 482 757 q 354 647 390 697 q 296 527 318 596 q 274 379 274 458 q 314 209 274 271 q 429 147 354 147 q 524 177 478 147 q 606 258 569 207 q 663 378 642 310 q 685 526 685 447 q 645 696 685 635 q 531 757 606 757 m 531 1131 l 694 1131 l 790 975 l 656 975 l 600 1051 l 594 1051 l 510 975 l 375 975 l 531 1131 m 421 1181 q 486 1297 444 1258 q 572 1335 528 1335 q 613 1326 594 1335 q 647 1306 632 1317 q 676 1287 663 1296 q 706 1278 690 1278 q 767 1335 742 1278 l 850 1335 q 784 1218 826 1256 q 699 1181 742 1181 q 657 1189 675 1181 q 624 1208 639 1197 q 594 1226 608 1218 q 567 1235 581 1235 q 507 1181 528 1235 l 421 1181 z "},"Ộ":{"ha":917,"x_min":79,"x_max":879,"o":"m 419 -17 q 279 9 342 -17 q 172 84 217 35 q 103 205 128 133 q 79 367 79 276 q 117 588 79 486 q 217 765 154 690 q 364 881 281 839 q 539 922 447 922 q 679 896 617 922 q 786 820 742 869 q 855 700 831 771 q 879 539 879 629 q 842 317 879 419 q 741 141 804 215 q 594 25 678 67 q 419 -17 511 -17 m 531 757 q 436 727 482 757 q 354 647 390 697 q 296 527 318 596 q 274 379 274 458 q 314 209 274 271 q 429 147 354 147 q 524 177 478 147 q 606 258 569 207 q 663 378 642 310 q 685 526 685 447 q 645 696 685 635 q 531 757 606 757 m 515 1139 l 699 1139 l 794 975 l 656 975 l 597 1063 l 594 1063 l 506 975 l 354 975 l 515 1139 m 358 -308 q 288 -285 319 -308 q 256 -217 256 -262 q 265 -174 256 -194 q 290 -137 274 -153 q 327 -113 306 -122 q 374 -104 349 -104 q 445 -128 414 -104 q 476 -196 476 -151 q 442 -276 476 -244 q 358 -308 408 -308 z "},"Ø":{"ha":917,"x_min":-14,"x_max":988,"o":"m 319 200 q 429 147 361 147 q 524 177 478 147 q 606 258 569 207 q 663 378 642 310 q 685 526 685 447 q 684 552 685 540 q 682 576 683 564 l 319 200 m 643 700 q 531 757 601 757 q 436 727 482 757 q 354 647 390 697 q 296 527 318 596 q 274 379 274 458 q 274 350 274 364 q 276 322 275 336 l 643 700 m 840 739 q 879 539 879 653 q 842 317 879 419 q 741 141 804 215 q 594 25 678 67 q 419 -17 511 -17 q 190 67 278 -17 l 72 -56 l -14 22 l 121 161 q 90 255 101 204 q 79 367 79 306 q 117 588 79 486 q 217 765 154 690 q 364 881 281 839 q 539 922 447 922 q 774 835 683 922 l 904 969 l 988 892 l 840 739 z "},"Œ":{"ha":1157,"x_min":79,"x_max":1183,"o":"m 79 356 q 116 592 79 489 q 219 765 153 694 q 378 870 286 835 q 578 906 469 906 l 1183 906 l 1151 746 l 821 746 l 782 549 l 1061 549 l 1029 389 l 751 389 l 704 160 l 1047 160 l 1015 0 l 479 0 q 184 88 289 0 q 79 356 79 175 m 582 753 q 460 730 517 753 q 363 660 404 707 q 297 540 321 613 q 274 368 274 467 q 331 204 274 256 q 485 153 389 153 l 514 153 l 633 753 l 582 753 z "},"Ơ":{"ha":917,"x_min":79,"x_max":971,"o":"m 429 147 q 524 177 478 147 q 606 258 569 207 q 663 378 642 310 q 685 526 685 447 q 645 696 685 635 q 531 757 606 757 q 436 727 482 757 q 354 647 390 697 q 296 527 318 596 q 274 379 274 458 q 314 209 274 271 q 429 147 354 147 m 953 1075 q 971 992 971 1035 q 924 878 971 925 q 793 814 878 831 q 857 696 835 765 q 879 539 879 626 q 842 317 879 419 q 741 141 804 215 q 594 25 678 67 q 419 -17 511 -17 q 279 9 342 -17 q 172 84 217 35 q 103 205 128 133 q 79 367 79 276 q 117 588 79 486 q 217 765 154 690 q 364 881 281 839 q 539 922 447 922 q 710 882 636 922 q 792 917 764 889 q 821 981 821 944 q 811 1032 821 1007 l 953 1075 z "},"Ớ":{"ha":917,"x_min":79,"x_max":971,"o":"m 429 147 q 524 177 478 147 q 606 258 569 207 q 663 378 642 310 q 685 526 685 447 q 645 696 685 635 q 531 757 606 757 q 436 727 482 757 q 354 647 390 697 q 296 527 318 596 q 274 379 274 458 q 314 209 274 271 q 429 147 354 147 m 953 1075 q 971 992 971 1035 q 924 878 971 925 q 793 814 878 831 q 857 696 835 765 q 879 539 879 626 q 842 317 879 419 q 741 141 804 215 q 594 25 678 67 q 419 -17 511 -17 q 279 9 342 -17 q 172 84 217 35 q 103 205 128 133 q 79 367 79 276 q 117 588 79 486 q 217 765 154 690 q 364 881 281 839 q 539 922 447 922 q 710 882 636 922 q 792 917 764 889 q 821 981 821 944 q 811 1032 821 1007 l 953 1075 m 590 1139 l 796 1139 l 604 975 l 449 975 l 590 1139 z "},"Ờ":{"ha":917,"x_min":79,"x_max":971,"o":"m 429 147 q 524 177 478 147 q 606 258 569 207 q 663 378 642 310 q 685 526 685 447 q 645 696 685 635 q 531 757 606 757 q 436 727 482 757 q 354 647 390 697 q 296 527 318 596 q 274 379 274 458 q 314 209 274 271 q 429 147 354 147 m 953 1075 q 971 992 971 1035 q 924 878 971 925 q 793 814 878 831 q 857 696 835 765 q 879 539 879 626 q 842 317 879 419 q 741 141 804 215 q 594 25 678 67 q 419 -17 511 -17 q 279 9 342 -17 q 172 84 217 35 q 103 205 128 133 q 79 367 79 276 q 117 588 79 486 q 217 765 154 690 q 364 881 281 839 q 539 922 447 922 q 710 882 636 922 q 792 917 764 889 q 821 981 821 944 q 811 1032 821 1007 l 953 1075 m 369 1139 l 564 1139 l 642 975 l 499 975 l 369 1139 z "},"Ở":{"ha":917,"x_min":79,"x_max":971,"o":"m 429 147 q 524 177 478 147 q 606 258 569 207 q 663 378 642 310 q 685 526 685 447 q 645 696 685 635 q 531 757 606 757 q 436 727 482 757 q 354 647 390 697 q 296 527 318 596 q 274 379 274 458 q 314 209 274 271 q 429 147 354 147 m 953 1075 q 971 992 971 1035 q 924 878 971 925 q 793 814 878 831 q 857 696 835 765 q 879 539 879 626 q 842 317 879 419 q 741 141 804 215 q 594 25 678 67 q 419 -17 511 -17 q 279 9 342 -17 q 172 84 217 35 q 103 205 128 133 q 79 367 79 276 q 117 588 79 486 q 217 765 154 690 q 364 881 281 839 q 539 922 447 922 q 710 882 636 922 q 792 917 764 889 q 821 981 821 944 q 811 1032 821 1007 l 953 1075 m 511 1226 q 666 1192 621 1222 q 711 1119 711 1163 q 694 1053 711 1082 q 649 1006 678 1025 q 583 975 621 986 q 501 958 544 964 l 494 1035 q 547 1052 526 1042 q 567 1086 567 1063 q 546 1116 567 1106 q 471 1129 525 1126 l 511 1226 z "},"Ỡ":{"ha":917,"x_min":79,"x_max":971,"o":"m 429 147 q 524 177 478 147 q 606 258 569 207 q 663 378 642 310 q 685 526 685 447 q 645 696 685 635 q 531 757 606 757 q 436 727 482 757 q 354 647 390 697 q 296 527 318 596 q 274 379 274 458 q 314 209 274 271 q 429 147 354 147 m 953 1075 q 971 992 971 1035 q 924 878 971 925 q 793 814 878 831 q 857 696 835 765 q 879 539 879 626 q 842 317 879 419 q 741 141 804 215 q 594 25 678 67 q 419 -17 511 -17 q 279 9 342 -17 q 172 84 217 35 q 103 205 128 133 q 79 367 79 276 q 117 588 79 486 q 217 765 154 690 q 364 881 281 839 q 539 922 447 922 q 710 882 636 922 q 792 917 764 889 q 821 981 821 944 q 811 1032 821 1007 l 953 1075 m 326 976 q 397 1110 350 1064 q 493 1157 443 1157 q 544 1147 524 1157 q 582 1124 565 1136 q 615 1102 599 1113 q 651 1092 631 1092 q 710 1154 685 1092 l 810 1154 q 739 1020 786 1067 q 642 974 692 974 q 590 984 611 974 q 553 1006 569 994 q 521 1028 536 1018 q 485 1039 506 1039 q 425 976 451 1039 l 326 976 z "},"Ợ":{"ha":917,"x_min":79,"x_max":971,"o":"m 429 147 q 524 177 478 147 q 606 258 569 207 q 663 378 642 310 q 685 526 685 447 q 645 696 685 635 q 531 757 606 757 q 436 727 482 757 q 354 647 390 697 q 296 527 318 596 q 274 379 274 458 q 314 209 274 271 q 429 147 354 147 m 953 1075 q 971 992 971 1035 q 924 878 971 925 q 793 814 878 831 q 857 696 835 765 q 879 539 879 626 q 842 317 879 419 q 741 141 804 215 q 594 25 678 67 q 419 -17 511 -17 q 279 9 342 -17 q 172 84 217 35 q 103 205 128 133 q 79 367 79 276 q 117 588 79 486 q 217 765 154 690 q 364 881 281 839 q 539 922 447 922 q 710 882 636 922 q 792 917 764 889 q 821 981 821 944 q 811 1032 821 1007 l 953 1075 m 356 -308 q 285 -285 317 -308 q 253 -217 253 -262 q 262 -174 253 -194 q 287 -137 271 -153 q 324 -113 303 -122 q 371 -104 346 -104 q 442 -128 411 -104 q 474 -196 474 -151 q 440 -276 474 -244 q 356 -308 406 -308 z "},"Ǫ":{"ha":917,"x_min":79,"x_max":879,"o":"m 531 757 q 436 727 482 757 q 354 647 390 697 q 296 527 318 596 q 274 379 274 458 q 314 209 274 271 q 429 147 354 147 q 524 177 478 147 q 606 258 569 207 q 663 378 642 310 q 685 526 685 447 q 645 696 685 635 q 531 757 606 757 m 879 539 q 789 208 879 349 q 524 -6 699 68 q 423 -72 453 -35 q 393 -140 393 -108 q 408 -174 393 -162 q 442 -185 422 -185 q 459 -182 450 -185 q 479 -172 468 -179 l 515 -265 q 446 -297 486 -285 q 372 -308 406 -308 q 278 -281 314 -308 q 243 -201 243 -253 q 255 -142 243 -171 q 285 -88 267 -112 q 324 -44 303 -64 q 363 -12 344 -25 q 154 105 229 7 q 79 367 79 203 q 117 588 79 486 q 217 765 154 690 q 364 881 281 839 q 539 922 447 922 q 679 896 617 922 q 786 820 742 869 q 855 700 831 771 q 879 539 879 629 z "},"Ŕ":{"ha":828,"x_min":39,"x_max":814,"o":"m 422 483 q 575 527 524 483 q 626 646 626 571 q 588 729 626 704 q 475 754 549 754 l 379 754 l 326 483 l 422 483 m 504 906 q 628 893 571 906 q 726 853 685 881 q 790 781 767 825 q 814 674 814 736 q 797 559 814 610 q 749 469 779 508 q 676 403 718 431 q 583 358 633 375 l 724 0 l 524 0 l 407 332 l 296 332 l 231 0 l 39 0 l 221 906 l 504 906 m 565 1139 l 771 1139 l 579 975 l 424 975 l 565 1139 z "},"Ř":{"ha":828,"x_min":39,"x_max":814,"o":"m 422 483 q 575 527 524 483 q 626 646 626 571 q 588 729 626 704 q 475 754 549 754 l 379 754 l 326 483 l 422 483 m 504 906 q 628 893 571 906 q 726 853 685 881 q 790 781 767 825 q 814 674 814 736 q 797 559 814 610 q 749 469 779 508 q 676 403 718 431 q 583 358 633 375 l 724 0 l 524 0 l 407 332 l 296 332 l 231 0 l 39 0 l 221 906 l 504 906 m 617 975 l 433 975 l 338 1139 l 476 1139 l 535 1051 l 538 1051 l 626 1139 l 778 1139 l 617 975 z "},"Ŗ":{"ha":828,"x_min":39,"x_max":814,"o":"m 422 483 q 575 527 524 483 q 626 646 626 571 q 588 729 626 704 q 475 754 549 754 l 379 754 l 326 483 l 422 483 m 504 906 q 628 893 571 906 q 726 853 685 881 q 790 781 767 825 q 814 674 814 736 q 797 559 814 610 q 749 469 779 508 q 676 403 718 431 q 583 358 633 375 l 724 0 l 524 0 l 407 332 l 296 332 l 231 0 l 39 0 l 221 906 l 504 906 m 340 -64 q 440 -100 404 -75 q 475 -169 475 -125 q 455 -239 475 -211 q 400 -283 435 -267 q 320 -306 365 -299 q 224 -317 275 -314 l 218 -240 q 311 -221 282 -235 q 340 -178 340 -207 q 292 -132 340 -147 l 340 -64 z "},"Ṛ":{"ha":828,"x_min":39,"x_max":814,"o":"m 422 483 q 575 527 524 483 q 626 646 626 571 q 588 729 626 704 q 475 754 549 754 l 379 754 l 326 483 l 422 483 m 504 906 q 628 893 571 906 q 726 853 685 881 q 790 781 767 825 q 814 674 814 736 q 797 559 814 610 q 749 469 779 508 q 676 403 718 431 q 583 358 633 375 l 724 0 l 524 0 l 407 332 l 296 332 l 231 0 l 39 0 l 221 906 l 504 906 m 344 -319 q 274 -297 306 -319 q 242 -228 242 -274 q 251 -185 242 -206 q 276 -149 260 -164 q 313 -124 292 -133 q 360 -115 335 -115 q 431 -139 400 -115 q 463 -207 463 -162 q 428 -287 463 -256 q 344 -319 394 -319 z "},"Ṝ":{"ha":828,"x_min":39,"x_max":814,"o":"m 422 483 q 575 527 524 483 q 626 646 626 571 q 588 729 626 704 q 475 754 549 754 l 379 754 l 326 483 l 422 483 m 504 906 q 628 893 571 906 q 726 853 685 881 q 790 781 767 825 q 814 674 814 736 q 797 559 814 610 q 749 469 779 508 q 676 403 718 431 q 583 358 633 375 l 724 0 l 524 0 l 407 332 l 296 332 l 231 0 l 39 0 l 221 906 l 504 906 m 369 1122 l 740 1122 l 717 1000 l 344 1000 l 369 1122 m 344 -319 q 274 -297 306 -319 q 242 -228 242 -274 q 251 -185 242 -206 q 276 -149 260 -164 q 313 -124 292 -133 q 360 -115 335 -115 q 431 -139 400 -115 q 463 -207 463 -162 q 428 -287 463 -256 q 344 -319 394 -319 z "},"Ṟ":{"ha":828,"x_min":39,"x_max":814,"o":"m 422 483 q 575 527 524 483 q 626 646 626 571 q 588 729 626 704 q 475 754 549 754 l 379 754 l 326 483 l 422 483 m 504 906 q 628 893 571 906 q 726 853 685 881 q 790 781 767 825 q 814 674 814 736 q 797 559 814 610 q 749 469 779 508 q 676 403 718 431 q 583 358 633 375 l 724 0 l 524 0 l 407 332 l 296 332 l 231 0 l 39 0 l 221 906 l 504 906 m 183 -136 l 549 -136 l 525 -257 l 160 -257 l 183 -136 z "},"Ś":{"ha":735,"x_min":7,"x_max":742,"o":"m 143 260 q 233 176 179 207 q 344 146 286 146 q 439 174 403 146 q 475 250 475 201 q 447 309 475 286 q 369 363 418 332 l 283 415 q 185 506 221 454 q 149 642 149 558 q 174 751 149 700 q 241 840 199 801 q 342 900 283 878 q 467 922 400 922 q 618 885 547 922 q 742 785 689 847 l 621 672 q 547 733 586 708 q 458 757 508 757 q 373 728 403 757 q 343 660 343 700 q 374 603 343 625 q 457 547 404 581 l 546 493 q 642 405 613 453 q 672 278 672 357 q 648 162 672 215 q 579 69 624 108 q 472 6 535 29 q 331 -17 408 -17 q 158 22 242 -17 q 7 153 74 61 l 143 260 m 535 1147 l 740 1147 l 549 983 l 393 983 l 535 1147 z "},"Ŝ":{"ha":735,"x_min":7,"x_max":742,"o":"m 143 260 q 233 176 179 207 q 344 146 286 146 q 439 174 403 146 q 475 250 475 201 q 447 309 475 286 q 369 363 418 332 l 283 415 q 185 506 221 454 q 149 642 149 558 q 174 751 149 700 q 241 840 199 801 q 342 900 283 878 q 467 922 400 922 q 618 885 547 922 q 742 785 689 847 l 621 672 q 547 733 586 708 q 458 757 508 757 q 373 728 403 757 q 343 660 343 700 q 374 603 343 625 q 457 547 404 581 l 546 493 q 642 405 613 453 q 672 278 672 357 q 648 162 672 215 q 579 69 624 108 q 472 6 535 29 q 331 -17 408 -17 q 158 22 242 -17 q 7 153 74 61 l 143 260 m 435 1147 l 618 1147 l 714 983 l 575 983 l 517 1071 l 514 1071 l 425 983 l 274 983 l 435 1147 z "},"Š":{"ha":735,"x_min":7,"x_max":747,"o":"m 143 260 q 233 176 179 207 q 344 146 286 146 q 439 174 403 146 q 475 250 475 201 q 447 309 475 286 q 369 363 418 332 l 283 415 q 185 506 221 454 q 149 642 149 558 q 174 751 149 700 q 241 840 199 801 q 342 900 283 878 q 467 922 400 922 q 618 885 547 922 q 742 785 689 847 l 621 672 q 547 733 586 708 q 458 757 508 757 q 373 728 403 757 q 343 660 343 700 q 374 603 343 625 q 457 547 404 581 l 546 493 q 642 405 613 453 q 672 278 672 357 q 648 162 672 215 q 579 69 624 108 q 472 6 535 29 q 331 -17 408 -17 q 158 22 242 -17 q 7 153 74 61 l 143 260 m 586 983 l 403 983 l 307 1147 l 446 1147 l 504 1060 l 507 1060 l 596 1147 l 747 1147 l 586 983 z "},"Ş":{"ha":735,"x_min":7,"x_max":742,"o":"m 143 260 q 233 176 179 207 q 344 146 286 146 q 439 174 403 146 q 475 250 475 201 q 447 309 475 286 q 369 363 418 332 l 283 415 q 185 506 221 454 q 149 642 149 558 q 174 751 149 700 q 241 840 199 801 q 342 900 283 878 q 467 922 400 922 q 618 885 547 922 q 742 785 689 847 l 621 672 q 547 733 586 708 q 458 757 508 757 q 373 728 403 757 q 343 660 343 700 q 374 603 343 625 q 457 547 404 581 l 546 493 q 642 405 613 453 q 672 278 672 357 q 648 162 672 215 q 579 69 624 108 q 472 6 535 29 q 331 -17 408 -17 q 158 22 242 -17 q 7 153 74 61 l 143 260 m 290 6 l 401 6 l 360 -62 q 403 -92 386 -74 q 421 -144 421 -111 q 399 -214 421 -185 q 342 -262 378 -243 q 258 -292 306 -282 q 160 -306 211 -303 l 154 -229 q 243 -207 207 -224 q 279 -160 279 -190 q 266 -130 279 -143 q 215 -106 253 -117 l 290 6 z "},"Ș":{"ha":735,"x_min":7,"x_max":742,"o":"m 143 260 q 233 176 179 207 q 344 146 286 146 q 439 174 403 146 q 475 250 475 201 q 447 309 475 286 q 369 363 418 332 l 283 415 q 185 506 221 454 q 149 642 149 558 q 174 751 149 700 q 241 840 199 801 q 342 900 283 878 q 467 922 400 922 q 618 885 547 922 q 742 785 689 847 l 621 672 q 547 733 586 708 q 458 757 508 757 q 373 728 403 757 q 343 660 343 700 q 374 603 343 625 q 457 547 404 581 l 546 493 q 642 405 613 453 q 672 278 672 357 q 648 162 672 215 q 579 69 624 108 q 472 6 535 29 q 331 -17 408 -17 q 158 22 242 -17 q 7 153 74 61 l 143 260 m 282 -64 q 381 -100 346 -75 q 417 -169 417 -125 q 397 -239 417 -211 q 342 -283 376 -267 q 262 -306 307 -299 q 165 -317 217 -314 l 160 -240 q 253 -221 224 -235 q 282 -178 282 -207 q 233 -132 282 -147 l 282 -64 z "},"Ṡ":{"ha":735,"x_min":7,"x_max":742,"o":"m 143 260 q 233 176 179 207 q 344 146 286 146 q 439 174 403 146 q 475 250 475 201 q 447 309 475 286 q 369 363 418 332 l 283 415 q 185 506 221 454 q 149 642 149 558 q 174 751 149 700 q 241 840 199 801 q 342 900 283 878 q 467 922 400 922 q 618 885 547 922 q 742 785 689 847 l 621 672 q 547 733 586 708 q 458 757 508 757 q 373 728 403 757 q 343 660 343 700 q 374 603 343 625 q 457 547 404 581 l 546 493 q 642 405 613 453 q 672 278 672 357 q 648 162 672 215 q 579 69 624 108 q 472 6 535 29 q 331 -17 408 -17 q 158 22 242 -17 q 7 153 74 61 l 143 260 m 507 985 q 436 1008 468 985 q 404 1076 404 1031 q 413 1119 404 1099 q 438 1156 422 1140 q 476 1180 454 1171 q 522 1189 497 1189 q 594 1165 563 1189 q 625 1097 625 1142 q 591 1017 625 1049 q 507 985 557 985 z "},"Ṣ":{"ha":735,"x_min":7,"x_max":742,"o":"m 143 260 q 233 176 179 207 q 344 146 286 146 q 439 174 403 146 q 475 250 475 201 q 447 309 475 286 q 369 363 418 332 l 283 415 q 185 506 221 454 q 149 642 149 558 q 174 751 149 700 q 241 840 199 801 q 342 900 283 878 q 467 922 400 922 q 618 885 547 922 q 742 785 689 847 l 621 672 q 547 733 586 708 q 458 757 508 757 q 373 728 403 757 q 343 660 343 700 q 374 603 343 625 q 457 547 404 581 l 546 493 q 642 405 613 453 q 672 278 672 357 q 648 162 672 215 q 579 69 624 108 q 472 6 535 29 q 331 -17 408 -17 q 158 22 242 -17 q 7 153 74 61 l 143 260 m 286 -319 q 215 -297 247 -319 q 183 -228 183 -274 q 192 -185 183 -206 q 217 -149 201 -164 q 255 -124 233 -133 q 301 -115 276 -115 q 373 -139 342 -115 q 404 -207 404 -162 q 370 -287 404 -256 q 286 -319 336 -319 z "},"ẞ":{"ha":932,"x_min":39,"x_max":876,"o":"m 160 597 q 203 728 174 667 q 280 835 232 789 q 395 907 328 881 q 551 933 463 933 q 671 917 614 933 q 772 867 728 901 q 843 781 815 833 q 876 657 871 729 l 690 492 q 822 399 771 456 q 874 261 874 342 q 852 152 874 203 q 792 64 831 101 q 701 5 754 26 q 583 -17 647 -17 q 447 9 513 -17 q 332 89 382 35 l 440 207 q 493 158 461 179 q 569 136 525 136 q 645 168 613 136 q 678 250 678 200 q 635 331 678 290 q 496 397 592 371 l 506 508 l 690 679 q 633 755 674 729 q 539 781 593 781 q 413 722 464 781 q 340 560 363 664 l 231 0 l 39 0 l 160 597 z "},"Ť":{"ha":739,"x_min":117,"x_max":814,"o":"m 354 744 l 117 744 l 147 906 l 814 906 l 782 744 l 544 744 l 397 0 l 207 0 l 354 744 m 572 975 l 389 975 l 293 1139 l 432 1139 l 490 1051 l 493 1051 l 582 1139 l 733 1139 l 572 975 z "},"Ţ":{"ha":739,"x_min":117,"x_max":814,"o":"m 354 744 l 117 744 l 147 906 l 814 906 l 782 744 l 544 744 l 397 0 l 207 0 l 354 744 m 253 6 l 364 6 l 322 -62 q 366 -92 349 -74 q 383 -144 383 -111 q 362 -214 383 -185 q 304 -262 340 -243 q 221 -292 268 -282 q 122 -306 174 -303 l 117 -229 q 206 -207 169 -224 q 242 -160 242 -190 q 228 -130 242 -143 q 178 -106 215 -117 l 253 6 z "},"Ț":{"ha":739,"x_min":117,"x_max":814,"o":"m 354 744 l 117 744 l 147 906 l 814 906 l 782 744 l 544 744 l 397 0 l 207 0 l 354 744 m 249 -53 q 348 -89 313 -64 q 383 -158 383 -114 q 363 -228 383 -200 q 308 -272 343 -256 q 228 -295 274 -287 q 132 -306 183 -303 l 126 -229 q 219 -210 190 -224 q 249 -167 249 -196 q 200 -121 249 -136 l 249 -53 z "},"Ṭ":{"ha":739,"x_min":117,"x_max":814,"o":"m 354 744 l 117 744 l 147 906 l 814 906 l 782 744 l 544 744 l 397 0 l 207 0 l 354 744 m 253 -308 q 182 -285 214 -308 q 150 -217 150 -262 q 159 -174 150 -194 q 184 -137 168 -153 q 222 -113 200 -122 q 268 -104 243 -104 q 340 -128 308 -104 q 371 -196 371 -151 q 337 -276 371 -244 q 253 -308 303 -308 z "},"Ṯ":{"ha":739,"x_min":68,"x_max":814,"o":"m 354 744 l 117 744 l 147 906 l 814 906 l 782 744 l 544 744 l 397 0 l 207 0 l 354 744 m 92 -125 l 457 -125 l 433 -246 l 68 -246 l 92 -125 z "},"Ù":{"ha":893,"x_min":104,"x_max":901,"o":"m 215 906 l 406 906 l 307 410 q 299 356 301 382 q 296 304 296 329 q 326 188 296 228 q 433 147 357 147 q 542 201 499 147 q 610 381 585 254 l 715 906 l 901 906 l 796 383 q 663 79 754 175 q 428 -17 572 -17 q 185 60 267 -17 q 104 299 104 138 q 110 369 104 329 q 122 444 115 408 l 215 906 m 383 1139 l 578 1139 l 656 975 l 513 975 l 383 1139 z "},"Ú":{"ha":893,"x_min":104,"x_max":901,"o":"m 215 906 l 406 906 l 307 410 q 299 356 301 382 q 296 304 296 329 q 326 188 296 228 q 433 147 357 147 q 542 201 499 147 q 610 381 585 254 l 715 906 l 901 906 l 796 383 q 663 79 754 175 q 428 -17 572 -17 q 185 60 267 -17 q 104 299 104 138 q 110 369 104 329 q 122 444 115 408 l 215 906 m 604 1139 l 810 1139 l 618 975 l 463 975 l 604 1139 z "},"Û":{"ha":893,"x_min":104,"x_max":901,"o":"m 215 906 l 406 906 l 307 410 q 299 356 301 382 q 296 304 296 329 q 326 188 296 228 q 433 147 357 147 q 542 201 499 147 q 610 381 585 254 l 715 906 l 901 906 l 796 383 q 663 79 754 175 q 428 -17 572 -17 q 185 60 267 -17 q 104 299 104 138 q 110 369 104 329 q 122 444 115 408 l 215 906 m 504 1139 l 688 1139 l 783 975 l 644 975 l 586 1063 l 583 1063 l 494 975 l 343 975 l 504 1139 z "},"Ũ":{"ha":893,"x_min":104,"x_max":901,"o":"m 215 906 l 406 906 l 307 410 q 299 356 301 382 q 296 304 296 329 q 326 188 296 228 q 433 147 357 147 q 542 201 499 147 q 610 381 585 254 l 715 906 l 901 906 l 796 383 q 663 79 754 175 q 428 -17 572 -17 q 185 60 267 -17 q 104 299 104 138 q 110 369 104 329 q 122 444 115 408 l 215 906 m 340 976 q 410 1110 364 1064 q 507 1157 457 1157 q 558 1147 538 1157 q 596 1124 579 1136 q 628 1102 613 1113 q 665 1092 644 1092 q 724 1154 699 1092 l 824 1154 q 753 1020 800 1067 q 656 974 706 974 q 604 984 625 974 q 567 1006 583 994 q 535 1028 550 1018 q 499 1039 519 1039 q 439 976 465 1039 l 340 976 z "},"Ü":{"ha":893,"x_min":104,"x_max":901,"o":"m 215 906 l 406 906 l 307 410 q 299 356 301 382 q 296 304 296 329 q 326 188 296 228 q 433 147 357 147 q 542 201 499 147 q 610 381 585 254 l 715 906 l 901 906 l 796 383 q 663 79 754 175 q 428 -17 572 -17 q 185 60 267 -17 q 104 299 104 138 q 110 369 104 329 q 122 444 115 408 l 215 906 m 440 974 q 383 995 406 974 q 360 1054 360 1017 q 367 1091 360 1072 q 389 1125 375 1110 q 422 1149 403 1140 q 463 1158 440 1158 q 518 1138 494 1158 q 542 1079 542 1117 q 513 1007 542 1040 q 440 974 485 974 m 704 974 q 648 995 671 974 q 625 1054 625 1017 q 633 1091 625 1072 q 653 1125 640 1110 q 685 1149 667 1140 q 726 1158 704 1158 q 782 1138 758 1158 q 806 1079 806 1117 q 777 1007 806 1040 q 704 974 749 974 z "},"Ū":{"ha":893,"x_min":104,"x_max":901,"o":"m 215 906 l 406 906 l 307 410 q 299 356 301 382 q 296 304 296 329 q 326 188 296 228 q 433 147 357 147 q 542 201 499 147 q 610 381 585 254 l 715 906 l 901 906 l 796 383 q 663 79 754 175 q 428 -17 572 -17 q 185 60 267 -17 q 104 299 104 138 q 110 369 104 329 q 122 444 115 408 l 215 906 m 408 1122 l 779 1122 l 756 1000 l 383 1000 l 408 1122 z "},"Ŭ":{"ha":893,"x_min":104,"x_max":901,"o":"m 215 906 l 406 906 l 307 410 q 299 356 301 382 q 296 304 296 329 q 326 188 296 228 q 433 147 357 147 q 542 201 499 147 q 610 381 585 254 l 715 906 l 901 906 l 796 383 q 663 79 754 175 q 428 -17 572 -17 q 185 60 267 -17 q 104 299 104 138 q 110 369 104 329 q 122 444 115 408 l 215 906 m 564 975 q 447 1020 483 975 q 417 1139 410 1065 l 518 1139 q 532 1089 515 1107 q 582 1071 549 1071 q 639 1090 617 1071 q 672 1139 661 1110 l 776 1139 q 703 1020 753 1065 q 564 975 654 975 z "},"Ů":{"ha":893,"x_min":104,"x_max":901,"o":"m 215 906 l 406 906 l 307 410 q 299 356 301 382 q 296 304 296 329 q 326 188 296 228 q 433 147 357 147 q 542 201 499 147 q 610 381 585 254 l 715 906 l 901 906 l 796 383 q 663 79 754 175 q 428 -17 572 -17 q 185 60 267 -17 q 104 299 104 138 q 110 369 104 329 q 122 444 115 408 l 215 906 m 581 967 q 481 995 522 967 q 440 1086 440 1024 q 453 1144 440 1117 q 487 1193 465 1172 q 537 1226 508 1214 q 599 1239 565 1239 q 651 1231 626 1239 q 696 1209 676 1224 q 727 1172 715 1194 q 739 1119 739 1150 q 726 1060 739 1088 q 692 1011 714 1032 q 642 978 671 990 q 581 967 613 967 m 596 1164 q 550 1142 568 1164 q 532 1093 532 1121 q 546 1056 532 1071 q 583 1042 560 1042 q 627 1063 608 1042 q 646 1113 646 1083 q 633 1149 646 1135 q 596 1164 619 1164 z "},"Ű":{"ha":893,"x_min":104,"x_max":901,"o":"m 215 906 l 406 906 l 307 410 q 299 356 301 382 q 296 304 296 329 q 326 188 296 228 q 433 147 357 147 q 542 201 499 147 q 610 381 585 254 l 715 906 l 901 906 l 796 383 q 663 79 754 175 q 428 -17 572 -17 q 185 60 267 -17 q 104 299 104 138 q 110 369 104 329 q 122 444 115 408 l 215 906 m 503 1140 l 665 1140 l 513 975 l 385 975 l 503 1140 m 739 1140 l 901 1140 l 749 975 l 621 975 l 739 1140 z "},"Ǔ":{"ha":893,"x_min":104,"x_max":901,"o":"m 215 906 l 406 906 l 307 410 q 299 356 301 382 q 296 304 296 329 q 326 188 296 228 q 433 147 357 147 q 542 201 499 147 q 610 381 585 254 l 715 906 l 901 906 l 796 383 q 663 79 754 175 q 428 -17 572 -17 q 185 60 267 -17 q 104 299 104 138 q 110 369 104 329 q 122 444 115 408 l 215 906 m 656 975 l 472 975 l 376 1139 l 515 1139 l 574 1051 l 576 1051 l 665 1139 l 817 1139 l 656 975 z "},"Ǖ":{"ha":893,"x_min":104,"x_max":901,"o":"m 215 906 l 406 906 l 307 410 q 299 356 301 382 q 296 304 296 329 q 326 188 296 228 q 433 147 357 147 q 542 201 499 147 q 610 381 585 254 l 715 906 l 901 906 l 796 383 q 663 79 754 175 q 428 -17 572 -17 q 185 60 267 -17 q 104 299 104 138 q 110 369 104 329 q 122 444 115 408 l 215 906 m 450 974 q 399 993 419 974 q 379 1044 379 1013 q 405 1109 379 1079 q 471 1139 431 1139 q 521 1119 501 1139 q 540 1068 540 1100 q 515 1003 540 1033 q 450 974 490 974 m 707 974 q 658 993 678 974 q 638 1044 638 1013 q 663 1109 638 1079 q 728 1139 688 1139 q 778 1119 758 1139 q 799 1068 799 1100 q 773 1003 799 1033 q 707 974 747 974 m 449 1297 l 822 1297 l 803 1206 l 431 1206 l 449 1297 z "},"Ǘ":{"ha":893,"x_min":104,"x_max":901,"o":"m 215 906 l 406 906 l 307 410 q 299 356 301 382 q 296 304 296 329 q 326 188 296 228 q 433 147 357 147 q 542 201 499 147 q 610 381 585 254 l 715 906 l 901 906 l 796 383 q 663 79 754 175 q 428 -17 572 -17 q 185 60 267 -17 q 104 299 104 138 q 110 369 104 329 q 122 444 115 408 l 215 906 m 656 1346 l 857 1346 l 665 1182 l 514 1182 l 656 1346 m 449 974 q 398 993 418 974 q 378 1044 378 1013 q 403 1109 378 1079 q 469 1139 429 1139 q 520 1119 500 1139 q 540 1068 540 1100 q 515 1003 540 1033 q 449 974 489 974 m 707 974 q 656 993 676 974 q 636 1044 636 1013 q 662 1109 636 1079 q 728 1139 688 1139 q 778 1119 758 1139 q 797 1068 797 1100 q 772 1003 797 1033 q 707 974 747 974 z "},"Ǚ":{"ha":893,"x_min":104,"x_max":901,"o":"m 215 906 l 406 906 l 307 410 q 299 356 301 382 q 296 304 296 329 q 326 188 296 228 q 433 147 357 147 q 542 201 499 147 q 610 381 585 254 l 715 906 l 901 906 l 796 383 q 663 79 754 175 q 428 -17 572 -17 q 185 60 267 -17 q 104 299 104 138 q 110 369 104 329 q 122 444 115 408 l 215 906 m 449 974 q 398 993 418 974 q 378 1044 378 1013 q 403 1109 378 1079 q 469 1139 429 1139 q 520 1119 500 1139 q 540 1068 540 1100 q 515 1003 540 1033 q 449 974 489 974 m 707 974 q 656 993 676 974 q 636 1044 636 1013 q 662 1109 636 1079 q 728 1139 688 1139 q 778 1119 758 1139 q 797 1068 797 1100 q 772 1003 797 1033 q 707 974 747 974 m 422 1346 l 569 1346 l 624 1258 l 628 1258 l 718 1346 l 863 1346 l 703 1182 l 518 1182 l 422 1346 z "},"Ǜ":{"ha":893,"x_min":104,"x_max":901,"o":"m 215 906 l 406 906 l 307 410 q 299 356 301 382 q 296 304 296 329 q 326 188 296 228 q 433 147 357 147 q 542 201 499 147 q 610 381 585 254 l 715 906 l 901 906 l 796 383 q 663 79 754 175 q 428 -17 572 -17 q 185 60 267 -17 q 104 299 104 138 q 110 369 104 329 q 122 444 115 408 l 215 906 m 431 1346 l 632 1346 l 710 1182 l 557 1182 l 431 1346 m 449 974 q 398 993 418 974 q 378 1044 378 1013 q 403 1109 378 1079 q 469 1139 429 1139 q 520 1119 500 1139 q 540 1068 540 1100 q 515 1003 540 1033 q 449 974 489 974 m 707 974 q 656 993 676 974 q 636 1044 636 1013 q 662 1109 636 1079 q 728 1139 688 1139 q 778 1119 758 1139 q 797 1068 797 1100 q 772 1003 797 1033 q 707 974 747 974 z "},"Ụ":{"ha":893,"x_min":104,"x_max":901,"o":"m 215 906 l 406 906 l 307 410 q 299 356 301 382 q 296 304 296 329 q 326 188 296 228 q 433 147 357 147 q 542 201 499 147 q 610 381 585 254 l 715 906 l 901 906 l 796 383 q 663 79 754 175 q 428 -17 572 -17 q 185 60 267 -17 q 104 299 104 138 q 110 369 104 329 q 122 444 115 408 l 215 906 m 343 -308 q 272 -285 304 -308 q 240 -217 240 -262 q 249 -174 240 -194 q 274 -137 258 -153 q 312 -113 290 -122 q 358 -104 333 -104 q 430 -128 399 -104 q 461 -196 461 -151 q 427 -276 461 -244 q 343 -308 393 -308 z "},"Ủ":{"ha":893,"x_min":104,"x_max":901,"o":"m 215 906 l 406 906 l 307 410 q 299 356 301 382 q 296 304 296 329 q 326 188 296 228 q 433 147 357 147 q 542 201 499 147 q 610 381 585 254 l 715 906 l 901 906 l 796 383 q 663 79 754 175 q 428 -17 572 -17 q 185 60 267 -17 q 104 299 104 138 q 110 369 104 329 q 122 444 115 408 l 215 906 m 525 1226 q 680 1192 635 1222 q 725 1119 725 1163 q 708 1053 725 1082 q 663 1006 692 1025 q 597 975 635 986 q 515 958 558 964 l 508 1035 q 560 1052 540 1042 q 581 1086 581 1063 q 560 1116 581 1106 q 485 1129 539 1126 l 525 1226 z "},"Ų":{"ha":893,"x_min":104,"x_max":901,"o":"m 796 383 q 754 228 779 293 q 694 119 729 164 q 614 43 660 74 q 510 -8 568 13 q 405 -72 436 -35 q 374 -140 374 -108 q 388 -174 374 -162 q 422 -185 403 -185 q 440 -182 431 -185 q 460 -172 449 -179 l 496 -265 q 426 -297 467 -285 q 353 -308 386 -308 q 259 -281 294 -308 q 224 -201 224 -253 q 235 -143 224 -172 q 265 -89 247 -114 q 304 -44 283 -64 q 344 -10 325 -24 q 165 85 226 10 q 104 299 104 161 q 110 369 104 329 q 122 444 115 408 l 215 906 l 406 906 l 307 410 q 299 356 301 382 q 296 304 296 329 q 326 188 296 228 q 433 147 357 147 q 542 201 499 147 q 610 381 585 254 l 715 906 l 901 906 l 796 383 z "},"Ư":{"ha":925,"x_min":104,"x_max":1083,"o":"m 1065 1099 q 1080 1057 1076 1078 q 1083 1014 1083 1036 q 1038 902 1083 951 q 886 831 992 853 l 796 383 q 663 79 754 175 q 428 -17 572 -17 q 185 60 267 -17 q 104 299 104 138 q 110 369 104 329 q 122 444 115 408 l 215 906 l 406 906 l 307 410 q 299 356 301 382 q 296 304 296 329 q 326 188 296 228 q 433 147 357 147 q 542 201 499 147 q 610 381 585 254 l 715 906 l 824 906 q 905 940 875 911 q 935 1004 935 968 q 932 1028 935 1015 q 925 1054 929 1042 l 1065 1099 z "},"Ứ":{"ha":925,"x_min":104,"x_max":1083,"o":"m 1065 1099 q 1080 1057 1076 1078 q 1083 1014 1083 1036 q 1038 902 1083 951 q 886 831 992 853 l 796 383 q 663 79 754 175 q 428 -17 572 -17 q 185 60 267 -17 q 104 299 104 138 q 110 369 104 329 q 122 444 115 408 l 215 906 l 406 906 l 307 410 q 299 356 301 382 q 296 304 296 329 q 326 188 296 228 q 433 147 357 147 q 542 201 499 147 q 610 381 585 254 l 715 906 l 824 906 q 905 940 875 911 q 935 1004 935 968 q 932 1028 935 1015 q 925 1054 929 1042 l 1065 1099 m 600 1139 l 806 1139 l 614 975 l 458 975 l 600 1139 z "},"Ừ":{"ha":925,"x_min":104,"x_max":1083,"o":"m 1065 1099 q 1080 1057 1076 1078 q 1083 1014 1083 1036 q 1038 902 1083 951 q 886 831 992 853 l 796 383 q 663 79 754 175 q 428 -17 572 -17 q 185 60 267 -17 q 104 299 104 138 q 110 369 104 329 q 122 444 115 408 l 215 906 l 406 906 l 307 410 q 299 356 301 382 q 296 304 296 329 q 326 188 296 228 q 433 147 357 147 q 542 201 499 147 q 610 381 585 254 l 715 906 l 824 906 q 905 940 875 911 q 935 1004 935 968 q 932 1028 935 1015 q 925 1054 929 1042 l 1065 1099 m 379 1139 l 574 1139 l 651 975 l 508 975 l 379 1139 z "},"Ử":{"ha":925,"x_min":104,"x_max":1083,"o":"m 1065 1099 q 1080 1057 1076 1078 q 1083 1014 1083 1036 q 1038 902 1083 951 q 886 831 992 853 l 796 383 q 663 79 754 175 q 428 -17 572 -17 q 185 60 267 -17 q 104 299 104 138 q 110 369 104 329 q 122 444 115 408 l 215 906 l 406 906 l 307 410 q 299 356 301 382 q 296 304 296 329 q 326 188 296 228 q 433 147 357 147 q 542 201 499 147 q 610 381 585 254 l 715 906 l 824 906 q 905 940 875 911 q 935 1004 935 968 q 932 1028 935 1015 q 925 1054 929 1042 l 1065 1099 m 521 1226 q 676 1192 631 1222 q 721 1119 721 1163 q 704 1053 721 1082 q 659 1006 688 1025 q 592 975 631 986 q 511 958 554 964 l 504 1035 q 556 1052 536 1042 q 576 1086 576 1063 q 556 1116 576 1106 q 481 1129 535 1126 l 521 1226 z "},"Ữ":{"ha":925,"x_min":104,"x_max":1083,"o":"m 1065 1099 q 1080 1057 1076 1078 q 1083 1014 1083 1036 q 1038 902 1083 951 q 886 831 992 853 l 796 383 q 663 79 754 175 q 428 -17 572 -17 q 185 60 267 -17 q 104 299 104 138 q 110 369 104 329 q 122 444 115 408 l 215 906 l 406 906 l 307 410 q 299 356 301 382 q 296 304 296 329 q 326 188 296 228 q 433 147 357 147 q 542 201 499 147 q 610 381 585 254 l 715 906 l 824 906 q 905 940 875 911 q 935 1004 935 968 q 932 1028 935 1015 q 925 1054 929 1042 l 1065 1099 m 336 976 q 406 1110 360 1064 q 503 1157 453 1157 q 554 1147 533 1157 q 592 1124 575 1136 q 624 1102 608 1113 q 661 1092 640 1092 q 719 1154 694 1092 l 819 1154 q 749 1020 796 1067 q 651 974 701 974 q 600 984 621 974 q 563 1006 579 994 q 531 1028 546 1018 q 494 1039 515 1039 q 435 976 461 1039 l 336 976 z "},"Ự":{"ha":925,"x_min":104,"x_max":1083,"o":"m 1065 1099 q 1080 1057 1076 1078 q 1083 1014 1083 1036 q 1038 902 1083 951 q 886 831 992 853 l 796 383 q 663 79 754 175 q 428 -17 572 -17 q 185 60 267 -17 q 104 299 104 138 q 110 369 104 329 q 122 444 115 408 l 215 906 l 406 906 l 307 410 q 299 356 301 382 q 296 304 296 329 q 326 188 296 228 q 433 147 357 147 q 542 201 499 147 q 610 381 585 254 l 715 906 l 824 906 q 905 940 875 911 q 935 1004 935 968 q 932 1028 935 1015 q 925 1054 929 1042 l 1065 1099 m 346 -308 q 275 -285 307 -308 q 243 -217 243 -262 q 252 -174 243 -194 q 277 -137 261 -153 q 315 -113 293 -122 q 361 -104 336 -104 q 433 -128 401 -104 q 464 -196 464 -151 q 430 -276 464 -244 q 346 -308 396 -308 z "},"Ẁ":{"ha":1103,"x_min":107,"x_max":1182,"o":"m 139 906 l 333 906 l 304 471 q 291 326 297 399 q 276 181 285 253 l 282 181 q 341 326 310 253 q 400 471 372 400 l 586 906 l 747 906 l 750 471 q 746 327 749 400 q 740 181 743 254 l 746 181 q 797 327 771 254 q 847 471 824 400 l 1000 906 l 1182 906 l 831 0 l 590 0 l 596 433 q 599 535 596 478 q 608 644 603 592 l 603 644 q 562 540 583 593 q 521 433 540 486 l 343 0 l 107 0 l 139 906 m 481 1139 l 675 1139 l 753 975 l 610 975 l 481 1139 z "},"Ẃ":{"ha":1103,"x_min":107,"x_max":1182,"o":"m 139 906 l 333 906 l 304 471 q 291 326 297 399 q 276 181 285 253 l 282 181 q 341 326 310 253 q 400 471 372 400 l 586 906 l 747 906 l 750 471 q 746 327 749 400 q 740 181 743 254 l 746 181 q 797 327 771 254 q 847 471 824 400 l 1000 906 l 1182 906 l 831 0 l 590 0 l 596 433 q 599 535 596 478 q 608 644 603 592 l 603 644 q 562 540 583 593 q 521 433 540 486 l 343 0 l 107 0 l 139 906 m 701 1139 l 907 1139 l 715 975 l 560 975 l 701 1139 z "},"Ŵ":{"ha":1103,"x_min":107,"x_max":1182,"o":"m 139 906 l 333 906 l 304 471 q 291 326 297 399 q 276 181 285 253 l 282 181 q 341 326 310 253 q 400 471 372 400 l 586 906 l 747 906 l 750 471 q 746 327 749 400 q 740 181 743 254 l 746 181 q 797 327 771 254 q 847 471 824 400 l 1000 906 l 1182 906 l 831 0 l 590 0 l 596 433 q 599 535 596 478 q 608 644 603 592 l 603 644 q 562 540 583 593 q 521 433 540 486 l 343 0 l 107 0 l 139 906 m 601 1139 l 785 1139 l 881 975 l 742 975 l 683 1063 l 681 1063 l 592 975 l 440 975 l 601 1139 z "},"Ẅ":{"ha":1103,"x_min":107,"x_max":1182,"o":"m 139 906 l 333 906 l 304 471 q 291 326 297 399 q 276 181 285 253 l 282 181 q 341 326 310 253 q 400 471 372 400 l 586 906 l 747 906 l 750 471 q 746 327 749 400 q 740 181 743 254 l 746 181 q 797 327 771 254 q 847 471 824 400 l 1000 906 l 1182 906 l 831 0 l 590 0 l 596 433 q 599 535 596 478 q 608 644 603 592 l 603 644 q 562 540 583 593 q 521 433 540 486 l 343 0 l 107 0 l 139 906 m 538 974 q 480 995 503 974 q 457 1054 457 1017 q 465 1091 457 1072 q 486 1125 472 1110 q 519 1149 500 1140 q 560 1158 538 1158 q 615 1138 592 1158 q 639 1079 639 1117 q 610 1007 639 1040 q 538 974 582 974 m 801 974 q 745 995 768 974 q 722 1054 722 1017 q 730 1091 722 1072 q 751 1125 738 1110 q 783 1149 764 1140 q 824 1158 801 1158 q 879 1138 856 1158 q 903 1079 903 1117 q 874 1007 903 1040 q 801 974 846 974 z "},"Ỳ":{"ha":707,"x_min":111,"x_max":829,"o":"m 256 328 l 111 906 l 308 906 l 347 688 q 365 589 357 636 q 382 489 372 542 l 388 489 q 442 590 415 542 q 499 690 468 638 l 625 906 l 829 906 l 446 328 l 381 0 l 192 0 l 256 328 m 278 1139 l 472 1139 l 550 975 l 407 975 l 278 1139 z "},"Ý":{"ha":707,"x_min":111,"x_max":829,"o":"m 256 328 l 111 906 l 308 906 l 347 688 q 365 589 357 636 q 382 489 372 542 l 388 489 q 442 590 415 542 q 499 690 468 638 l 625 906 l 829 906 l 446 328 l 381 0 l 192 0 l 256 328 m 499 1139 l 704 1139 l 513 975 l 357 975 l 499 1139 z "},"Ŷ":{"ha":707,"x_min":111,"x_max":829,"o":"m 256 328 l 111 906 l 308 906 l 347 688 q 365 589 357 636 q 382 489 372 542 l 388 489 q 442 590 415 542 q 499 690 468 638 l 625 906 l 829 906 l 446 328 l 381 0 l 192 0 l 256 328 m 399 1139 l 582 1139 l 678 975 l 539 975 l 481 1063 l 478 1063 l 389 975 l 238 975 l 399 1139 z "},"Ÿ":{"ha":707,"x_min":111,"x_max":829,"o":"m 256 328 l 111 906 l 308 906 l 347 688 q 365 589 357 636 q 382 489 372 542 l 388 489 q 442 590 415 542 q 499 690 468 638 l 625 906 l 829 906 l 446 328 l 381 0 l 192 0 l 256 328 m 335 974 q 277 995 300 974 q 254 1054 254 1017 q 262 1091 254 1072 q 283 1125 269 1110 q 316 1149 297 1140 q 357 1158 335 1158 q 413 1138 389 1158 q 436 1079 436 1117 q 408 1007 436 1040 q 335 974 379 974 m 599 974 q 542 995 565 974 q 519 1054 519 1017 q 527 1091 519 1072 q 548 1125 535 1110 q 580 1149 561 1140 q 621 1158 599 1158 q 676 1138 653 1158 q 700 1079 700 1117 q 672 1007 700 1040 q 599 974 643 974 z "},"Ẏ":{"ha":707,"x_min":111,"x_max":829,"o":"m 256 328 l 111 906 l 308 906 l 347 688 q 365 589 357 636 q 382 489 372 542 l 388 489 q 442 590 415 542 q 499 690 468 638 l 625 906 l 829 906 l 446 328 l 381 0 l 192 0 l 256 328 m 471 976 q 400 999 432 976 q 368 1068 368 1022 q 377 1111 368 1090 q 402 1147 386 1132 q 440 1172 418 1163 q 486 1181 461 1181 q 558 1157 526 1181 q 589 1089 589 1133 q 555 1008 589 1040 q 471 976 521 976 z "},"Ỵ":{"ha":707,"x_min":111,"x_max":829,"o":"m 256 328 l 111 906 l 308 906 l 347 688 q 365 589 357 636 q 382 489 372 542 l 388 489 q 442 590 415 542 q 499 690 468 638 l 625 906 l 829 906 l 446 328 l 381 0 l 192 0 l 256 328 m 236 -319 q 165 -297 197 -319 q 133 -228 133 -274 q 142 -185 133 -206 q 167 -149 151 -164 q 205 -124 183 -133 q 251 -115 226 -115 q 323 -139 292 -115 q 354 -207 354 -162 q 320 -287 354 -256 q 236 -319 286 -319 z "},"Ỷ":{"ha":707,"x_min":111,"x_max":829,"o":"m 256 328 l 111 906 l 308 906 l 347 688 q 365 589 357 636 q 382 489 372 542 l 388 489 q 442 590 415 542 q 499 690 468 638 l 625 906 l 829 906 l 446 328 l 381 0 l 192 0 l 256 328 m 419 1226 q 574 1192 529 1222 q 619 1119 619 1163 q 603 1053 619 1082 q 558 1006 586 1025 q 491 975 529 986 q 410 958 453 964 l 403 1035 q 455 1052 435 1042 q 475 1086 475 1063 q 454 1116 475 1106 q 379 1129 433 1126 l 419 1226 z "},"Ỹ":{"ha":707,"x_min":111,"x_max":829,"o":"m 256 328 l 111 906 l 308 906 l 347 688 q 365 589 357 636 q 382 489 372 542 l 388 489 q 442 590 415 542 q 499 690 468 638 l 625 906 l 829 906 l 446 328 l 381 0 l 192 0 l 256 328 m 235 976 q 305 1110 258 1064 q 401 1157 351 1157 q 453 1147 432 1157 q 490 1124 474 1136 q 523 1102 507 1113 q 560 1092 539 1092 q 618 1154 593 1092 l 718 1154 q 647 1020 694 1067 q 550 974 600 974 q 499 984 519 974 q 461 1006 478 994 q 429 1028 444 1018 q 393 1039 414 1039 q 333 976 360 1039 l 235 976 z "},"Ź":{"ha":729,"x_min":-7,"x_max":772,"o":"m 18 114 l 513 746 l 156 746 l 188 906 l 772 906 l 749 790 l 258 160 l 651 160 l 618 0 l -7 0 l 18 114 m 526 1139 l 732 1139 l 540 975 l 385 975 l 526 1139 z "},"Ž":{"ha":729,"x_min":-7,"x_max":772,"o":"m 18 114 l 513 746 l 156 746 l 188 906 l 772 906 l 749 790 l 258 160 l 651 160 l 618 0 l -7 0 l 18 114 m 578 975 l 394 975 l 299 1139 l 438 1139 l 496 1051 l 499 1051 l 588 1139 l 739 1139 l 578 975 z "},"Ż":{"ha":729,"x_min":-7,"x_max":772,"o":"m 18 114 l 513 746 l 156 746 l 188 906 l 772 906 l 749 790 l 258 160 l 651 160 l 618 0 l -7 0 l 18 114 m 499 976 q 428 999 460 976 q 396 1068 396 1022 q 405 1111 396 1090 q 430 1147 414 1132 q 467 1172 446 1163 q 514 1181 489 1181 q 585 1157 554 1181 q 617 1089 617 1133 q 583 1008 617 1040 q 499 976 549 976 z "},"Ẓ":{"ha":729,"x_min":-7,"x_max":772,"o":"m 18 114 l 513 746 l 156 746 l 188 906 l 772 906 l 749 790 l 258 160 l 651 160 l 618 0 l -7 0 l 18 114 m 250 -319 q 179 -297 211 -319 q 147 -228 147 -274 q 156 -185 147 -206 q 181 -149 165 -164 q 219 -124 197 -133 q 265 -115 240 -115 q 337 -139 306 -115 q 368 -207 368 -162 q 334 -287 368 -256 q 250 -319 300 -319 z "},"Ð":{"ha":881,"x_min":53,"x_max":844,"o":"m 343 153 q 465 176 408 153 q 562 246 521 199 q 626 366 603 293 q 650 538 650 439 q 593 701 650 650 q 440 753 536 753 l 404 753 l 358 519 l 532 519 l 511 426 l 340 426 l 286 153 l 343 153 m 444 906 q 740 818 635 906 q 844 550 844 731 q 808 314 844 417 q 705 141 771 211 q 547 35 639 71 q 347 0 456 0 l 64 0 l 150 426 l 53 426 l 69 513 l 168 519 l 246 906 l 444 906 z "},"Þ":{"ha":826,"x_min":39,"x_max":794,"o":"m 221 917 l 411 917 l 382 772 l 504 772 q 619 759 567 772 q 711 717 672 746 q 772 643 750 689 q 794 532 794 597 q 760 371 794 438 q 669 262 726 304 q 536 200 613 219 q 375 181 460 181 l 264 181 l 228 0 l 39 0 l 221 917 m 393 332 q 551 375 497 332 q 606 504 606 418 q 569 593 606 565 q 464 621 532 621 l 351 621 l 294 332 l 393 332 z "},"Ə":{"ha":928,"x_min":90,"x_max":893,"o":"m 271 379 q 272 280 263 324 q 303 206 281 236 q 358 161 325 176 q 431 146 392 146 q 580 208 511 146 q 681 379 649 271 l 271 379 m 263 821 q 391 901 318 869 q 560 933 464 933 q 704 907 642 933 q 808 832 767 881 q 872 714 850 783 q 893 557 893 644 q 855 324 893 429 q 751 143 817 219 q 600 25 686 67 q 417 -17 514 -17 q 280 8 340 -17 q 177 80 219 33 q 113 192 135 126 q 90 339 90 257 q 98 430 90 390 q 121 518 106 469 l 703 518 l 703 538 q 665 710 703 649 q 536 771 628 771 q 428 747 474 771 q 343 692 382 724 l 263 821 z "},"à":{"ha":767,"x_min":43,"x_max":746,"o":"m 43 236 q 74 420 43 335 q 156 569 104 506 q 274 669 207 633 q 411 706 340 706 q 500 681 458 706 q 561 615 542 657 l 564 615 l 594 689 l 746 689 l 608 0 l 454 0 l 457 90 l 453 90 q 349 13 406 42 q 238 -17 292 -17 q 94 49 146 -17 q 43 236 43 114 m 321 139 q 395 160 356 139 q 468 240 435 182 l 517 485 q 474 535 500 519 q 425 550 449 550 q 356 528 389 550 q 297 467 322 506 q 256 375 271 428 q 240 260 240 322 q 262 168 240 197 q 321 139 283 139 m 307 1003 l 483 1003 l 561 796 l 431 796 l 307 1003 z "},"á":{"ha":767,"x_min":43,"x_max":746,"o":"m 43 236 q 74 420 43 335 q 156 569 104 506 q 274 669 207 633 q 411 706 340 706 q 500 681 458 706 q 561 615 542 657 l 564 615 l 594 689 l 746 689 l 608 0 l 454 0 l 457 90 l 453 90 q 349 13 406 42 q 238 -17 292 -17 q 94 49 146 -17 q 43 236 43 114 m 321 139 q 395 160 356 139 q 468 240 435 182 l 517 485 q 474 535 500 519 q 425 550 449 550 q 356 528 389 550 q 297 467 322 506 q 256 375 271 428 q 240 260 240 322 q 262 168 240 197 q 321 139 283 139 m 506 1003 l 696 1003 l 489 796 l 344 796 l 506 1003 z "},"â":{"ha":767,"x_min":43,"x_max":746,"o":"m 43 236 q 74 420 43 335 q 156 569 104 506 q 274 669 207 633 q 411 706 340 706 q 500 681 458 706 q 561 615 542 657 l 564 615 l 594 689 l 746 689 l 608 0 l 454 0 l 457 90 l 453 90 q 349 13 406 42 q 238 -17 292 -17 q 94 49 146 -17 q 43 236 43 114 m 321 139 q 395 160 356 139 q 468 240 435 182 l 517 485 q 474 535 500 519 q 425 550 449 550 q 356 528 389 550 q 297 467 322 506 q 256 375 271 428 q 240 260 240 322 q 262 168 240 197 q 321 139 283 139 m 426 1003 l 575 1003 l 663 796 l 540 796 l 489 908 l 483 908 l 389 796 l 257 796 l 426 1003 z "},"ã":{"ha":767,"x_min":43,"x_max":746,"o":"m 43 236 q 74 420 43 335 q 156 569 104 506 q 274 669 207 633 q 411 706 340 706 q 500 681 458 706 q 561 615 542 657 l 564 615 l 594 689 l 746 689 l 608 0 l 454 0 l 457 90 l 453 90 q 349 13 406 42 q 238 -17 292 -17 q 94 49 146 -17 q 43 236 43 114 m 321 139 q 395 160 356 139 q 468 240 435 182 l 517 485 q 474 535 500 519 q 425 550 449 550 q 356 528 389 550 q 297 467 322 506 q 256 375 271 428 q 240 260 240 322 q 262 168 240 197 q 321 139 283 139 m 247 801 q 317 935 272 890 q 411 979 363 979 q 463 969 442 979 q 500 948 483 960 q 533 926 517 936 q 569 917 549 917 q 625 976 599 917 l 725 976 q 655 844 700 889 q 561 799 610 799 q 508 808 529 799 q 471 830 488 818 q 438 851 454 842 q 401 861 422 861 q 347 801 371 861 l 247 801 z "},"ä":{"ha":767,"x_min":43,"x_max":746,"o":"m 43 236 q 74 420 43 335 q 156 569 104 506 q 274 669 207 633 q 411 706 340 706 q 500 681 458 706 q 561 615 542 657 l 564 615 l 594 689 l 746 689 l 608 0 l 454 0 l 457 90 l 453 90 q 349 13 406 42 q 238 -17 292 -17 q 94 49 146 -17 q 43 236 43 114 m 321 139 q 395 160 356 139 q 468 240 435 182 l 517 485 q 474 535 500 519 q 425 550 449 550 q 356 528 389 550 q 297 467 322 506 q 256 375 271 428 q 240 260 240 322 q 262 168 240 197 q 321 139 283 139 m 333 794 q 275 815 299 794 q 251 876 251 836 q 281 949 251 918 q 356 981 311 981 q 414 958 390 981 q 438 897 438 936 q 408 824 438 854 q 333 794 378 794 m 597 794 q 540 815 563 794 q 517 876 517 836 q 546 949 517 918 q 619 981 575 981 q 678 958 656 981 q 701 897 701 936 q 672 824 701 854 q 597 794 642 794 z "},"ā":{"ha":767,"x_min":43,"x_max":746,"o":"m 43 236 q 74 420 43 335 q 156 569 104 506 q 274 669 207 633 q 411 706 340 706 q 500 681 458 706 q 561 615 542 657 l 564 615 l 594 689 l 746 689 l 608 0 l 454 0 l 457 90 l 453 90 q 349 13 406 42 q 238 -17 292 -17 q 94 49 146 -17 q 43 236 43 114 m 321 139 q 395 160 356 139 q 468 240 435 182 l 517 485 q 474 535 500 519 q 425 550 449 550 q 356 528 389 550 q 297 467 322 506 q 256 375 271 428 q 240 260 240 322 q 262 168 240 197 q 321 139 283 139 m 306 944 l 671 944 l 646 824 l 281 824 l 306 944 z "},"ă":{"ha":767,"x_min":43,"x_max":746,"o":"m 43 236 q 74 420 43 335 q 156 569 104 506 q 274 669 207 633 q 411 706 340 706 q 500 681 458 706 q 561 615 542 657 l 564 615 l 594 689 l 746 689 l 608 0 l 454 0 l 457 90 l 453 90 q 349 13 406 42 q 238 -17 292 -17 q 94 49 146 -17 q 43 236 43 114 m 321 139 q 395 160 356 139 q 468 240 435 182 l 517 485 q 474 535 500 519 q 425 550 449 550 q 356 528 389 550 q 297 467 322 506 q 256 375 271 428 q 240 260 240 322 q 262 168 240 197 q 321 139 283 139 m 458 797 q 383 813 414 797 q 334 856 351 829 q 312 916 317 882 q 314 988 307 950 l 415 988 q 425 926 411 951 q 478 900 439 900 q 541 926 517 900 q 576 988 565 951 l 683 988 q 655 916 674 950 q 608 856 636 882 q 543 813 581 829 q 458 797 506 797 z "},"å":{"ha":767,"x_min":43,"x_max":746,"o":"m 43 236 q 74 420 43 335 q 156 569 104 506 q 274 669 207 633 q 411 706 340 706 q 500 681 458 706 q 561 615 542 657 l 564 615 l 594 689 l 746 689 l 608 0 l 454 0 l 457 90 l 453 90 q 349 13 406 42 q 238 -17 292 -17 q 94 49 146 -17 q 43 236 43 114 m 321 139 q 395 160 356 139 q 468 240 435 182 l 517 485 q 474 535 500 519 q 425 550 449 550 q 356 528 389 550 q 297 467 322 506 q 256 375 271 428 q 240 260 240 322 q 262 168 240 197 q 321 139 283 139 m 472 761 q 373 793 411 761 q 335 885 335 825 q 347 947 335 918 q 379 996 358 975 q 428 1028 400 1017 q 490 1040 457 1040 q 590 1008 551 1040 q 629 917 629 975 q 617 855 629 883 q 584 806 606 826 q 534 773 563 785 q 472 761 506 761 m 488 967 q 444 944 463 967 q 426 889 426 921 q 439 850 426 865 q 475 835 451 835 q 518 857 500 835 q 536 911 536 879 q 524 950 536 933 q 488 967 511 967 z "},"ǎ":{"ha":767,"x_min":43,"x_max":746,"o":"m 43 236 q 74 420 43 335 q 156 569 104 506 q 274 669 207 633 q 411 706 340 706 q 500 681 458 706 q 561 615 542 657 l 564 615 l 594 689 l 746 689 l 608 0 l 454 0 l 457 90 l 453 90 q 349 13 406 42 q 238 -17 292 -17 q 94 49 146 -17 q 43 236 43 114 m 321 139 q 395 160 356 139 q 468 240 435 182 l 517 485 q 474 535 500 519 q 425 550 449 550 q 356 528 389 550 q 297 467 322 506 q 256 375 271 428 q 240 260 240 322 q 262 168 240 197 q 321 139 283 139 m 536 796 l 388 796 l 300 1003 l 422 1003 l 474 892 l 479 892 l 574 1003 l 706 1003 l 536 796 z "},"ạ":{"ha":767,"x_min":43,"x_max":746,"o":"m 43 236 q 74 420 43 335 q 156 569 104 506 q 274 669 207 633 q 411 706 340 706 q 500 681 458 706 q 561 615 542 657 l 564 615 l 594 689 l 746 689 l 608 0 l 454 0 l 457 90 l 453 90 q 349 13 406 42 q 238 -17 292 -17 q 94 49 146 -17 q 43 236 43 114 m 321 139 q 395 160 356 139 q 468 240 435 182 l 517 485 q 474 535 500 519 q 425 550 449 550 q 356 528 389 550 q 297 467 322 506 q 256 375 271 428 q 240 260 240 322 q 262 168 240 197 q 321 139 283 139 m 292 -308 q 221 -285 253 -308 q 189 -217 189 -262 q 198 -174 189 -194 q 223 -137 207 -153 q 260 -113 239 -122 q 307 -104 282 -104 q 378 -128 347 -104 q 410 -196 410 -151 q 376 -276 410 -244 q 292 -308 342 -308 z "},"ả":{"ha":767,"x_min":43,"x_max":746,"o":"m 43 236 q 74 420 43 335 q 156 569 104 506 q 274 669 207 633 q 411 706 340 706 q 500 681 458 706 q 561 615 542 657 l 564 615 l 594 689 l 746 689 l 608 0 l 454 0 l 457 90 l 453 90 q 349 13 406 42 q 238 -17 292 -17 q 94 49 146 -17 q 43 236 43 114 m 321 139 q 395 160 356 139 q 468 240 435 182 l 517 485 q 474 535 500 519 q 425 550 449 550 q 356 528 389 550 q 297 467 322 506 q 256 375 271 428 q 240 260 240 322 q 262 168 240 197 q 321 139 283 139 m 436 1038 q 594 1006 549 1035 q 639 931 639 976 q 622 865 639 893 q 578 818 606 838 q 512 788 550 799 q 431 771 474 776 l 425 849 q 477 866 457 856 q 497 900 497 876 q 475 929 497 919 q 399 943 453 939 l 436 1038 z "},"ấ":{"ha":767,"x_min":43,"x_max":885,"o":"m 43 236 q 74 420 43 335 q 156 569 104 506 q 274 669 207 633 q 411 706 340 706 q 500 681 458 706 q 561 615 542 657 l 564 615 l 594 689 l 746 689 l 608 0 l 454 0 l 457 90 l 453 90 q 349 13 406 42 q 238 -17 292 -17 q 94 49 146 -17 q 43 236 43 114 m 321 139 q 395 160 356 139 q 468 240 435 182 l 517 485 q 474 535 500 519 q 425 550 449 550 q 356 528 389 550 q 297 467 322 506 q 256 375 271 428 q 240 260 240 322 q 262 168 240 197 q 321 139 283 139 m 421 972 l 568 972 l 640 796 l 529 796 l 483 886 l 478 886 l 399 796 l 275 796 l 421 972 m 743 1058 l 885 1058 l 728 894 l 622 894 l 743 1058 z "},"ầ":{"ha":767,"x_min":43,"x_max":806,"o":"m 43 236 q 74 420 43 335 q 156 569 104 506 q 274 669 207 633 q 411 706 340 706 q 500 681 458 706 q 561 615 542 657 l 564 615 l 594 689 l 746 689 l 608 0 l 454 0 l 457 90 l 453 90 q 349 13 406 42 q 238 -17 292 -17 q 94 49 146 -17 q 43 236 43 114 m 321 139 q 395 160 356 139 q 468 240 435 182 l 517 485 q 474 535 500 519 q 425 550 449 550 q 356 528 389 550 q 297 467 322 506 q 256 375 271 428 q 240 260 240 322 q 262 168 240 197 q 321 139 283 139 m 806 894 l 699 894 l 606 1058 l 747 1058 l 806 894 m 421 972 l 568 972 l 640 796 l 529 796 l 483 886 l 478 886 l 399 796 l 275 796 l 421 972 z "},"ẩ":{"ha":767,"x_min":43,"x_max":838,"o":"m 43 236 q 74 420 43 335 q 156 569 104 506 q 274 669 207 633 q 411 706 340 706 q 500 681 458 706 q 561 615 542 657 l 564 615 l 594 689 l 746 689 l 608 0 l 454 0 l 457 90 l 453 90 q 349 13 406 42 q 238 -17 292 -17 q 94 49 146 -17 q 43 236 43 114 m 321 139 q 395 160 356 139 q 468 240 435 182 l 517 485 q 474 535 500 519 q 425 550 449 550 q 356 528 389 550 q 297 467 322 506 q 256 375 271 428 q 240 260 240 322 q 262 168 240 197 q 321 139 283 139 m 661 1110 q 799 1081 760 1106 q 838 1017 838 1056 q 824 954 838 979 q 785 913 810 929 q 728 888 761 897 q 656 872 694 878 l 654 936 q 695 954 682 943 q 708 988 708 965 q 692 1014 708 1004 q 628 1028 675 1024 l 661 1110 m 421 972 l 568 972 l 640 796 l 529 796 l 483 886 l 478 886 l 399 796 l 275 796 l 421 972 z "},"ẫ":{"ha":767,"x_min":43,"x_max":746,"o":"m 43 236 q 74 420 43 335 q 156 569 104 506 q 274 669 207 633 q 411 706 340 706 q 500 681 458 706 q 561 615 542 657 l 564 615 l 594 689 l 746 689 l 608 0 l 454 0 l 457 90 l 453 90 q 349 13 406 42 q 238 -17 292 -17 q 94 49 146 -17 q 43 236 43 114 m 321 139 q 395 160 356 139 q 468 240 435 182 l 517 485 q 474 535 500 519 q 425 550 449 550 q 356 528 389 550 q 297 467 322 506 q 256 375 271 428 q 240 260 240 322 q 262 168 240 197 q 321 139 283 139 m 653 796 l 535 796 l 481 876 l 475 876 l 394 796 l 264 796 l 403 947 l 575 947 l 653 796 m 303 997 q 367 1113 326 1075 q 450 1150 408 1150 q 492 1142 474 1150 q 524 1124 510 1133 q 551 1106 539 1114 q 579 1097 564 1097 q 610 1110 594 1097 q 636 1150 626 1122 l 719 1150 q 655 1035 696 1072 q 572 997 614 997 q 531 1006 549 997 q 498 1024 513 1014 q 470 1043 483 1035 q 443 1051 457 1051 q 413 1038 428 1051 q 389 997 399 1025 l 303 997 z "},"ậ":{"ha":767,"x_min":43,"x_max":746,"o":"m 43 236 q 74 420 43 335 q 156 569 104 506 q 274 669 207 633 q 411 706 340 706 q 500 681 458 706 q 561 615 542 657 l 564 615 l 594 689 l 746 689 l 608 0 l 454 0 l 457 90 l 453 90 q 349 13 406 42 q 238 -17 292 -17 q 94 49 146 -17 q 43 236 43 114 m 321 139 q 395 160 356 139 q 468 240 435 182 l 517 485 q 474 535 500 519 q 425 550 449 550 q 356 528 389 550 q 297 467 322 506 q 256 375 271 428 q 240 260 240 322 q 262 168 240 197 q 321 139 283 139 m 426 1003 l 575 1003 l 663 796 l 540 796 l 489 908 l 483 908 l 389 796 l 257 796 l 426 1003 m 292 -308 q 221 -285 253 -308 q 189 -217 189 -262 q 198 -174 189 -194 q 223 -137 207 -153 q 260 -113 239 -122 q 307 -104 282 -104 q 378 -128 347 -104 q 410 -196 410 -151 q 376 -276 410 -244 q 292 -308 342 -308 z "},"ắ":{"ha":767,"x_min":43,"x_max":746,"o":"m 43 236 q 74 420 43 335 q 156 569 104 506 q 274 669 207 633 q 411 706 340 706 q 500 681 458 706 q 561 615 542 657 l 564 615 l 594 689 l 746 689 l 608 0 l 454 0 l 457 90 l 453 90 q 349 13 406 42 q 238 -17 292 -17 q 94 49 146 -17 q 43 236 43 114 m 321 139 q 395 160 356 139 q 468 240 435 182 l 517 485 q 474 535 500 519 q 425 550 449 550 q 356 528 389 550 q 297 467 322 506 q 256 375 271 428 q 240 260 240 322 q 262 168 240 197 q 321 139 283 139 m 526 1121 l 664 1121 l 524 957 l 428 957 l 526 1121 m 458 797 q 383 813 414 797 q 334 856 351 829 q 312 916 317 882 q 314 988 307 950 l 397 988 q 410 919 390 946 q 478 893 431 893 q 551 919 521 893 q 594 988 581 944 l 683 988 q 655 916 674 950 q 608 856 636 882 q 542 813 579 829 q 458 797 504 797 z "},"ằ":{"ha":767,"x_min":43,"x_max":746,"o":"m 43 236 q 74 420 43 335 q 156 569 104 506 q 274 669 207 633 q 411 706 340 706 q 500 681 458 706 q 561 615 542 657 l 564 615 l 594 689 l 746 689 l 608 0 l 454 0 l 457 90 l 453 90 q 349 13 406 42 q 238 -17 292 -17 q 94 49 146 -17 q 43 236 43 114 m 321 139 q 395 160 356 139 q 468 240 435 182 l 517 485 q 474 535 500 519 q 425 550 449 550 q 356 528 389 550 q 297 467 322 506 q 256 375 271 428 q 240 260 240 322 q 262 168 240 197 q 321 139 283 139 m 458 797 q 383 813 414 797 q 334 856 351 829 q 312 916 317 882 q 314 988 307 950 l 397 988 q 410 919 390 946 q 478 893 431 893 q 551 919 521 893 q 594 988 581 944 l 683 988 q 655 916 674 950 q 608 856 636 882 q 542 813 579 829 q 458 797 504 797 m 551 957 l 457 957 l 381 1121 l 515 1121 l 551 957 z "},"ẳ":{"ha":767,"x_min":43,"x_max":746,"o":"m 43 236 q 74 420 43 335 q 156 569 104 506 q 274 669 207 633 q 411 706 340 706 q 500 681 458 706 q 561 615 542 657 l 564 615 l 594 689 l 746 689 l 608 0 l 454 0 l 457 90 l 453 90 q 349 13 406 42 q 238 -17 292 -17 q 94 49 146 -17 q 43 236 43 114 m 321 139 q 395 160 356 139 q 468 240 435 182 l 517 485 q 474 535 500 519 q 425 550 449 550 q 356 528 389 550 q 297 467 322 506 q 256 375 271 428 q 240 260 240 322 q 262 168 240 197 q 321 139 283 139 m 458 1206 q 592 1178 554 1203 q 631 1117 631 1153 q 617 1054 631 1079 q 581 1012 604 1029 q 524 985 557 994 q 454 969 492 975 l 453 1036 q 504 1085 504 1049 q 488 1111 504 1101 q 426 1125 472 1121 l 458 1206 m 458 797 q 383 813 414 797 q 334 856 351 829 q 312 916 317 882 q 314 988 307 950 l 397 988 q 410 919 390 946 q 478 893 431 893 q 551 919 521 893 q 594 988 581 944 l 683 988 q 655 916 674 950 q 608 856 636 882 q 542 813 579 829 q 458 797 504 797 z "},"ẵ":{"ha":767,"x_min":43,"x_max":746,"o":"m 43 236 q 74 420 43 335 q 156 569 104 506 q 274 669 207 633 q 411 706 340 706 q 500 681 458 706 q 561 615 542 657 l 564 615 l 594 689 l 746 689 l 608 0 l 454 0 l 457 90 l 453 90 q 349 13 406 42 q 238 -17 292 -17 q 94 49 146 -17 q 43 236 43 114 m 321 139 q 395 160 356 139 q 468 240 435 182 l 517 485 q 474 535 500 519 q 425 550 449 550 q 356 528 389 550 q 297 467 322 506 q 256 375 271 428 q 240 260 240 322 q 262 168 240 197 q 321 139 283 139 m 458 797 q 381 810 413 797 q 333 847 350 824 q 310 899 315 869 q 310 961 304 929 l 393 961 q 414 910 394 931 q 478 889 433 889 q 549 910 521 889 q 590 961 578 932 l 676 961 q 650 899 668 929 q 605 847 632 869 q 541 810 578 824 q 458 797 504 797 m 303 997 q 367 1113 326 1075 q 450 1150 408 1150 q 492 1142 474 1150 q 524 1124 510 1133 q 551 1106 539 1114 q 579 1097 564 1097 q 610 1110 594 1097 q 636 1150 626 1122 l 719 1150 q 655 1035 696 1072 q 572 997 614 997 q 531 1006 549 997 q 498 1024 513 1014 q 470 1043 483 1035 q 443 1051 457 1051 q 413 1038 428 1051 q 389 997 399 1025 l 303 997 z "},"ặ":{"ha":767,"x_min":43,"x_max":746,"o":"m 43 236 q 74 420 43 335 q 156 569 104 506 q 274 669 207 633 q 411 706 340 706 q 500 681 458 706 q 561 615 542 657 l 564 615 l 594 689 l 746 689 l 608 0 l 454 0 l 457 90 l 453 90 q 349 13 406 42 q 238 -17 292 -17 q 94 49 146 -17 q 43 236 43 114 m 321 139 q 395 160 356 139 q 468 240 435 182 l 517 485 q 474 535 500 519 q 425 550 449 550 q 356 528 389 550 q 297 467 322 506 q 256 375 271 428 q 240 260 240 322 q 262 168 240 197 q 321 139 283 139 m 458 797 q 383 813 414 797 q 334 856 351 829 q 312 916 317 882 q 314 988 307 950 l 415 988 q 425 926 411 951 q 478 900 439 900 q 541 926 517 900 q 576 988 565 951 l 683 988 q 655 916 674 950 q 608 856 636 882 q 543 813 581 829 q 458 797 506 797 m 292 -308 q 221 -285 253 -308 q 189 -217 189 -262 q 198 -174 189 -194 q 223 -137 207 -153 q 260 -113 239 -122 q 307 -104 282 -104 q 378 -128 347 -104 q 410 -196 410 -151 q 376 -276 410 -244 q 292 -308 342 -308 z "},"ą":{"ha":767,"x_min":43,"x_max":746,"o":"m 43 236 q 74 420 43 335 q 156 569 104 506 q 274 669 207 633 q 411 706 340 706 q 500 681 458 706 q 561 615 542 656 l 564 615 l 594 689 l 746 689 l 608 0 q 501 -57 540 -21 q 461 -136 461 -93 q 476 -167 461 -156 q 510 -178 490 -178 q 554 -164 529 -178 l 586 -242 q 517 -277 557 -262 q 443 -292 476 -292 q 357 -266 390 -292 q 324 -190 324 -240 q 338 -127 324 -157 q 372 -72 351 -97 q 415 -28 392 -47 q 454 3 438 -10 l 457 90 l 454 90 q 349 13 407 42 q 238 -17 292 -17 q 94 49 146 -17 q 43 236 43 114 m 321 139 q 394 160 353 139 q 468 240 435 182 l 517 485 q 474 535 500 519 q 425 550 449 550 q 356 528 389 550 q 297 467 322 506 q 256 375 271 428 q 240 260 240 322 q 262 168 240 197 q 321 139 283 139 z "},"æ":{"ha":1047,"x_min":31,"x_max":1007,"o":"m 31 156 q 63 283 31 231 q 153 367 96 335 q 288 413 211 399 q 453 431 365 428 q 454 446 454 439 q 454 460 454 453 q 431 534 454 511 q 361 557 407 557 q 277 542 321 557 q 185 504 233 528 l 143 636 q 272 686 204 667 q 408 706 339 706 q 513 683 469 706 q 578 613 556 661 q 676 681 622 657 q 782 706 729 706 q 887 685 844 706 q 956 630 929 665 q 995 548 983 594 q 1007 447 1007 501 q 1003 398 1007 422 q 994 352 999 374 q 983 315 989 331 q 972 290 976 299 l 594 290 q 628 167 588 208 q 736 126 669 126 q 802 142 768 126 q 861 175 836 157 l 929 56 q 829 5 889 26 q 694 -17 769 -17 q 563 16 621 -17 q 476 96 504 49 q 352 13 414 43 q 215 -17 290 -17 q 142 -5 176 -17 q 83 30 108 7 q 44 84 58 53 q 31 156 31 115 m 846 407 q 850 433 849 422 q 851 458 851 443 q 831 530 851 500 q 758 560 811 560 q 674 522 715 560 q 610 407 632 483 l 846 407 m 428 315 q 267 279 319 313 q 215 193 215 246 q 237 146 215 163 q 292 129 258 129 q 358 149 322 129 q 429 211 393 169 q 426 260 426 236 q 428 315 425 285 z "},"ç":{"ha":615,"x_min":40,"x_max":631,"o":"m 40 267 q 72 435 40 356 q 158 576 103 515 q 287 671 213 636 q 446 706 361 706 q 558 679 511 706 q 631 621 604 653 l 525 508 q 483 542 504 531 q 433 553 463 553 q 356 531 392 553 q 292 469 319 508 q 250 380 265 431 q 235 271 235 329 q 264 172 235 208 q 351 136 293 136 q 413 150 388 136 q 461 181 439 164 l 540 64 q 447 9 501 35 q 310 -17 392 -17 q 203 2 253 -17 q 118 58 154 21 q 61 147 82 94 q 40 267 40 200 m 238 6 l 349 6 l 307 -62 q 351 -92 333 -74 q 368 -144 368 -111 q 347 -214 368 -185 q 289 -262 325 -243 q 206 -292 253 -282 q 107 -306 158 -303 l 101 -229 q 190 -207 154 -224 q 226 -160 226 -190 q 213 -130 226 -143 q 163 -106 200 -117 l 238 6 z "},"ć":{"ha":615,"x_min":40,"x_max":681,"o":"m 40 267 q 72 435 40 356 q 158 576 103 515 q 287 671 213 636 q 446 706 361 706 q 558 679 511 706 q 631 621 604 653 l 525 508 q 483 542 504 531 q 433 553 463 553 q 356 531 392 553 q 292 469 319 508 q 250 380 265 431 q 235 271 235 329 q 264 172 235 208 q 351 136 293 136 q 413 150 388 136 q 461 181 439 164 l 540 64 q 447 9 501 35 q 310 -17 392 -17 q 203 2 253 -17 q 118 58 154 21 q 61 147 82 94 q 40 267 40 200 m 490 1003 l 681 1003 l 474 796 l 329 796 l 490 1003 z "},"ĉ":{"ha":615,"x_min":40,"x_max":647,"o":"m 40 267 q 72 435 40 356 q 158 576 103 515 q 287 671 213 636 q 446 706 361 706 q 558 679 511 706 q 631 621 604 653 l 525 508 q 483 542 504 531 q 433 553 463 553 q 356 531 392 553 q 292 469 319 508 q 250 380 265 431 q 235 271 235 329 q 264 172 235 208 q 351 136 293 136 q 413 150 388 136 q 461 181 439 164 l 540 64 q 447 9 501 35 q 310 -17 392 -17 q 203 2 253 -17 q 118 58 154 21 q 61 147 82 94 q 40 267 40 200 m 411 1003 l 560 1003 l 647 796 l 525 796 l 474 908 l 468 908 l 374 796 l 242 796 l 411 1003 z "},"č":{"ha":615,"x_min":40,"x_max":690,"o":"m 40 267 q 72 435 40 356 q 158 576 103 515 q 287 671 213 636 q 446 706 361 706 q 558 679 511 706 q 631 621 604 653 l 525 508 q 483 542 504 531 q 433 553 463 553 q 356 531 392 553 q 292 469 319 508 q 250 380 265 431 q 235 271 235 329 q 264 172 235 208 q 351 136 293 136 q 413 150 388 136 q 461 181 439 164 l 540 64 q 447 9 501 35 q 310 -17 392 -17 q 203 2 253 -17 q 118 58 154 21 q 61 147 82 94 q 40 267 40 200 m 521 796 l 372 796 l 285 1003 l 407 1003 l 458 892 l 464 892 l 558 1003 l 690 1003 l 521 796 z "},"ċ":{"ha":615,"x_min":40,"x_max":631,"o":"m 40 267 q 72 435 40 356 q 158 576 103 515 q 287 671 213 636 q 446 706 361 706 q 558 679 511 706 q 631 621 604 653 l 525 508 q 483 542 504 531 q 433 553 463 553 q 356 531 392 553 q 292 469 319 508 q 250 380 265 431 q 235 271 235 329 q 264 172 235 208 q 351 136 293 136 q 413 150 388 136 q 461 181 439 164 l 540 64 q 447 9 501 35 q 310 -17 392 -17 q 203 2 253 -17 q 118 58 154 21 q 61 147 82 94 q 40 267 40 200 m 454 792 q 383 815 415 792 q 351 883 351 838 q 360 926 351 906 q 385 963 369 947 q 423 987 401 978 q 469 996 444 996 q 541 972 510 996 q 572 904 572 949 q 538 824 572 856 q 454 792 504 792 z "},"ď":{"ha":792,"x_min":43,"x_max":993,"o":"m 572 753 l 614 974 l 804 974 l 608 0 l 454 0 l 457 90 l 453 90 q 349 13 406 42 q 238 -17 292 -17 q 94 49 146 -17 q 43 236 43 114 q 74 420 43 335 q 156 569 104 506 q 274 669 207 633 q 411 706 340 706 q 495 683 458 706 q 551 622 532 660 l 556 622 l 572 753 m 321 139 q 394 160 356 139 q 468 240 432 182 l 517 485 q 474 535 500 519 q 425 550 449 550 q 356 528 389 550 q 297 467 322 506 q 256 375 271 428 q 240 260 240 322 q 262 168 240 197 q 321 139 283 139 m 817 761 l 872 1069 l 993 1069 l 974 974 l 900 761 l 817 761 z "},"ḍ":{"ha":758,"x_min":43,"x_max":804,"o":"m 572 753 l 614 974 l 804 974 l 608 0 l 454 0 l 457 90 l 453 90 q 349 13 406 42 q 238 -17 292 -17 q 94 49 146 -17 q 43 236 43 114 q 74 420 43 335 q 156 569 104 506 q 274 669 207 633 q 411 706 340 706 q 495 683 458 706 q 551 622 532 660 l 556 622 l 572 753 m 321 139 q 394 160 356 139 q 468 240 432 182 l 517 485 q 474 535 500 519 q 425 550 449 550 q 356 528 389 550 q 297 467 322 506 q 256 375 271 428 q 240 260 240 322 q 262 168 240 197 q 321 139 283 139 m 283 -308 q 213 -285 244 -308 q 181 -217 181 -262 q 190 -174 181 -194 q 215 -137 199 -153 q 252 -113 231 -122 q 299 -104 274 -104 q 370 -128 339 -104 q 401 -196 401 -151 q 367 -276 401 -244 q 283 -308 333 -308 z "},"ḏ":{"ha":758,"x_min":43,"x_max":804,"o":"m 572 753 l 614 974 l 804 974 l 608 0 l 454 0 l 457 90 l 453 90 q 349 13 406 42 q 238 -17 292 -17 q 94 49 146 -17 q 43 236 43 114 q 74 420 43 335 q 156 569 104 506 q 274 669 207 633 q 411 706 340 706 q 495 683 458 706 q 551 622 532 660 l 556 622 l 572 753 m 321 139 q 394 160 356 139 q 468 240 432 182 l 517 485 q 474 535 500 519 q 425 550 449 550 q 356 528 389 550 q 297 467 322 506 q 256 375 271 428 q 240 260 240 322 q 262 168 240 197 q 321 139 283 139 m 122 -125 l 488 -125 l 464 -246 l 99 -246 l 122 -125 z "},"đ":{"ha":764,"x_min":43,"x_max":876,"o":"m 511 457 q 472 507 496 492 q 424 522 449 522 q 354 500 388 522 q 296 442 321 478 q 256 358 271 406 q 240 260 240 310 q 262 168 240 197 q 321 139 283 139 q 394 160 356 139 q 468 240 432 182 l 511 457 m 857 782 l 764 775 l 608 0 l 454 0 l 457 90 l 453 90 q 349 13 406 42 q 238 -17 292 -17 q 94 49 146 -17 q 43 236 43 114 q 74 403 43 324 q 156 544 104 483 q 274 642 207 606 q 411 678 340 678 q 493 655 458 678 q 546 594 528 632 l 550 594 l 567 725 l 576 775 l 376 775 l 394 868 l 594 868 l 614 974 l 804 974 l 783 868 l 876 868 l 857 782 z "},"è":{"ha":689,"x_min":40,"x_max":649,"o":"m 40 278 q 74 452 40 374 q 163 587 108 531 q 286 674 218 643 q 424 706 354 706 q 528 685 485 706 q 598 630 571 665 q 637 548 625 594 q 649 447 649 501 q 644 398 649 422 q 635 352 640 374 q 623 315 629 331 q 613 290 617 299 l 221 290 q 262 165 217 204 q 375 126 307 126 q 442 142 407 126 q 503 175 476 157 l 569 56 q 465 5 528 26 q 322 -17 403 -17 q 208 3 260 -17 q 119 62 156 24 q 61 154 82 100 q 40 278 40 208 m 486 407 q 493 458 493 431 q 473 530 493 500 q 400 560 453 560 q 306 522 351 560 q 236 407 260 483 l 486 407 m 293 1003 l 469 1003 l 547 796 l 417 796 l 293 1003 z "},"é":{"ha":689,"x_min":40,"x_max":682,"o":"m 40 278 q 74 452 40 374 q 163 587 108 531 q 286 674 218 643 q 424 706 354 706 q 528 685 485 706 q 598 630 571 665 q 637 548 625 594 q 649 447 649 501 q 644 398 649 422 q 635 352 640 374 q 623 315 629 331 q 613 290 617 299 l 221 290 q 262 165 217 204 q 375 126 307 126 q 442 142 407 126 q 503 175 476 157 l 569 56 q 465 5 528 26 q 322 -17 403 -17 q 208 3 260 -17 q 119 62 156 24 q 61 154 82 100 q 40 278 40 208 m 486 407 q 493 458 493 431 q 473 530 493 500 q 400 560 453 560 q 306 522 351 560 q 236 407 260 483 l 486 407 m 492 1003 l 682 1003 l 475 796 l 331 796 l 492 1003 z "},"ê":{"ha":689,"x_min":40,"x_max":649,"o":"m 40 278 q 74 452 40 374 q 163 587 108 531 q 286 674 218 643 q 424 706 354 706 q 528 685 485 706 q 598 630 571 665 q 637 548 625 594 q 649 447 649 501 q 644 398 649 422 q 635 352 640 374 q 623 315 629 331 q 613 290 617 299 l 221 290 q 262 165 217 204 q 375 126 307 126 q 442 142 407 126 q 503 175 476 157 l 569 56 q 465 5 528 26 q 322 -17 403 -17 q 208 3 260 -17 q 119 62 156 24 q 61 154 82 100 q 40 278 40 208 m 486 407 q 493 458 493 431 q 473 530 493 500 q 400 560 453 560 q 306 522 351 560 q 236 407 260 483 l 486 407 m 413 1003 l 561 1003 l 649 796 l 526 796 l 475 908 l 469 908 l 375 796 l 243 796 l 413 1003 z "},"ě":{"ha":689,"x_min":40,"x_max":692,"o":"m 40 278 q 74 452 40 374 q 163 587 108 531 q 286 674 218 643 q 424 706 354 706 q 528 685 485 706 q 598 630 571 665 q 637 548 625 594 q 649 447 649 501 q 644 398 649 422 q 635 352 640 374 q 623 315 629 331 q 613 290 617 299 l 221 290 q 262 165 217 204 q 375 126 307 126 q 442 142 407 126 q 503 175 476 157 l 569 56 q 465 5 528 26 q 322 -17 403 -17 q 208 3 260 -17 q 119 62 156 24 q 61 154 82 100 q 40 278 40 208 m 486 407 q 493 458 493 431 q 473 530 493 500 q 400 560 453 560 q 306 522 351 560 q 236 407 260 483 l 486 407 m 522 796 l 374 796 l 286 1003 l 408 1003 l 460 892 l 465 892 l 560 1003 l 692 1003 l 522 796 z "},"ë":{"ha":689,"x_min":40,"x_max":688,"o":"m 40 278 q 74 452 40 374 q 163 587 108 531 q 286 674 218 643 q 424 706 354 706 q 528 685 485 706 q 598 630 571 665 q 637 548 625 594 q 649 447 649 501 q 644 398 649 422 q 635 352 640 374 q 623 315 629 331 q 613 290 617 299 l 221 290 q 262 165 217 204 q 375 126 307 126 q 442 142 407 126 q 503 175 476 157 l 569 56 q 465 5 528 26 q 322 -17 403 -17 q 208 3 260 -17 q 119 62 156 24 q 61 154 82 100 q 40 278 40 208 m 486 407 q 493 458 493 431 q 473 530 493 500 q 400 560 453 560 q 306 522 351 560 q 236 407 260 483 l 486 407 m 319 794 q 261 815 285 794 q 238 876 238 836 q 267 949 238 918 q 342 981 297 981 q 400 958 376 981 q 424 897 424 936 q 394 824 424 854 q 319 794 364 794 m 583 794 q 526 815 549 794 q 503 876 503 836 q 532 949 503 918 q 606 981 561 981 q 665 958 642 981 q 688 897 688 936 q 658 824 688 854 q 583 794 628 794 z "},"ē":{"ha":689,"x_min":40,"x_max":657,"o":"m 40 278 q 74 452 40 374 q 163 587 108 531 q 286 674 218 643 q 424 706 354 706 q 528 685 485 706 q 598 630 571 665 q 637 548 625 594 q 649 447 649 501 q 644 398 649 422 q 635 352 640 374 q 623 315 629 331 q 613 290 617 299 l 221 290 q 262 165 217 204 q 375 126 307 126 q 442 142 407 126 q 503 175 476 157 l 569 56 q 465 5 528 26 q 322 -17 403 -17 q 208 3 260 -17 q 119 62 156 24 q 61 154 82 100 q 40 278 40 208 m 486 407 q 493 458 493 431 q 473 530 493 500 q 400 560 453 560 q 306 522 351 560 q 236 407 260 483 l 486 407 m 292 944 l 657 944 l 632 824 l 267 824 l 292 944 z "},"ĕ":{"ha":689,"x_min":40,"x_max":669,"o":"m 40 278 q 74 452 40 374 q 163 587 108 531 q 286 674 218 643 q 424 706 354 706 q 528 685 485 706 q 598 630 571 665 q 637 548 625 594 q 649 447 649 501 q 644 398 649 422 q 635 352 640 374 q 623 315 629 331 q 613 290 617 299 l 221 290 q 262 165 217 204 q 375 126 307 126 q 442 142 407 126 q 503 175 476 157 l 569 56 q 465 5 528 26 q 322 -17 403 -17 q 208 3 260 -17 q 119 62 156 24 q 61 154 82 100 q 40 278 40 208 m 486 407 q 493 458 493 431 q 473 530 493 500 q 400 560 453 560 q 306 522 351 560 q 236 407 260 483 l 486 407 m 444 797 q 369 813 400 797 q 320 856 338 829 q 298 916 303 882 q 300 988 293 950 l 401 988 q 411 926 397 951 q 464 900 425 900 q 527 926 503 900 q 563 988 551 951 l 669 988 q 641 916 660 950 q 594 856 622 882 q 529 813 567 829 q 444 797 492 797 z "},"ė":{"ha":689,"x_min":40,"x_max":649,"o":"m 40 278 q 74 452 40 374 q 163 587 108 531 q 286 674 218 643 q 424 706 354 706 q 528 685 485 706 q 598 630 571 665 q 637 548 625 594 q 649 447 649 501 q 644 398 649 422 q 635 352 640 374 q 623 315 629 331 q 613 290 617 299 l 221 290 q 262 165 217 204 q 375 126 307 126 q 442 142 407 126 q 503 175 476 157 l 569 56 q 465 5 528 26 q 322 -17 403 -17 q 208 3 260 -17 q 119 62 156 24 q 61 154 82 100 q 40 278 40 208 m 486 407 q 493 458 493 431 q 473 530 493 500 q 400 560 453 560 q 306 522 351 560 q 236 407 260 483 l 486 407 m 456 792 q 385 815 417 792 q 353 883 353 838 q 362 926 353 906 q 387 963 371 947 q 424 987 403 978 q 471 996 446 996 q 542 972 511 996 q 574 904 574 949 q 540 824 574 856 q 456 792 506 792 z "},"ẹ":{"ha":689,"x_min":40,"x_max":649,"o":"m 40 278 q 74 452 40 374 q 163 587 108 531 q 286 674 218 643 q 424 706 354 706 q 528 685 485 706 q 598 630 571 665 q 637 548 625 594 q 649 447 649 501 q 644 398 649 422 q 635 352 640 374 q 623 315 629 331 q 613 290 617 299 l 221 290 q 262 165 217 204 q 375 126 307 126 q 442 142 407 126 q 503 175 476 157 l 569 56 q 465 5 528 26 q 322 -17 403 -17 q 208 3 260 -17 q 119 62 156 24 q 61 154 82 100 q 40 278 40 208 m 486 407 q 493 458 493 431 q 473 530 493 500 q 400 560 453 560 q 306 522 351 560 q 236 407 260 483 l 486 407 m 260 -308 q 189 -285 221 -308 q 157 -217 157 -262 q 166 -174 157 -194 q 191 -137 175 -153 q 228 -113 207 -122 q 275 -104 250 -104 q 347 -128 315 -104 q 378 -196 378 -151 q 344 -276 378 -244 q 260 -308 310 -308 z "},"ẻ":{"ha":689,"x_min":40,"x_max":649,"o":"m 40 278 q 74 452 40 374 q 163 587 108 531 q 286 674 218 643 q 424 706 354 706 q 528 685 485 706 q 598 630 571 665 q 637 548 625 594 q 649 447 649 501 q 644 398 649 422 q 635 352 640 374 q 623 315 629 331 q 613 290 617 299 l 221 290 q 262 165 217 204 q 375 126 307 126 q 442 142 407 126 q 503 175 476 157 l 569 56 q 465 5 528 26 q 322 -17 403 -17 q 208 3 260 -17 q 119 62 156 24 q 61 154 82 100 q 40 278 40 208 m 486 407 q 493 458 493 431 q 473 530 493 500 q 400 560 453 560 q 306 522 351 560 q 236 407 260 483 l 486 407 m 435 1038 q 592 1006 547 1035 q 638 931 638 976 q 621 865 638 893 q 576 818 604 838 q 510 788 549 799 q 429 771 472 776 l 424 849 q 476 866 456 856 q 496 900 496 876 q 474 929 496 919 q 397 943 451 939 l 435 1038 z "},"ẽ":{"ha":689,"x_min":40,"x_max":711,"o":"m 40 278 q 74 452 40 374 q 163 587 108 531 q 286 674 218 643 q 424 706 354 706 q 528 685 485 706 q 598 630 571 665 q 637 548 625 594 q 649 447 649 501 q 644 398 649 422 q 635 352 640 374 q 623 315 629 331 q 613 290 617 299 l 221 290 q 262 165 217 204 q 375 126 307 126 q 442 142 407 126 q 503 175 476 157 l 569 56 q 465 5 528 26 q 322 -17 403 -17 q 208 3 260 -17 q 119 62 156 24 q 61 154 82 100 q 40 278 40 208 m 486 407 q 493 458 493 431 q 473 530 493 500 q 400 560 453 560 q 306 522 351 560 q 236 407 260 483 l 486 407 m 233 801 q 303 935 258 890 q 397 979 349 979 q 449 969 428 979 q 486 948 469 960 q 519 926 503 936 q 556 917 535 917 q 611 976 585 917 l 711 976 q 641 844 686 889 q 547 799 596 799 q 494 808 515 799 q 457 830 474 818 q 424 851 440 842 q 388 861 408 861 q 333 801 357 861 l 233 801 z "},"ế":{"ha":689,"x_min":40,"x_max":871,"o":"m 40 278 q 74 452 40 374 q 163 587 108 531 q 286 674 218 643 q 424 706 354 706 q 528 685 485 706 q 598 630 571 665 q 637 548 625 594 q 649 447 649 501 q 644 398 649 422 q 635 352 640 374 q 623 315 629 331 q 613 290 617 299 l 221 290 q 262 165 217 204 q 375 126 307 126 q 442 142 407 126 q 503 175 476 157 l 569 56 q 465 5 528 26 q 322 -17 403 -17 q 208 3 260 -17 q 119 62 156 24 q 61 154 82 100 q 40 278 40 208 m 486 407 q 493 458 493 431 q 473 530 493 500 q 400 560 453 560 q 306 522 351 560 q 236 407 260 483 l 486 407 m 407 972 l 554 972 l 626 796 l 515 796 l 469 886 l 464 886 l 385 796 l 261 796 l 407 972 m 729 1058 l 871 1058 l 714 894 l 608 894 l 729 1058 z "},"ề":{"ha":689,"x_min":40,"x_max":792,"o":"m 40 278 q 74 452 40 374 q 163 587 108 531 q 286 674 218 643 q 424 706 354 706 q 528 685 485 706 q 598 630 571 665 q 637 548 625 594 q 649 447 649 501 q 644 398 649 422 q 635 352 640 374 q 623 315 629 331 q 613 290 617 299 l 221 290 q 262 165 217 204 q 375 126 307 126 q 442 142 407 126 q 503 175 476 157 l 569 56 q 465 5 528 26 q 322 -17 403 -17 q 208 3 260 -17 q 119 62 156 24 q 61 154 82 100 q 40 278 40 208 m 486 407 q 493 458 493 431 q 473 530 493 500 q 400 560 453 560 q 306 522 351 560 q 236 407 260 483 l 486 407 m 792 894 l 685 894 l 592 1058 l 733 1058 l 792 894 m 407 972 l 554 972 l 626 796 l 515 796 l 469 886 l 464 886 l 385 796 l 261 796 l 407 972 z "},"ể":{"ha":689,"x_min":40,"x_max":824,"o":"m 40 278 q 74 452 40 374 q 163 587 108 531 q 286 674 218 643 q 424 706 354 706 q 528 685 485 706 q 598 630 571 665 q 637 548 625 594 q 649 447 649 501 q 644 398 649 422 q 635 352 640 374 q 623 315 629 331 q 613 290 617 299 l 221 290 q 262 165 217 204 q 375 126 307 126 q 442 142 407 126 q 503 175 476 157 l 569 56 q 465 5 528 26 q 322 -17 403 -17 q 208 3 260 -17 q 119 62 156 24 q 61 154 82 100 q 40 278 40 208 m 486 407 q 493 458 493 431 q 473 530 493 500 q 400 560 453 560 q 306 522 351 560 q 236 407 260 483 l 486 407 m 647 1110 q 785 1081 746 1106 q 824 1017 824 1056 q 810 954 824 979 q 772 913 796 929 q 714 888 747 897 q 642 872 681 878 l 640 936 q 681 954 668 943 q 694 988 694 965 q 678 1014 694 1004 q 614 1028 661 1024 l 647 1110 m 407 972 l 554 972 l 626 796 l 515 796 l 469 886 l 464 886 l 385 796 l 261 796 l 407 972 z "},"ễ":{"ha":689,"x_min":40,"x_max":706,"o":"m 40 278 q 74 452 40 374 q 163 587 108 531 q 286 674 218 643 q 424 706 354 706 q 528 685 485 706 q 598 630 571 665 q 637 548 625 594 q 649 447 649 501 q 644 398 649 422 q 635 352 640 374 q 623 315 629 331 q 613 290 617 299 l 221 290 q 262 165 217 204 q 375 126 307 126 q 442 142 407 126 q 503 175 476 157 l 569 56 q 465 5 528 26 q 322 -17 403 -17 q 208 3 260 -17 q 119 62 156 24 q 61 154 82 100 q 40 278 40 208 m 486 407 q 493 458 493 431 q 473 530 493 500 q 400 560 453 560 q 306 522 351 560 q 236 407 260 483 l 486 407 m 639 796 l 521 796 l 467 876 l 461 876 l 381 796 l 250 796 l 389 947 l 561 947 l 639 796 m 289 997 q 353 1113 313 1075 q 436 1150 394 1150 q 478 1142 460 1150 q 510 1124 496 1133 q 538 1106 525 1114 q 565 1097 550 1097 q 597 1110 581 1097 q 622 1150 613 1122 l 706 1150 q 641 1035 682 1072 q 558 997 600 997 q 517 1006 535 997 q 484 1024 499 1014 q 456 1043 469 1035 q 429 1051 443 1051 q 399 1038 414 1051 q 375 997 385 1025 l 289 997 z "},"ệ":{"ha":689,"x_min":40,"x_max":649,"o":"m 40 278 q 74 452 40 374 q 163 587 108 531 q 286 674 218 643 q 424 706 354 706 q 528 685 485 706 q 598 630 571 665 q 637 548 625 594 q 649 447 649 501 q 644 398 649 422 q 635 352 640 374 q 623 315 629 331 q 613 290 617 299 l 221 290 q 262 165 217 204 q 375 126 307 126 q 442 142 407 126 q 503 175 476 157 l 569 56 q 465 5 528 26 q 322 -17 403 -17 q 208 3 260 -17 q 119 62 156 24 q 61 154 82 100 q 40 278 40 208 m 486 407 q 493 458 493 431 q 473 530 493 500 q 400 560 453 560 q 306 522 351 560 q 236 407 260 483 l 486 407 m 413 1003 l 561 1003 l 649 796 l 526 796 l 475 908 l 469 908 l 375 796 l 243 796 l 413 1003 m 260 -308 q 189 -285 221 -308 q 157 -217 157 -262 q 166 -174 157 -194 q 191 -137 175 -153 q 228 -113 207 -122 q 275 -104 250 -104 q 347 -128 315 -104 q 378 -196 378 -151 q 344 -276 378 -244 q 260 -308 310 -308 z "},"ę":{"ha":689,"x_min":40,"x_max":649,"o":"m 236 -190 q 249 -128 236 -157 q 281 -76 263 -99 q 315 -37 299 -53 q 340 -15 332 -22 q 333 -17 338 -17 q 325 -17 328 -17 q 209 3 261 -17 q 119 62 157 24 q 61 154 82 100 q 40 278 40 208 q 74 452 40 374 q 163 587 108 531 q 286 674 218 643 q 424 706 354 706 q 528 685 485 706 q 598 630 571 665 q 637 548 625 594 q 649 447 649 501 q 644 398 649 422 q 635 352 640 374 q 623 315 629 331 q 613 290 617 299 l 221 290 q 262 165 217 204 q 375 126 307 126 q 442 142 407 126 q 503 175 476 157 l 569 56 q 469 -3 507 25 q 410 -55 431 -31 q 381 -99 389 -79 q 374 -136 374 -119 q 388 -167 374 -156 q 421 -178 401 -178 q 467 -164 442 -178 l 499 -242 q 429 -277 469 -262 q 354 -292 389 -292 q 269 -266 303 -292 q 236 -190 236 -240 m 486 407 q 493 458 493 431 q 473 530 493 500 q 400 560 453 560 q 306 522 351 560 q 236 407 260 483 l 486 407 z "},"ĝ":{"ha":758,"x_min":-17,"x_max":738,"o":"m 738 689 l 603 11 q 477 -219 571 -143 q 238 -296 383 -296 q 108 -272 175 -296 q -17 -199 42 -247 l 65 -72 q 150 -124 106 -103 q 243 -144 194 -144 q 355 -108 311 -144 q 419 0 399 -71 l 453 117 l 450 117 q 353 47 403 72 q 244 22 303 22 q 100 81 157 22 q 43 263 43 140 q 73 436 43 356 q 152 576 103 517 q 267 671 201 636 q 403 706 332 706 q 490 681 450 706 q 550 615 531 657 l 554 615 l 583 689 l 738 689 m 318 176 q 392 196 353 176 q 464 267 431 215 l 507 485 q 465 535 489 519 q 417 550 440 550 q 349 530 381 550 q 293 474 317 510 q 255 391 269 439 q 240 288 240 343 q 261 203 240 231 q 318 176 282 176 m 415 1003 l 564 1003 l 651 796 l 529 796 l 478 908 l 472 908 l 378 796 l 246 796 l 415 1003 z "},"ğ":{"ha":758,"x_min":-17,"x_max":738,"o":"m 738 689 l 603 11 q 477 -219 571 -143 q 238 -296 383 -296 q 108 -272 175 -296 q -17 -199 42 -247 l 65 -72 q 150 -124 106 -103 q 243 -144 194 -144 q 355 -108 311 -144 q 419 0 399 -71 l 453 117 l 450 117 q 353 47 403 72 q 244 22 303 22 q 100 81 157 22 q 43 263 43 140 q 73 436 43 356 q 152 576 103 517 q 267 671 201 636 q 403 706 332 706 q 490 681 450 706 q 550 615 531 657 l 554 615 l 583 689 l 738 689 m 318 176 q 392 196 353 176 q 464 267 431 215 l 507 485 q 465 535 489 519 q 417 550 440 550 q 349 530 381 550 q 293 474 317 510 q 255 391 269 439 q 240 288 240 343 q 261 203 240 231 q 318 176 282 176 m 447 797 q 372 813 403 797 q 323 856 340 829 q 301 916 306 882 q 303 988 296 950 l 404 988 q 414 926 400 951 q 467 900 428 900 q 530 926 506 900 q 565 988 554 951 l 672 988 q 644 916 663 950 q 597 856 625 882 q 532 813 569 829 q 447 797 494 797 z "},"ġ":{"ha":758,"x_min":-17,"x_max":738,"o":"m 738 689 l 603 11 q 477 -219 571 -143 q 238 -296 383 -296 q 108 -272 175 -296 q -17 -199 42 -247 l 65 -72 q 150 -124 106 -103 q 243 -144 194 -144 q 355 -108 311 -144 q 419 0 399 -71 l 453 117 l 450 117 q 353 47 403 72 q 244 22 303 22 q 100 81 157 22 q 43 263 43 140 q 73 436 43 356 q 152 576 103 517 q 267 671 201 636 q 403 706 332 706 q 490 681 450 706 q 550 615 531 657 l 554 615 l 583 689 l 738 689 m 318 176 q 392 196 353 176 q 464 267 431 215 l 507 485 q 465 535 489 519 q 417 550 440 550 q 349 530 381 550 q 293 474 317 510 q 255 391 269 439 q 240 288 240 343 q 261 203 240 231 q 318 176 282 176 m 458 792 q 388 815 419 792 q 356 883 356 838 q 365 926 356 906 q 390 963 374 947 q 427 987 406 978 q 474 996 449 996 q 545 972 514 996 q 576 904 576 949 q 542 824 576 856 q 458 792 508 792 z "},"ģ":{"ha":758,"x_min":-17,"x_max":738,"o":"m 738 689 l 603 11 q 477 -219 571 -143 q 238 -296 383 -296 q 108 -272 175 -296 q -17 -199 42 -247 l 65 -72 q 150 -124 106 -103 q 243 -144 194 -144 q 355 -108 311 -144 q 419 0 399 -71 l 453 117 l 450 117 q 353 47 403 72 q 244 22 303 22 q 100 81 157 22 q 43 263 43 140 q 73 436 43 356 q 152 576 103 517 q 267 671 201 636 q 403 706 332 706 q 490 681 450 706 q 550 615 531 657 l 554 615 l 583 689 l 738 689 m 318 176 q 392 196 353 176 q 464 267 431 215 l 507 485 q 465 535 489 519 q 417 550 440 550 q 349 530 381 550 q 293 474 317 510 q 255 391 269 439 q 240 288 240 343 q 261 203 240 231 q 318 176 282 176 m 489 756 q 390 791 425 767 q 354 860 354 815 q 374 929 354 901 q 428 973 394 957 q 508 997 463 989 q 606 1007 554 1004 l 611 931 q 518 911 547 925 q 489 868 489 897 q 501 841 489 851 q 538 822 514 831 l 489 756 z "},"ǧ":{"ha":758,"x_min":-17,"x_max":738,"o":"m 738 689 l 603 11 q 477 -219 571 -143 q 238 -296 383 -296 q 108 -272 175 -296 q -17 -199 42 -247 l 65 -72 q 150 -124 106 -103 q 243 -144 194 -144 q 355 -108 311 -144 q 419 0 399 -71 l 453 117 l 450 117 q 353 47 403 72 q 244 22 303 22 q 100 81 157 22 q 43 263 43 140 q 73 436 43 356 q 152 576 103 517 q 267 671 201 636 q 403 706 332 706 q 490 681 450 706 q 550 615 531 657 l 554 615 l 583 689 l 738 689 m 318 176 q 392 196 353 176 q 464 267 431 215 l 507 485 q 465 535 489 519 q 417 550 440 550 q 349 530 381 550 q 293 474 317 510 q 255 391 269 439 q 240 288 240 343 q 261 203 240 231 q 318 176 282 176 m 525 796 l 376 796 l 289 1003 l 411 1003 l 463 892 l 468 892 l 563 1003 l 694 1003 l 525 796 z "},"ḡ":{"ha":758,"x_min":-17,"x_max":738,"o":"m 738 689 l 603 11 q 477 -219 571 -143 q 238 -296 383 -296 q 108 -272 175 -296 q -17 -199 42 -247 l 65 -72 q 150 -124 106 -103 q 243 -144 194 -144 q 355 -108 311 -144 q 419 0 399 -71 l 453 117 l 450 117 q 353 47 403 72 q 244 22 303 22 q 100 81 157 22 q 43 263 43 140 q 73 436 43 356 q 152 576 103 517 q 267 671 201 636 q 403 706 332 706 q 490 681 450 706 q 550 615 531 657 l 554 615 l 583 689 l 738 689 m 318 176 q 392 196 353 176 q 464 267 431 215 l 507 485 q 465 535 489 519 q 417 550 440 550 q 349 530 381 550 q 293 474 317 510 q 255 391 269 439 q 240 288 240 343 q 261 203 240 231 q 318 176 282 176 m 294 944 l 660 944 l 635 824 l 269 824 l 294 944 z "},"ĥ":{"ha":758,"x_min":19,"x_max":708,"o":"m 215 974 l 406 974 l 353 719 l 322 608 l 328 608 q 428 677 374 649 q 544 706 482 706 q 669 660 631 706 q 708 529 708 615 q 706 481 708 506 q 697 431 704 457 l 611 0 l 421 0 l 503 407 q 510 443 507 428 q 514 472 514 458 q 443 543 514 543 q 377 522 411 543 q 299 454 343 500 l 210 0 l 19 0 l 215 974 m 260 1213 l 443 1213 l 539 1049 l 400 1049 l 342 1136 l 339 1136 l 250 1049 l 99 1049 l 260 1213 z "},"ḥ":{"ha":758,"x_min":19,"x_max":708,"o":"m 215 974 l 406 974 l 353 719 l 322 608 l 328 608 q 428 677 374 649 q 544 706 482 706 q 669 660 631 706 q 708 529 708 615 q 706 481 708 506 q 697 431 704 457 l 611 0 l 421 0 l 503 407 q 510 443 507 428 q 514 472 514 458 q 443 543 514 543 q 377 522 411 543 q 299 454 343 500 l 210 0 l 19 0 l 215 974 m 278 -308 q 207 -285 239 -308 q 175 -217 175 -262 q 184 -174 175 -194 q 209 -137 193 -153 q 247 -113 225 -122 q 293 -104 268 -104 q 365 -128 333 -104 q 396 -196 396 -151 q 362 -276 396 -244 q 278 -308 328 -308 z "},"ḫ":{"ha":758,"x_min":19,"x_max":708,"o":"m 215 974 l 406 974 l 353 719 l 322 608 l 328 608 q 428 677 374 649 q 544 706 482 706 q 669 660 631 706 q 708 529 708 615 q 706 481 708 506 q 697 431 704 457 l 611 0 l 421 0 l 503 407 q 510 443 507 428 q 514 472 514 458 q 443 543 514 543 q 377 522 411 543 q 299 454 343 500 l 210 0 l 19 0 l 215 974 m 268 -289 q 192 -273 224 -289 q 144 -231 161 -257 q 122 -170 126 -204 q 124 -99 117 -136 l 225 -99 q 235 -160 221 -135 q 288 -186 249 -186 q 351 -160 326 -186 q 386 -99 375 -135 l 493 -99 q 465 -170 483 -136 q 418 -231 446 -204 q 353 -273 390 -257 q 268 -289 315 -289 z "},"ħ":{"ha":758,"x_min":19,"x_max":703,"o":"m 322 581 q 422 649 368 621 q 539 678 476 678 q 664 633 625 678 q 703 501 703 588 q 701 453 703 478 q 692 403 699 429 l 611 0 l 421 0 l 497 379 q 505 415 501 400 q 508 444 508 431 q 438 515 508 515 q 372 494 406 515 q 293 426 338 472 l 210 0 l 19 0 l 175 775 l 81 775 l 99 860 l 194 868 l 215 974 l 406 974 l 383 868 l 608 868 l 588 775 l 364 775 l 347 692 l 317 581 l 322 581 z "},"ì":{"ha":368,"x_min":19,"x_max":369,"o":"m 158 689 l 347 689 l 210 0 l 19 0 l 158 689 m 115 1003 l 292 1003 l 369 796 l 239 796 l 115 1003 z "},"í":{"ha":368,"x_min":19,"x_max":504,"o":"m 158 689 l 347 689 l 210 0 l 19 0 l 158 689 m 314 1003 l 504 1003 l 297 796 l 153 796 l 314 1003 z "},"î":{"ha":368,"x_min":19,"x_max":471,"o":"m 158 689 l 347 689 l 210 0 l 19 0 l 158 689 m 235 1003 l 383 1003 l 471 796 l 349 796 l 297 908 l 292 908 l 197 796 l 65 796 l 235 1003 z "},"ĩ":{"ha":368,"x_min":19,"x_max":533,"o":"m 158 689 l 347 689 l 210 0 l 19 0 l 158 689 m 56 801 q 126 935 81 890 q 219 979 171 979 q 271 969 250 979 q 308 948 292 960 q 341 926 325 936 q 378 917 357 917 q 433 976 407 917 l 533 976 q 463 844 508 889 q 369 799 418 799 q 317 808 338 799 q 279 830 296 818 q 247 851 263 842 q 210 861 231 861 q 156 801 179 861 l 56 801 z "},"ï":{"ha":368,"x_min":19,"x_max":510,"o":"m 158 689 l 347 689 l 210 0 l 19 0 l 158 689 m 142 794 q 83 815 107 794 q 60 876 60 836 q 90 949 60 918 q 164 981 119 981 q 222 958 199 981 q 246 897 246 936 q 216 824 246 854 q 142 794 186 794 m 406 794 q 348 815 371 794 q 325 876 325 836 q 354 949 325 918 q 428 981 383 981 q 487 958 464 981 q 510 897 510 936 q 480 824 510 854 q 406 794 450 794 z "},"ī":{"ha":368,"x_min":19,"x_max":479,"o":"m 158 689 l 347 689 l 210 0 l 19 0 l 158 689 m 114 944 l 479 944 l 454 824 l 89 824 l 114 944 z "},"ǐ":{"ha":368,"x_min":19,"x_max":514,"o":"m 158 689 l 347 689 l 210 0 l 19 0 l 158 689 m 344 796 l 196 796 l 108 1003 l 231 1003 l 282 892 l 288 892 l 382 1003 l 514 1003 l 344 796 z "},"ỉ":{"ha":368,"x_min":19,"x_max":458,"o":"m 158 689 l 347 689 l 210 0 l 19 0 l 158 689 m 256 1038 q 413 1006 368 1035 q 458 931 458 976 q 442 865 458 893 q 397 818 425 838 q 331 788 369 799 q 250 771 293 776 l 244 849 q 297 866 276 856 q 317 900 317 876 q 294 929 317 919 q 218 943 272 939 l 256 1038 z "},"ị":{"ha":368,"x_min":-29,"x_max":407,"o":"m 158 689 l 347 689 l 210 0 l 19 0 l 158 689 m 289 792 q 218 815 250 792 q 186 883 186 838 q 195 926 186 906 q 220 963 204 947 q 258 987 236 978 q 304 996 279 996 q 376 972 344 996 q 407 904 407 949 q 373 824 407 856 q 289 792 339 792 m 74 -308 q 3 -285 35 -308 q -29 -217 -29 -262 q -20 -174 -29 -194 q 5 -137 -11 -153 q 42 -113 21 -122 q 89 -104 64 -104 q 160 -128 129 -104 q 192 -196 192 -151 q 158 -276 192 -244 q 74 -308 124 -308 z "},"į":{"ha":368,"x_min":-54,"x_max":407,"o":"m 158 689 l 347 689 l 210 0 q 113 -63 142 -28 q 83 -136 83 -99 q 98 -167 83 -156 q 132 -178 113 -178 q 176 -164 151 -178 l 208 -242 q 139 -277 179 -262 q 65 -292 99 -292 q -21 -266 13 -292 q -54 -190 -54 -240 q -40 -127 -54 -157 q -6 -72 -26 -97 q 35 -29 14 -47 q 74 0 57 -11 l 19 0 l 158 689 m 289 792 q 218 815 250 792 q 186 883 186 838 q 195 926 186 906 q 220 963 204 947 q 258 987 236 978 q 304 996 279 996 q 376 972 344 996 q 407 904 407 949 q 373 824 407 856 q 289 792 339 792 z "},"ı":{"ha":368,"x_min":19,"x_max":347,"o":"m 158 689 l 347 689 l 210 0 l 19 0 l 158 689 z "},"ĵ":{"ha":371,"x_min":-182,"x_max":469,"o":"m 207 -22 q 176 -120 196 -75 q 126 -199 157 -165 q 53 -253 96 -233 q -49 -272 10 -272 q -117 -265 -85 -272 q -182 -242 -149 -258 l -125 -104 q -96 -117 -110 -112 q -64 -122 -82 -122 q -12 -97 -29 -122 q 19 -14 6 -71 l 160 689 l 350 689 l 207 -22 m 233 1003 l 382 1003 l 469 796 l 347 796 l 296 908 l 290 908 l 196 796 l 64 796 l 233 1003 z "},"ķ":{"ha":729,"x_min":19,"x_max":768,"o":"m 215 974 l 406 974 l 292 410 l 297 410 l 557 689 l 768 689 l 486 388 l 650 0 l 460 0 l 356 278 l 243 165 l 210 0 l 19 0 l 215 974 m 278 -53 q 377 -89 342 -64 q 413 -158 413 -114 q 392 -228 413 -200 q 338 -272 372 -256 q 258 -295 303 -287 q 161 -306 213 -303 l 156 -229 q 249 -210 219 -224 q 278 -167 278 -196 q 229 -121 278 -136 l 278 -53 z "},"ĸ":{"ha":729,"x_min":19,"x_max":768,"o":"m 156 689 l 346 689 l 292 410 l 297 410 l 557 689 l 768 689 l 486 388 l 650 0 l 460 0 l 356 278 l 243 165 l 210 0 l 19 0 l 156 689 z "},"ĺ":{"ha":382,"x_min":51,"x_max":571,"o":"m 215 974 l 406 974 l 249 194 q 246 178 246 183 q 246 168 246 174 q 253 143 246 150 q 272 136 261 136 q 283 136 279 136 q 297 139 288 136 l 292 -1 q 249 -12 274 -8 q 190 -17 224 -17 q 83 19 115 -17 q 51 118 51 56 q 61 203 51 154 l 215 974 m 365 1215 l 571 1215 l 379 1051 l 224 1051 l 365 1215 z "},"ľ":{"ha":389,"x_min":51,"x_max":590,"o":"m 215 974 l 406 974 l 249 194 q 246 178 246 183 q 246 168 246 174 q 253 143 246 150 q 272 136 261 136 q 283 136 279 136 q 297 139 288 136 l 292 -1 q 249 -12 274 -8 q 190 -17 224 -17 q 83 19 115 -17 q 51 118 51 56 q 61 203 51 154 l 215 974 m 414 761 l 469 1069 l 590 1069 l 571 974 l 497 761 l 414 761 z "},"ŀ":{"ha":585,"x_min":51,"x_max":617,"o":"m 215 974 l 406 974 l 249 194 q 246 178 246 183 q 246 168 246 174 q 253 143 246 150 q 272 136 261 136 q 283 136 279 136 q 297 139 288 136 l 292 -1 q 249 -12 274 -8 q 190 -17 224 -17 q 83 19 115 -17 q 51 118 51 56 q 61 203 51 154 l 215 974 m 481 343 q 410 372 436 343 q 383 446 383 400 q 393 497 383 471 q 421 542 403 522 q 464 574 439 561 q 519 586 489 586 q 590 556 564 586 q 617 482 617 526 q 607 431 617 456 q 579 386 597 406 q 536 355 561 367 q 481 343 511 343 z "},"ļ":{"ha":382,"x_min":-58,"x_max":406,"o":"m 215 974 l 406 974 l 249 194 q 246 178 246 183 q 246 168 246 174 q 253 143 246 150 q 272 136 261 136 q 283 136 279 136 q 297 139 288 136 l 292 -1 q 249 -12 274 -8 q 190 -17 224 -17 q 83 19 115 -17 q 51 118 51 56 q 61 203 51 154 l 215 974 m 64 -53 q 163 -89 128 -64 q 199 -158 199 -114 q 178 -228 199 -200 q 124 -272 158 -256 q 44 -295 89 -287 q -53 -306 -1 -303 l -58 -229 q 35 -210 6 -224 q 64 -167 64 -196 q 15 -121 64 -136 l 64 -53 z "},"ḷ":{"ha":382,"x_min":-35,"x_max":406,"o":"m 215 974 l 406 974 l 249 194 q 246 178 246 183 q 246 168 246 174 q 253 143 246 150 q 272 136 261 136 q 283 136 279 136 q 297 139 288 136 l 292 -1 q 249 -12 274 -8 q 190 -17 224 -17 q 83 19 115 -17 q 51 118 51 56 q 61 203 51 154 l 215 974 m 68 -308 q -3 -285 29 -308 q -35 -217 -35 -262 q -26 -174 -35 -194 q -1 -137 -17 -153 q 37 -113 15 -122 q 83 -104 58 -104 q 155 -128 124 -104 q 186 -196 186 -151 q 152 -276 186 -244 q 68 -308 118 -308 z "},"ḹ":{"ha":382,"x_min":-35,"x_max":536,"o":"m 215 974 l 406 974 l 249 194 q 246 178 246 183 q 246 168 246 174 q 253 143 246 150 q 272 136 261 136 q 283 136 279 136 q 297 139 288 136 l 292 -1 q 249 -12 274 -8 q 190 -17 224 -17 q 83 19 115 -17 q 51 118 51 56 q 61 203 51 154 l 215 974 m 171 1239 l 536 1239 l 511 1118 l 146 1118 l 171 1239 m 68 -308 q -3 -285 29 -308 q -35 -217 -35 -262 q -26 -174 -35 -194 q -1 -137 -17 -153 q 37 -113 15 -122 q 83 -104 58 -104 q 155 -128 124 -104 q 186 -196 186 -151 q 152 -276 186 -244 q 68 -308 118 -308 z "},"ḻ":{"ha":382,"x_min":-117,"x_max":406,"o":"m 215 974 l 406 974 l 249 194 q 246 178 246 183 q 246 168 246 174 q 253 143 246 150 q 272 136 261 136 q 283 136 279 136 q 297 139 288 136 l 292 -1 q 249 -12 274 -8 q 190 -17 224 -17 q 83 19 115 -17 q 51 118 51 56 q 61 203 51 154 l 215 974 m -93 -125 l 272 -125 l 249 -246 l -117 -246 l -93 -125 z "},"ł":{"ha":396,"x_min":21,"x_max":453,"o":"m 263 194 q 260 178 260 183 q 260 168 260 174 q 267 143 260 150 q 286 136 275 136 q 297 136 293 136 q 311 139 301 136 l 304 -1 q 263 -12 288 -8 q 204 -17 238 -17 q 97 19 129 -17 q 65 118 65 56 q 75 203 65 154 l 114 400 l 21 349 l 54 501 l 144 553 l 229 974 l 419 974 l 354 649 l 453 704 l 424 553 l 324 494 l 263 194 z "},"ṃ":{"ha":1149,"x_min":19,"x_max":1090,"o":"m 156 689 l 310 689 l 307 597 l 313 597 q 419 674 363 642 q 535 706 476 706 q 647 672 613 706 q 694 585 681 639 q 811 672 753 638 q 928 706 869 706 q 1052 660 1014 706 q 1090 529 1090 615 q 1088 481 1090 506 q 1079 431 1085 457 l 993 0 l 803 0 l 885 407 q 892 443 889 428 q 896 472 896 458 q 826 543 896 543 q 769 522 803 543 q 692 454 736 500 l 600 0 l 410 0 l 492 407 q 499 443 496 428 q 503 472 503 458 q 485 526 503 508 q 436 543 468 543 q 377 522 411 543 q 299 454 343 500 l 210 0 l 19 0 l 156 689 m 469 -308 q 399 -285 431 -308 q 367 -217 367 -262 q 376 -174 367 -194 q 401 -137 385 -153 q 438 -113 417 -122 q 485 -104 460 -104 q 556 -128 525 -104 q 588 -196 588 -151 q 553 -276 588 -244 q 469 -308 519 -308 z "},"ń":{"ha":767,"x_min":19,"x_max":735,"o":"m 156 689 l 310 689 l 307 597 l 313 597 q 421 674 364 642 q 544 706 478 706 q 669 660 631 706 q 708 529 708 615 q 706 481 708 506 q 697 431 703 457 l 611 0 l 421 0 l 503 407 q 510 443 507 428 q 514 472 514 458 q 443 543 514 543 q 377 522 411 543 q 299 454 343 500 l 210 0 l 19 0 l 156 689 m 544 1003 l 735 1003 l 528 796 l 383 796 l 544 1003 z "},"ň":{"ha":767,"x_min":19,"x_max":744,"o":"m 156 689 l 310 689 l 307 597 l 313 597 q 421 674 364 642 q 544 706 478 706 q 669 660 631 706 q 708 529 708 615 q 706 481 708 506 q 697 431 703 457 l 611 0 l 421 0 l 503 407 q 510 443 507 428 q 514 472 514 458 q 443 543 514 543 q 377 522 411 543 q 299 454 343 500 l 210 0 l 19 0 l 156 689 m 575 796 l 426 796 l 339 1003 l 461 1003 l 513 892 l 518 892 l 613 1003 l 744 1003 l 575 796 z "},"ñ":{"ha":767,"x_min":19,"x_max":764,"o":"m 156 689 l 310 689 l 307 597 l 313 597 q 421 674 364 642 q 544 706 478 706 q 669 660 631 706 q 708 529 708 615 q 706 481 708 506 q 697 431 703 457 l 611 0 l 421 0 l 503 407 q 510 443 507 428 q 514 472 514 458 q 443 543 514 543 q 377 522 411 543 q 299 454 343 500 l 210 0 l 19 0 l 156 689 m 286 801 q 356 935 311 890 q 450 979 401 979 q 501 969 481 979 q 539 948 522 960 q 572 926 556 936 q 608 917 588 917 q 664 976 638 917 l 764 976 q 694 844 739 889 q 600 799 649 799 q 547 808 568 799 q 510 830 526 818 q 477 851 493 842 q 440 861 461 861 q 386 801 410 861 l 286 801 z "},"ņ":{"ha":767,"x_min":19,"x_max":708,"o":"m 156 689 l 310 689 l 307 597 l 313 597 q 421 674 364 642 q 544 706 478 706 q 669 660 631 706 q 708 529 708 615 q 706 481 708 506 q 697 431 703 457 l 611 0 l 421 0 l 503 407 q 510 443 507 428 q 514 472 514 458 q 443 543 514 543 q 377 522 411 543 q 299 454 343 500 l 210 0 l 19 0 l 156 689 m 278 -53 q 377 -89 342 -64 q 413 -158 413 -114 q 392 -228 413 -200 q 338 -272 372 -256 q 258 -295 303 -287 q 161 -306 213 -303 l 156 -229 q 249 -210 219 -224 q 278 -167 278 -196 q 229 -121 278 -136 l 278 -53 z "},"ṅ":{"ha":767,"x_min":19,"x_max":708,"o":"m 156 689 l 310 689 l 307 597 l 313 597 q 421 674 364 642 q 544 706 478 706 q 669 660 631 706 q 708 529 708 615 q 706 481 708 506 q 697 431 703 457 l 611 0 l 421 0 l 503 407 q 510 443 507 428 q 514 472 514 458 q 443 543 514 543 q 377 522 411 543 q 299 454 343 500 l 210 0 l 19 0 l 156 689 m 508 792 q 438 815 469 792 q 406 883 406 838 q 415 926 406 906 q 440 963 424 947 q 477 987 456 978 q 524 996 499 996 q 595 972 564 996 q 626 904 626 949 q 592 824 626 856 q 508 792 558 792 z "},"ṇ":{"ha":767,"x_min":19,"x_max":708,"o":"m 156 689 l 310 689 l 307 597 l 313 597 q 421 674 364 642 q 544 706 478 706 q 669 660 631 706 q 708 529 708 615 q 706 481 708 506 q 697 431 703 457 l 611 0 l 421 0 l 503 407 q 510 443 507 428 q 514 472 514 458 q 443 543 514 543 q 377 522 411 543 q 299 454 343 500 l 210 0 l 19 0 l 156 689 m 282 -308 q 211 -285 243 -308 q 179 -217 179 -262 q 188 -174 179 -194 q 213 -137 197 -153 q 251 -113 229 -122 q 297 -104 272 -104 q 369 -128 338 -104 q 400 -196 400 -151 q 366 -276 400 -244 q 282 -308 332 -308 z "},"ṉ":{"ha":767,"x_min":19,"x_max":708,"o":"m 156 689 l 310 689 l 307 597 l 313 597 q 421 674 364 642 q 544 706 478 706 q 669 660 631 706 q 708 529 708 615 q 706 481 708 506 q 697 431 703 457 l 611 0 l 421 0 l 503 407 q 510 443 507 428 q 514 472 514 458 q 443 543 514 543 q 377 522 411 543 q 299 454 343 500 l 210 0 l 19 0 l 156 689 m 121 -125 l 486 -125 l 463 -246 l 97 -246 l 121 -125 z "},"ŉ":{"ha":1142,"x_min":149,"x_max":1089,"o":"m 149 603 q 217 638 188 617 q 266 683 246 660 q 297 728 286 706 q 308 767 308 750 l 300 767 q 229 790 257 767 q 201 854 201 813 q 233 933 201 899 q 317 968 264 968 q 392 933 364 968 q 419 833 419 897 q 400 720 419 771 q 348 630 381 669 q 272 563 315 590 q 179 519 228 535 l 149 603 m 536 689 l 690 689 l 688 597 l 693 597 q 801 674 744 642 q 925 706 858 706 q 1050 660 1011 706 q 1089 529 1089 615 q 1086 481 1089 506 q 1078 431 1083 457 l 992 0 l 801 0 l 883 407 q 891 443 888 428 q 894 472 894 458 q 824 543 894 543 q 758 522 792 543 q 679 454 724 500 l 590 0 l 400 0 l 536 689 z "},"ò":{"ha":740,"x_min":42,"x_max":694,"o":"m 308 -17 q 199 3 247 -17 q 115 61 150 24 q 60 151 79 99 q 42 267 42 203 q 75 448 42 367 q 163 586 108 529 q 288 674 218 643 q 428 706 357 706 q 537 685 488 706 q 621 628 586 665 q 675 538 656 590 q 694 422 694 486 q 661 241 694 322 q 573 103 628 160 q 449 15 518 46 q 308 -17 379 -17 m 406 553 q 340 531 371 553 q 285 472 308 510 q 247 383 261 435 q 233 271 233 331 q 257 172 233 208 q 329 136 281 136 q 395 158 364 136 q 451 217 426 179 q 489 306 475 254 q 503 418 503 357 q 478 517 503 482 q 406 553 454 553 m 307 1003 l 483 1003 l 561 796 l 431 796 l 307 1003 z "},"ó":{"ha":740,"x_min":42,"x_max":696,"o":"m 308 -17 q 199 3 247 -17 q 115 61 150 24 q 60 151 79 99 q 42 267 42 203 q 75 448 42 367 q 163 586 108 529 q 288 674 218 643 q 428 706 357 706 q 537 685 488 706 q 621 628 586 665 q 675 538 656 590 q 694 422 694 486 q 661 241 694 322 q 573 103 628 160 q 449 15 518 46 q 308 -17 379 -17 m 406 553 q 340 531 371 553 q 285 472 308 510 q 247 383 261 435 q 233 271 233 331 q 257 172 233 208 q 329 136 281 136 q 395 158 364 136 q 451 217 426 179 q 489 306 475 254 q 503 418 503 357 q 478 517 503 482 q 406 553 454 553 m 506 1003 l 696 1003 l 489 796 l 344 796 l 506 1003 z "},"ô":{"ha":740,"x_min":42,"x_max":694,"o":"m 308 -17 q 199 3 247 -17 q 115 61 150 24 q 60 151 79 99 q 42 267 42 203 q 75 448 42 367 q 163 586 108 529 q 288 674 218 643 q 428 706 357 706 q 537 685 488 706 q 621 628 586 665 q 675 538 656 590 q 694 422 694 486 q 661 241 694 322 q 573 103 628 160 q 449 15 518 46 q 308 -17 379 -17 m 406 553 q 340 531 371 553 q 285 472 308 510 q 247 383 261 435 q 233 271 233 331 q 257 172 233 208 q 329 136 281 136 q 395 158 364 136 q 451 217 426 179 q 489 306 475 254 q 503 418 503 357 q 478 517 503 482 q 406 553 454 553 m 426 1003 l 575 1003 l 663 796 l 540 796 l 489 908 l 483 908 l 389 796 l 257 796 l 426 1003 z "},"õ":{"ha":740,"x_min":42,"x_max":725,"o":"m 308 -17 q 199 3 247 -17 q 115 61 150 24 q 60 151 79 99 q 42 267 42 203 q 75 448 42 367 q 163 586 108 529 q 288 674 218 643 q 428 706 357 706 q 537 685 488 706 q 621 628 586 665 q 675 538 656 590 q 694 422 694 486 q 661 241 694 322 q 573 103 628 160 q 449 15 518 46 q 308 -17 379 -17 m 406 553 q 340 531 371 553 q 285 472 308 510 q 247 383 261 435 q 233 271 233 331 q 257 172 233 208 q 329 136 281 136 q 395 158 364 136 q 451 217 426 179 q 489 306 475 254 q 503 418 503 357 q 478 517 503 482 q 406 553 454 553 m 247 801 q 317 935 272 890 q 411 979 363 979 q 463 969 442 979 q 500 948 483 960 q 533 926 517 936 q 569 917 549 917 q 625 976 599 917 l 725 976 q 655 844 700 889 q 561 799 610 799 q 508 808 529 799 q 471 830 488 818 q 438 851 454 842 q 401 861 422 861 q 347 801 371 861 l 247 801 z "},"ö":{"ha":740,"x_min":42,"x_max":701,"o":"m 308 -17 q 199 3 247 -17 q 115 61 150 24 q 60 151 79 99 q 42 267 42 203 q 75 448 42 367 q 163 586 108 529 q 288 674 218 643 q 428 706 357 706 q 537 685 488 706 q 621 628 586 665 q 675 538 656 590 q 694 422 694 486 q 661 241 694 322 q 573 103 628 160 q 449 15 518 46 q 308 -17 379 -17 m 406 553 q 340 531 371 553 q 285 472 308 510 q 247 383 261 435 q 233 271 233 331 q 257 172 233 208 q 329 136 281 136 q 395 158 364 136 q 451 217 426 179 q 489 306 475 254 q 503 418 503 357 q 478 517 503 482 q 406 553 454 553 m 333 794 q 275 815 299 794 q 251 876 251 836 q 281 949 251 918 q 356 981 311 981 q 414 958 390 981 q 438 897 438 936 q 408 824 438 854 q 333 794 378 794 m 597 794 q 540 815 563 794 q 517 876 517 836 q 546 949 517 918 q 619 981 575 981 q 678 958 656 981 q 701 897 701 936 q 672 824 701 854 q 597 794 642 794 z "},"ō":{"ha":740,"x_min":42,"x_max":694,"o":"m 308 -17 q 199 3 247 -17 q 115 61 150 24 q 60 151 79 99 q 42 267 42 203 q 75 448 42 367 q 163 586 108 529 q 288 674 218 643 q 428 706 357 706 q 537 685 488 706 q 621 628 586 665 q 675 538 656 590 q 694 422 694 486 q 661 241 694 322 q 573 103 628 160 q 449 15 518 46 q 308 -17 379 -17 m 406 553 q 340 531 371 553 q 285 472 308 510 q 247 383 261 435 q 233 271 233 331 q 257 172 233 208 q 329 136 281 136 q 395 158 364 136 q 451 217 426 179 q 489 306 475 254 q 503 418 503 357 q 478 517 503 482 q 406 553 454 553 m 306 944 l 671 944 l 646 824 l 281 824 l 306 944 z "},"ő":{"ha":740,"x_min":42,"x_max":808,"o":"m 308 -17 q 199 3 247 -17 q 115 61 150 24 q 60 151 79 99 q 42 267 42 203 q 75 448 42 367 q 163 586 108 529 q 288 674 218 643 q 428 706 357 706 q 537 685 488 706 q 621 628 586 665 q 675 538 656 590 q 694 422 694 486 q 661 241 694 322 q 573 103 628 160 q 449 15 518 46 q 308 -17 379 -17 m 406 553 q 340 531 371 553 q 285 472 308 510 q 247 383 261 435 q 233 271 233 331 q 257 172 233 208 q 329 136 281 136 q 395 158 364 136 q 451 217 426 179 q 489 306 475 254 q 503 418 503 357 q 478 517 503 482 q 406 553 454 553 m 428 1003 l 581 1003 l 411 796 l 288 796 l 428 1003 m 654 1003 l 808 1003 l 638 796 l 515 796 l 654 1003 z "},"ǒ":{"ha":740,"x_min":42,"x_max":706,"o":"m 308 -17 q 199 3 247 -17 q 115 61 150 24 q 60 151 79 99 q 42 267 42 203 q 75 448 42 367 q 163 586 108 529 q 288 674 218 643 q 428 706 357 706 q 537 685 488 706 q 621 628 586 665 q 675 538 656 590 q 694 422 694 486 q 661 241 694 322 q 573 103 628 160 q 449 15 518 46 q 308 -17 379 -17 m 406 553 q 340 531 371 553 q 285 472 308 510 q 247 383 261 435 q 233 271 233 331 q 257 172 233 208 q 329 136 281 136 q 395 158 364 136 q 451 217 426 179 q 489 306 475 254 q 503 418 503 357 q 478 517 503 482 q 406 553 454 553 m 536 796 l 388 796 l 300 1003 l 422 1003 l 474 892 l 479 892 l 574 1003 l 706 1003 l 536 796 z "},"ọ":{"ha":740,"x_min":42,"x_max":694,"o":"m 308 -17 q 199 3 247 -17 q 115 61 150 24 q 60 151 79 99 q 42 267 42 203 q 75 448 42 367 q 163 586 108 529 q 288 674 218 643 q 428 706 357 706 q 537 685 488 706 q 621 628 586 665 q 675 538 656 590 q 694 422 694 486 q 661 241 694 322 q 573 103 628 160 q 449 15 518 46 q 308 -17 379 -17 m 406 553 q 340 531 371 553 q 285 472 308 510 q 247 383 261 435 q 233 271 233 331 q 257 172 233 208 q 329 136 281 136 q 395 158 364 136 q 451 217 426 179 q 489 306 475 254 q 503 418 503 357 q 478 517 503 482 q 406 553 454 553 m 228 -308 q 157 -285 189 -308 q 125 -217 125 -262 q 134 -174 125 -194 q 159 -137 143 -153 q 197 -113 175 -122 q 243 -104 218 -104 q 315 -128 283 -104 q 346 -196 346 -151 q 312 -276 346 -244 q 228 -308 278 -308 z "},"ỏ":{"ha":740,"x_min":42,"x_max":694,"o":"m 308 -17 q 199 3 247 -17 q 115 61 150 24 q 60 151 79 99 q 42 267 42 203 q 75 448 42 367 q 163 586 108 529 q 288 674 218 643 q 428 706 357 706 q 537 685 488 706 q 621 628 586 665 q 675 538 656 590 q 694 422 694 486 q 661 241 694 322 q 573 103 628 160 q 449 15 518 46 q 308 -17 379 -17 m 406 553 q 340 531 371 553 q 285 472 308 510 q 247 383 261 435 q 233 271 233 331 q 257 172 233 208 q 329 136 281 136 q 395 158 364 136 q 451 217 426 179 q 489 306 475 254 q 503 418 503 357 q 478 517 503 482 q 406 553 454 553 m 436 1038 q 594 1006 549 1035 q 639 931 639 976 q 622 865 639 893 q 578 818 606 838 q 512 788 550 799 q 431 771 474 776 l 425 849 q 477 866 457 856 q 497 900 497 876 q 475 929 497 919 q 399 943 453 939 l 436 1038 z "},"ố":{"ha":740,"x_min":42,"x_max":885,"o":"m 308 -17 q 199 3 247 -17 q 115 61 150 24 q 60 151 79 99 q 42 267 42 203 q 75 448 42 367 q 163 586 108 529 q 288 674 218 643 q 428 706 357 706 q 537 685 488 706 q 621 628 586 665 q 675 538 656 590 q 694 422 694 486 q 661 241 694 322 q 573 103 628 160 q 449 15 518 46 q 308 -17 379 -17 m 406 553 q 340 531 371 553 q 285 472 308 510 q 247 383 261 435 q 233 271 233 331 q 257 172 233 208 q 329 136 281 136 q 395 158 364 136 q 451 217 426 179 q 489 306 475 254 q 503 418 503 357 q 478 517 503 482 q 406 553 454 553 m 421 972 l 568 972 l 640 796 l 529 796 l 483 886 l 478 886 l 399 796 l 275 796 l 421 972 m 743 1058 l 885 1058 l 728 894 l 622 894 l 743 1058 z "},"ồ":{"ha":740,"x_min":42,"x_max":806,"o":"m 308 -17 q 199 3 247 -17 q 115 61 150 24 q 60 151 79 99 q 42 267 42 203 q 75 448 42 367 q 163 586 108 529 q 288 674 218 643 q 428 706 357 706 q 537 685 488 706 q 621 628 586 665 q 675 538 656 590 q 694 422 694 486 q 661 241 694 322 q 573 103 628 160 q 449 15 518 46 q 308 -17 379 -17 m 406 553 q 340 531 371 553 q 285 472 308 510 q 247 383 261 435 q 233 271 233 331 q 257 172 233 208 q 329 136 281 136 q 395 158 364 136 q 451 217 426 179 q 489 306 475 254 q 503 418 503 357 q 478 517 503 482 q 406 553 454 553 m 806 894 l 699 894 l 606 1058 l 747 1058 l 806 894 m 421 972 l 568 972 l 640 796 l 529 796 l 483 886 l 478 886 l 399 796 l 275 796 l 421 972 z "},"ổ":{"ha":740,"x_min":42,"x_max":838,"o":"m 308 -17 q 199 3 247 -17 q 115 61 150 24 q 60 151 79 99 q 42 267 42 203 q 75 448 42 367 q 163 586 108 529 q 288 674 218 643 q 428 706 357 706 q 537 685 488 706 q 621 628 586 665 q 675 538 656 590 q 694 422 694 486 q 661 241 694 322 q 573 103 628 160 q 449 15 518 46 q 308 -17 379 -17 m 406 553 q 340 531 371 553 q 285 472 308 510 q 247 383 261 435 q 233 271 233 331 q 257 172 233 208 q 329 136 281 136 q 395 158 364 136 q 451 217 426 179 q 489 306 475 254 q 503 418 503 357 q 478 517 503 482 q 406 553 454 553 m 661 1110 q 799 1081 760 1106 q 838 1017 838 1056 q 824 954 838 979 q 785 913 810 929 q 728 888 761 897 q 656 872 694 878 l 654 936 q 695 954 682 943 q 708 988 708 965 q 692 1014 708 1004 q 628 1028 675 1024 l 661 1110 m 421 972 l 568 972 l 640 796 l 529 796 l 483 886 l 478 886 l 399 796 l 275 796 l 421 972 z "},"ỗ":{"ha":740,"x_min":42,"x_max":719,"o":"m 308 -17 q 199 3 247 -17 q 115 61 150 24 q 60 151 79 99 q 42 267 42 203 q 75 448 42 367 q 163 586 108 529 q 288 674 218 643 q 428 706 357 706 q 537 685 488 706 q 621 628 586 665 q 675 538 656 590 q 694 422 694 486 q 661 241 694 322 q 573 103 628 160 q 449 15 518 46 q 308 -17 379 -17 m 406 553 q 340 531 371 553 q 285 472 308 510 q 247 383 261 435 q 233 271 233 331 q 257 172 233 208 q 329 136 281 136 q 395 158 364 136 q 451 217 426 179 q 489 306 475 254 q 503 418 503 357 q 478 517 503 482 q 406 553 454 553 m 653 796 l 535 796 l 481 876 l 475 876 l 394 796 l 264 796 l 403 947 l 575 947 l 653 796 m 303 997 q 367 1113 326 1075 q 450 1150 408 1150 q 492 1142 474 1150 q 524 1124 510 1133 q 551 1106 539 1114 q 579 1097 564 1097 q 610 1110 594 1097 q 636 1150 626 1122 l 719 1150 q 655 1035 696 1072 q 572 997 614 997 q 531 1006 549 997 q 498 1024 513 1014 q 470 1043 483 1035 q 443 1051 457 1051 q 413 1038 428 1051 q 389 997 399 1025 l 303 997 z "},"ộ":{"ha":740,"x_min":42,"x_max":694,"o":"m 308 -17 q 199 3 247 -17 q 115 61 150 24 q 60 151 79 99 q 42 267 42 203 q 75 448 42 367 q 163 586 108 529 q 288 674 218 643 q 428 706 357 706 q 537 685 488 706 q 621 628 586 665 q 675 538 656 590 q 694 422 694 486 q 661 241 694 322 q 573 103 628 160 q 449 15 518 46 q 308 -17 379 -17 m 406 553 q 340 531 371 553 q 285 472 308 510 q 247 383 261 435 q 233 271 233 331 q 257 172 233 208 q 329 136 281 136 q 395 158 364 136 q 451 217 426 179 q 489 306 475 254 q 503 418 503 357 q 478 517 503 482 q 406 553 454 553 m 426 1003 l 575 1003 l 663 796 l 540 796 l 489 908 l 483 908 l 389 796 l 257 796 l 426 1003 m 228 -308 q 157 -285 189 -308 q 125 -217 125 -262 q 134 -174 125 -194 q 159 -137 143 -153 q 197 -113 175 -122 q 243 -104 218 -104 q 315 -128 283 -104 q 346 -196 346 -151 q 312 -276 346 -244 q 228 -308 278 -308 z "},"ø":{"ha":740,"x_min":0,"x_max":742,"o":"m 251 163 q 322 132 278 132 q 406 158 369 132 q 467 224 443 183 q 504 316 492 265 q 517 415 517 367 l 517 435 l 251 163 m 486 522 q 413 557 460 557 q 331 531 367 557 q 269 463 294 504 q 232 372 244 422 q 219 271 219 321 q 221 249 219 256 l 486 522 m 657 579 q 685 508 675 547 q 694 422 694 469 q 661 241 694 322 q 573 102 628 160 q 449 14 518 44 q 308 -17 379 -17 q 135 43 206 -17 l 60 -35 l 0 22 l 82 106 q 42 267 42 171 q 75 448 42 367 q 163 586 108 529 q 288 674 218 643 q 428 706 357 706 q 606 643 535 706 l 681 721 l 742 667 l 657 579 z "},"œ":{"ha":1108,"x_min":42,"x_max":1067,"o":"m 297 -17 q 192 3 239 -17 q 111 61 144 24 q 60 151 78 99 q 42 267 42 203 q 74 448 42 367 q 160 586 107 529 q 281 674 214 643 q 415 706 347 706 q 538 672 492 706 q 611 574 583 638 q 721 672 660 638 q 842 706 782 706 q 947 685 904 706 q 1016 630 989 665 q 1055 548 1043 594 q 1067 447 1067 501 q 1063 398 1067 422 q 1053 352 1058 374 q 1042 315 1049 331 q 1032 290 1036 299 l 656 290 q 693 165 653 204 q 794 126 733 126 q 861 142 826 126 q 921 175 896 157 l 989 56 q 885 5 947 26 q 742 -17 822 -17 q 624 19 675 -17 q 544 121 572 54 q 431 19 496 54 q 297 -17 365 -17 m 394 553 q 335 531 364 553 q 284 472 307 510 q 247 383 261 435 q 233 271 233 331 q 257 172 233 208 q 329 136 281 136 q 390 158 361 136 q 442 217 419 179 q 477 306 464 254 q 490 418 490 357 q 467 517 490 482 q 394 553 443 553 m 906 407 q 910 431 908 418 q 911 458 911 443 q 891 530 911 500 q 819 560 871 560 q 733 522 775 560 q 671 407 692 483 l 906 407 z "},"ơ":{"ha":747,"x_min":42,"x_max":811,"o":"m 329 136 q 395 158 364 136 q 451 217 426 179 q 489 306 475 254 q 503 418 503 357 q 478 517 503 482 q 406 553 454 553 q 340 531 371 553 q 285 472 308 510 q 247 383 261 435 q 233 271 233 331 q 257 172 233 208 q 329 136 281 136 m 793 869 q 811 785 811 828 q 770 676 811 724 q 638 608 729 629 q 680 526 665 572 q 694 422 694 479 q 661 241 694 322 q 573 103 628 160 q 449 15 518 46 q 308 -17 379 -17 q 199 3 247 -17 q 115 61 150 24 q 60 151 79 99 q 42 267 42 203 q 75 448 42 367 q 163 586 108 529 q 288 674 218 643 q 428 706 357 706 q 558 675 500 706 q 633 710 606 683 q 661 774 661 738 q 651 825 661 800 l 793 869 z "},"ớ":{"ha":747,"x_min":42,"x_max":811,"o":"m 329 136 q 395 158 364 136 q 451 217 426 179 q 489 306 475 254 q 503 418 503 357 q 478 517 503 482 q 406 553 454 553 q 340 531 371 553 q 285 472 308 510 q 247 383 261 435 q 233 271 233 331 q 257 172 233 208 q 329 136 281 136 m 793 869 q 811 785 811 828 q 770 676 811 724 q 638 608 729 629 q 680 526 665 572 q 694 422 694 479 q 661 241 694 322 q 573 103 628 160 q 449 15 518 46 q 308 -17 379 -17 q 199 3 247 -17 q 115 61 150 24 q 60 151 79 99 q 42 267 42 203 q 75 448 42 367 q 163 586 108 529 q 288 674 218 643 q 428 706 357 706 q 558 675 500 706 q 633 710 606 683 q 661 774 661 738 q 651 825 661 800 l 793 869 m 483 1003 l 674 1003 l 467 796 l 322 796 l 483 1003 z "},"ờ":{"ha":747,"x_min":42,"x_max":811,"o":"m 329 136 q 395 158 364 136 q 451 217 426 179 q 489 306 475 254 q 503 418 503 357 q 478 517 503 482 q 406 553 454 553 q 340 531 371 553 q 285 472 308 510 q 247 383 261 435 q 233 271 233 331 q 257 172 233 208 q 329 136 281 136 m 793 869 q 811 785 811 828 q 770 676 811 724 q 638 608 729 629 q 680 526 665 572 q 694 422 694 479 q 661 241 694 322 q 573 103 628 160 q 449 15 518 46 q 308 -17 379 -17 q 199 3 247 -17 q 115 61 150 24 q 60 151 79 99 q 42 267 42 203 q 75 448 42 367 q 163 586 108 529 q 288 674 218 643 q 428 706 357 706 q 558 675 500 706 q 633 710 606 683 q 661 774 661 738 q 651 825 661 800 l 793 869 m 285 1003 l 461 1003 l 539 796 l 408 796 l 285 1003 z "},"ở":{"ha":747,"x_min":42,"x_max":811,"o":"m 329 136 q 395 158 364 136 q 451 217 426 179 q 489 306 475 254 q 503 418 503 357 q 478 517 503 482 q 406 553 454 553 q 340 531 371 553 q 285 472 308 510 q 247 383 261 435 q 233 271 233 331 q 257 172 233 208 q 329 136 281 136 m 793 869 q 811 785 811 828 q 770 676 811 724 q 638 608 729 629 q 680 526 665 572 q 694 422 694 479 q 661 241 694 322 q 573 103 628 160 q 449 15 518 46 q 308 -17 379 -17 q 199 3 247 -17 q 115 61 150 24 q 60 151 79 99 q 42 267 42 203 q 75 448 42 367 q 163 586 108 529 q 288 674 218 643 q 428 706 357 706 q 558 675 500 706 q 633 710 606 683 q 661 774 661 738 q 651 825 661 800 l 793 869 m 414 1038 q 572 1006 526 1035 q 617 931 617 976 q 600 865 617 893 q 556 818 583 838 q 490 788 528 799 q 408 771 451 776 l 403 849 q 455 866 435 856 q 475 900 475 876 q 453 929 475 919 q 376 943 431 939 l 414 1038 z "},"ỡ":{"ha":747,"x_min":42,"x_max":811,"o":"m 329 136 q 395 158 364 136 q 451 217 426 179 q 489 306 475 254 q 503 418 503 357 q 478 517 503 482 q 406 553 454 553 q 340 531 371 553 q 285 472 308 510 q 247 383 261 435 q 233 271 233 331 q 257 172 233 208 q 329 136 281 136 m 793 869 q 811 785 811 828 q 770 676 811 724 q 638 608 729 629 q 680 526 665 572 q 694 422 694 479 q 661 241 694 322 q 573 103 628 160 q 449 15 518 46 q 308 -17 379 -17 q 199 3 247 -17 q 115 61 150 24 q 60 151 79 99 q 42 267 42 203 q 75 448 42 367 q 163 586 108 529 q 288 674 218 643 q 428 706 357 706 q 558 675 500 706 q 633 710 606 683 q 661 774 661 738 q 651 825 661 800 l 793 869 m 225 801 q 295 935 250 890 q 389 979 340 979 q 440 969 419 979 q 478 948 461 960 q 510 926 494 936 q 547 917 526 917 q 603 976 576 917 l 703 976 q 633 844 678 889 q 539 799 588 799 q 486 808 507 799 q 449 830 465 818 q 416 851 432 842 q 379 861 400 861 q 325 801 349 861 l 225 801 z "},"ợ":{"ha":747,"x_min":42,"x_max":811,"o":"m 329 136 q 395 158 364 136 q 451 217 426 179 q 489 306 475 254 q 503 418 503 357 q 478 517 503 482 q 406 553 454 553 q 340 531 371 553 q 285 472 308 510 q 247 383 261 435 q 233 271 233 331 q 257 172 233 208 q 329 136 281 136 m 793 869 q 811 785 811 828 q 770 676 811 724 q 638 608 729 629 q 680 526 665 572 q 694 422 694 479 q 661 241 694 322 q 573 103 628 160 q 449 15 518 46 q 308 -17 379 -17 q 199 3 247 -17 q 115 61 150 24 q 60 151 79 99 q 42 267 42 203 q 75 448 42 367 q 163 586 108 529 q 288 674 218 643 q 428 706 357 706 q 558 675 500 706 q 633 710 606 683 q 661 774 661 738 q 651 825 661 800 l 793 869 m 228 -308 q 157 -285 189 -308 q 125 -217 125 -262 q 134 -174 125 -194 q 159 -137 143 -153 q 197 -113 175 -122 q 243 -104 218 -104 q 315 -128 283 -104 q 346 -196 346 -151 q 312 -276 346 -244 q 228 -308 278 -308 z "},"ǫ":{"ha":740,"x_min":42,"x_max":694,"o":"m 139 -190 q 153 -127 139 -157 q 185 -74 167 -97 q 223 -33 204 -50 q 253 -10 242 -17 q 99 78 157 8 q 42 267 42 149 q 75 448 42 367 q 163 586 108 529 q 288 674 218 643 q 428 706 357 706 q 533 687 485 706 q 618 632 582 668 q 674 543 654 596 q 694 422 694 490 q 672 265 694 333 q 609 145 649 197 q 517 57 569 93 q 404 -4 464 21 q 306 -69 336 -32 q 276 -136 276 -107 q 291 -167 276 -156 q 325 -178 306 -178 q 369 -164 344 -178 l 401 -242 q 332 -277 372 -262 q 258 -292 292 -292 q 172 -266 206 -292 q 139 -190 139 -240 m 406 553 q 340 531 371 553 q 285 472 308 510 q 247 383 261 435 q 233 271 233 331 q 257 172 233 208 q 329 136 281 136 q 395 158 364 136 q 451 217 426 179 q 489 306 475 254 q 503 418 503 357 q 478 517 503 482 q 406 553 454 553 z "},"ŕ":{"ha":533,"x_min":19,"x_max":626,"o":"m 156 689 l 310 689 l 301 556 l 307 556 q 403 663 347 621 q 518 706 458 706 q 562 702 544 706 q 590 692 579 699 l 528 528 q 495 537 514 535 q 460 539 476 539 q 371 506 414 539 q 288 399 328 472 l 210 0 l 19 0 l 156 689 m 436 1003 l 626 1003 l 419 796 l 275 796 l 436 1003 z "},"ŗ":{"ha":533,"x_min":-54,"x_max":590,"o":"m 156 689 l 310 689 l 301 556 l 307 556 q 403 663 347 621 q 518 706 458 706 q 562 702 544 706 q 590 692 579 699 l 528 528 q 495 537 514 535 q 460 539 476 539 q 371 506 414 539 q 288 399 328 472 l 210 0 l 19 0 l 156 689 m 68 -53 q 167 -89 132 -64 q 203 -158 203 -114 q 183 -228 203 -200 q 128 -272 163 -256 q 48 -295 93 -287 q -49 -306 3 -303 l -54 -229 q 39 -210 10 -224 q 68 -167 68 -196 q 19 -121 68 -136 l 68 -53 z "},"ř":{"ha":533,"x_min":19,"x_max":636,"o":"m 156 689 l 310 689 l 301 556 l 307 556 q 403 663 347 621 q 518 706 458 706 q 562 702 544 706 q 590 692 579 699 l 528 528 q 495 537 514 535 q 460 539 476 539 q 371 506 414 539 q 288 399 328 472 l 210 0 l 19 0 l 156 689 m 467 796 l 318 796 l 231 1003 l 353 1003 l 404 892 l 410 892 l 504 1003 l 636 1003 l 467 796 z "},"ṛ":{"ha":533,"x_min":-31,"x_max":590,"o":"m 156 689 l 310 689 l 301 556 l 307 556 q 403 663 347 621 q 518 706 458 706 q 562 702 544 706 q 590 692 579 699 l 528 528 q 495 537 514 535 q 460 539 476 539 q 371 506 414 539 q 288 399 328 472 l 210 0 l 19 0 l 156 689 m 72 -308 q 1 -285 33 -308 q -31 -217 -31 -262 q -22 -174 -31 -194 q 3 -137 -12 -153 q 41 -113 19 -122 q 88 -104 63 -104 q 159 -128 128 -104 q 190 -196 190 -151 q 156 -276 190 -244 q 72 -308 122 -308 z "},"ṝ":{"ha":533,"x_min":-31,"x_max":601,"o":"m 156 689 l 310 689 l 301 556 l 307 556 q 403 663 347 621 q 518 706 458 706 q 562 702 544 706 q 590 692 579 699 l 528 528 q 495 537 514 535 q 460 539 476 539 q 371 506 414 539 q 288 399 328 472 l 210 0 l 19 0 l 156 689 m 236 944 l 601 944 l 576 824 l 211 824 l 236 944 m 72 -308 q 1 -285 33 -308 q -31 -217 -31 -262 q -22 -174 -31 -194 q 3 -137 -12 -153 q 41 -113 19 -122 q 88 -104 63 -104 q 159 -128 128 -104 q 190 -196 190 -151 q 156 -276 190 -244 q 72 -308 122 -308 z "},"ṟ":{"ha":533,"x_min":-112,"x_max":590,"o":"m 156 689 l 310 689 l 301 556 l 307 556 q 403 663 347 621 q 518 706 458 706 q 562 702 544 706 q 590 692 579 699 l 528 528 q 495 537 514 535 q 460 539 476 539 q 371 506 414 539 q 288 399 328 472 l 210 0 l 19 0 l 156 689 m -89 -125 l 276 -125 l 253 -246 l -112 -246 l -89 -125 z "},"ś":{"ha":589,"x_min":-11,"x_max":624,"o":"m 99 208 q 247 122 171 122 q 316 141 288 122 q 344 188 344 160 q 314 238 344 218 q 225 290 283 257 q 126 369 167 322 q 86 481 86 415 q 107 571 86 529 q 164 642 128 613 q 249 689 200 672 q 353 706 297 706 q 480 675 424 706 q 579 600 536 644 l 475 501 q 419 546 450 528 q 353 564 389 564 q 288 545 313 564 q 264 499 264 526 q 274 469 264 482 q 300 447 283 457 q 337 426 317 436 q 378 403 357 415 q 481 325 440 369 q 522 210 522 281 q 501 118 522 160 q 442 47 479 76 q 351 0 404 17 q 236 -17 299 -17 q 169 -8 204 -17 q 102 18 135 1 q 40 60 69 35 q -11 117 10 85 l 99 208 m 433 1003 l 624 1003 l 417 796 l 272 796 l 433 1003 z "},"ŝ":{"ha":589,"x_min":-11,"x_max":590,"o":"m 99 208 q 247 122 171 122 q 316 141 288 122 q 344 188 344 160 q 314 238 344 218 q 225 290 283 257 q 126 369 167 322 q 86 481 86 415 q 107 571 86 529 q 164 642 128 613 q 249 689 200 672 q 353 706 297 706 q 480 675 424 706 q 579 600 536 644 l 475 501 q 419 546 450 528 q 353 564 389 564 q 288 545 313 564 q 264 499 264 526 q 274 469 264 482 q 300 447 283 457 q 337 426 317 436 q 378 403 357 415 q 481 325 440 369 q 522 210 522 281 q 501 118 522 160 q 442 47 479 76 q 351 0 404 17 q 236 -17 299 -17 q 169 -8 204 -17 q 102 18 135 1 q 40 60 69 35 q -11 117 10 85 l 99 208 m 354 1003 l 503 1003 l 590 796 l 468 796 l 417 908 l 411 908 l 317 796 l 185 796 l 354 1003 z "},"š":{"ha":589,"x_min":-11,"x_max":633,"o":"m 99 208 q 247 122 171 122 q 316 141 288 122 q 344 188 344 160 q 314 238 344 218 q 225 290 283 257 q 126 369 167 322 q 86 481 86 415 q 107 571 86 529 q 164 642 128 613 q 249 689 200 672 q 353 706 297 706 q 480 675 424 706 q 579 600 536 644 l 475 501 q 419 546 450 528 q 353 564 389 564 q 288 545 313 564 q 264 499 264 526 q 274 469 264 482 q 300 447 283 457 q 337 426 317 436 q 378 403 357 415 q 481 325 440 369 q 522 210 522 281 q 501 118 522 160 q 442 47 479 76 q 351 0 404 17 q 236 -17 299 -17 q 169 -8 204 -17 q 102 18 135 1 q 40 60 69 35 q -11 117 10 85 l 99 208 m 464 796 l 315 796 l 228 1003 l 350 1003 l 401 892 l 407 892 l 501 1003 l 633 1003 l 464 796 z "},"ş":{"ha":589,"x_min":-11,"x_max":579,"o":"m 99 208 q 247 122 171 122 q 316 141 288 122 q 344 188 344 160 q 314 238 344 218 q 225 290 283 257 q 126 369 167 322 q 86 481 86 415 q 107 571 86 529 q 164 642 128 613 q 249 689 200 672 q 353 706 297 706 q 480 675 424 706 q 579 600 536 644 l 475 501 q 419 546 450 528 q 353 564 389 564 q 288 545 313 564 q 264 499 264 526 q 274 469 264 482 q 300 447 283 457 q 337 426 317 436 q 378 403 357 415 q 481 325 440 369 q 522 210 522 281 q 501 118 522 160 q 442 47 479 76 q 351 0 404 17 q 236 -17 299 -17 q 169 -8 204 -17 q 102 18 135 1 q 40 60 69 35 q -11 117 10 85 l 99 208 m 188 6 l 299 6 l 257 -62 q 301 -92 283 -74 q 318 -144 318 -111 q 297 -214 318 -185 q 239 -262 275 -243 q 156 -292 203 -282 q 57 -306 108 -303 l 51 -229 q 140 -207 104 -224 q 176 -160 176 -190 q 163 -130 176 -143 q 113 -106 150 -117 l 188 6 z "},"ș":{"ha":589,"x_min":-11,"x_max":579,"o":"m 99 208 q 247 122 171 122 q 316 141 288 122 q 344 188 344 160 q 314 238 344 218 q 225 290 283 257 q 126 369 167 322 q 86 481 86 415 q 107 571 86 529 q 164 642 128 613 q 249 689 200 672 q 353 706 297 706 q 480 675 424 706 q 579 600 536 644 l 475 501 q 419 546 450 528 q 353 564 389 564 q 288 545 313 564 q 264 499 264 526 q 274 469 264 482 q 300 447 283 457 q 337 426 317 436 q 378 403 357 415 q 481 325 440 369 q 522 210 522 281 q 501 118 522 160 q 442 47 479 76 q 351 0 404 17 q 236 -17 299 -17 q 169 -8 204 -17 q 102 18 135 1 q 40 60 69 35 q -11 117 10 85 l 99 208 m 199 -53 q 298 -89 263 -64 q 333 -158 333 -114 q 313 -228 333 -200 q 258 -272 293 -256 q 178 -295 224 -287 q 82 -306 133 -303 l 76 -229 q 169 -210 140 -224 q 199 -167 199 -196 q 150 -121 199 -136 l 199 -53 z "},"ṡ":{"ha":589,"x_min":-11,"x_max":579,"o":"m 99 208 q 247 122 171 122 q 316 141 288 122 q 344 188 344 160 q 314 238 344 218 q 225 290 283 257 q 126 369 167 322 q 86 481 86 415 q 107 571 86 529 q 164 642 128 613 q 249 689 200 672 q 353 706 297 706 q 480 675 424 706 q 579 600 536 644 l 475 501 q 419 546 450 528 q 353 564 389 564 q 288 545 313 564 q 264 499 264 526 q 274 469 264 482 q 300 447 283 457 q 337 426 317 436 q 378 403 357 415 q 481 325 440 369 q 522 210 522 281 q 501 118 522 160 q 442 47 479 76 q 351 0 404 17 q 236 -17 299 -17 q 169 -8 204 -17 q 102 18 135 1 q 40 60 69 35 q -11 117 10 85 l 99 208 m 397 792 q 326 815 358 792 q 294 883 294 838 q 303 926 294 906 q 328 963 313 947 q 366 987 344 978 q 413 996 388 996 q 484 972 453 996 q 515 904 515 949 q 481 824 515 856 q 397 792 447 792 z "},"ṣ":{"ha":589,"x_min":-11,"x_max":579,"o":"m 99 208 q 247 122 171 122 q 316 141 288 122 q 344 188 344 160 q 314 238 344 218 q 225 290 283 257 q 126 369 167 322 q 86 481 86 415 q 107 571 86 529 q 164 642 128 613 q 249 689 200 672 q 353 706 297 706 q 480 675 424 706 q 579 600 536 644 l 475 501 q 419 546 450 528 q 353 564 389 564 q 288 545 313 564 q 264 499 264 526 q 274 469 264 482 q 300 447 283 457 q 337 426 317 436 q 378 403 357 415 q 481 325 440 369 q 522 210 522 281 q 501 118 522 160 q 442 47 479 76 q 351 0 404 17 q 236 -17 299 -17 q 169 -8 204 -17 q 102 18 135 1 q 40 60 69 35 q -11 117 10 85 l 99 208 m 203 -308 q 132 -285 164 -308 q 100 -217 100 -262 q 109 -174 100 -194 q 134 -137 118 -153 q 172 -113 150 -122 q 218 -104 193 -104 q 290 -128 258 -104 q 321 -196 321 -151 q 287 -276 321 -244 q 203 -308 253 -308 z "},"ß":{"ha":846,"x_min":19,"x_max":779,"o":"m 161 701 q 201 815 174 763 q 272 907 229 868 q 371 968 314 946 q 499 990 428 990 q 594 978 547 990 q 676 940 640 965 q 735 876 713 915 q 757 782 757 836 q 745 713 757 743 q 716 660 733 683 q 678 617 699 636 q 640 581 657 599 q 610 545 622 563 q 599 507 599 528 q 612 469 599 486 q 645 434 625 451 q 689 397 665 417 q 733 353 713 378 q 766 297 753 328 q 779 226 779 267 q 759 131 779 175 q 704 53 739 86 q 622 2 669 21 q 519 -17 574 -17 q 415 -2 467 -17 q 315 44 363 13 l 393 171 q 451 138 421 151 q 518 125 482 125 q 579 148 556 125 q 603 207 603 171 q 589 249 603 231 q 554 286 575 268 q 508 322 533 304 q 463 363 483 340 q 428 411 442 385 q 414 474 414 438 q 439 553 414 521 q 494 616 464 586 q 549 677 524 646 q 574 754 574 708 q 555 817 574 794 q 492 839 536 839 q 439 825 463 839 q 397 788 415 811 q 365 733 378 764 q 343 665 351 701 l 210 0 l 19 0 l 161 701 z "},"ť":{"ha":510,"x_min":65,"x_max":635,"o":"m 157 540 l 65 540 l 93 681 l 194 689 l 253 869 l 413 869 l 378 689 l 535 689 l 506 540 l 344 540 l 285 244 q 282 221 282 232 q 282 199 282 210 q 353 132 282 132 q 382 136 368 132 q 410 147 396 140 l 443 14 q 375 -7 415 3 q 282 -17 335 -17 q 132 35 178 -17 q 86 165 86 86 q 90 209 86 188 q 97 253 93 231 l 157 540 m 458 761 l 514 1069 l 635 1069 l 615 974 l 542 761 l 458 761 z "},"ţ":{"ha":510,"x_min":65,"x_max":535,"o":"m 157 540 l 65 540 l 93 681 l 194 689 l 253 869 l 413 869 l 378 689 l 535 689 l 506 540 l 344 540 l 285 244 q 282 221 282 232 q 282 199 282 210 q 353 132 282 132 q 382 136 368 132 q 410 147 396 140 l 443 14 q 375 -7 415 3 q 282 -17 335 -17 q 132 35 178 -17 q 86 165 86 86 q 90 209 86 188 q 97 253 93 231 l 157 540 m 201 6 l 313 6 l 271 -62 q 315 -92 297 -74 q 332 -144 332 -111 q 310 -214 332 -185 q 253 -262 289 -243 q 169 -292 217 -282 q 71 -306 122 -303 l 65 -229 q 154 -207 118 -224 q 190 -160 190 -190 q 177 -130 190 -143 q 126 -106 164 -117 l 201 6 z "},"ț":{"ha":510,"x_min":65,"x_max":535,"o":"m 157 540 l 65 540 l 93 681 l 194 689 l 253 869 l 413 869 l 378 689 l 535 689 l 506 540 l 344 540 l 285 244 q 282 221 282 232 q 282 199 282 210 q 353 132 282 132 q 382 136 368 132 q 410 147 396 140 l 443 14 q 375 -7 415 3 q 282 -17 335 -17 q 132 35 178 -17 q 86 165 86 86 q 90 209 86 188 q 97 253 93 231 l 157 540 m 192 -53 q 291 -89 256 -64 q 326 -158 326 -114 q 306 -228 326 -200 q 251 -272 286 -256 q 172 -295 217 -287 q 75 -306 126 -303 l 69 -229 q 163 -210 133 -224 q 192 -167 192 -196 q 143 -121 192 -136 l 192 -53 z "},"ṭ":{"ha":510,"x_min":65,"x_max":535,"o":"m 157 540 l 65 540 l 93 681 l 194 689 l 253 869 l 413 869 l 378 689 l 535 689 l 506 540 l 344 540 l 285 244 q 282 221 282 232 q 282 199 282 210 q 353 132 282 132 q 382 136 368 132 q 410 147 396 140 l 443 14 q 375 -7 415 3 q 282 -17 335 -17 q 132 35 178 -17 q 86 165 86 86 q 90 209 86 188 q 97 253 93 231 l 157 540 m 196 -308 q 125 -285 157 -308 q 93 -217 93 -262 q 102 -174 93 -194 q 127 -137 111 -153 q 165 -113 143 -122 q 211 -104 186 -104 q 283 -128 251 -104 q 314 -196 314 -151 q 280 -276 314 -244 q 196 -308 246 -308 z "},"ṯ":{"ha":510,"x_min":11,"x_max":535,"o":"m 157 540 l 65 540 l 93 681 l 194 689 l 253 869 l 413 869 l 378 689 l 535 689 l 506 540 l 344 540 l 285 244 q 282 221 282 232 q 282 199 282 210 q 353 132 282 132 q 382 136 368 132 q 410 147 396 140 l 443 14 q 375 -7 415 3 q 282 -17 335 -17 q 132 35 178 -17 q 86 165 86 86 q 90 209 86 188 q 97 253 93 231 l 157 540 m 35 -125 l 400 -125 l 376 -246 l 11 -246 l 35 -125 z "},"ẗ":{"ha":510,"x_min":65,"x_max":585,"o":"m 157 540 l 65 540 l 93 681 l 194 689 l 253 869 l 413 869 l 378 689 l 535 689 l 506 540 l 344 540 l 285 244 q 282 221 282 232 q 282 199 282 210 q 353 132 282 132 q 382 136 368 132 q 410 147 396 140 l 443 14 q 375 -7 415 3 q 282 -17 335 -17 q 132 35 178 -17 q 86 165 86 86 q 90 209 86 188 q 97 253 93 231 l 157 540 m 217 989 q 158 1010 182 989 q 135 1071 135 1031 q 165 1144 135 1113 q 239 1175 194 1175 q 297 1153 274 1175 q 321 1092 321 1131 q 291 1019 321 1049 q 217 989 261 989 m 481 989 q 423 1010 446 989 q 400 1071 400 1031 q 429 1144 400 1113 q 503 1175 458 1175 q 562 1153 539 1175 q 585 1092 585 1131 q 555 1019 585 1049 q 481 989 525 989 z "},"ù":{"ha":757,"x_min":54,"x_max":735,"o":"m 599 0 l 444 0 l 447 93 l 442 93 q 337 16 394 49 q 217 -17 279 -17 q 92 28 131 -17 q 54 161 54 74 q 57 208 54 185 q 65 258 60 232 l 151 689 l 340 689 l 260 282 q 251 246 254 261 q 249 217 249 231 q 318 146 249 146 q 456 235 376 146 l 544 689 l 735 689 l 599 0 m 303 1003 l 479 1003 l 557 796 l 426 796 l 303 1003 z "},"ú":{"ha":757,"x_min":54,"x_max":735,"o":"m 599 0 l 444 0 l 447 93 l 442 93 q 337 16 394 49 q 217 -17 279 -17 q 92 28 131 -17 q 54 161 54 74 q 57 208 54 185 q 65 258 60 232 l 151 689 l 340 689 l 260 282 q 251 246 254 261 q 249 217 249 231 q 318 146 249 146 q 456 235 376 146 l 544 689 l 735 689 l 599 0 m 501 1003 l 692 1003 l 485 796 l 340 796 l 501 1003 z "},"û":{"ha":757,"x_min":54,"x_max":735,"o":"m 599 0 l 444 0 l 447 93 l 442 93 q 337 16 394 49 q 217 -17 279 -17 q 92 28 131 -17 q 54 161 54 74 q 57 208 54 185 q 65 258 60 232 l 151 689 l 340 689 l 260 282 q 251 246 254 261 q 249 217 249 231 q 318 146 249 146 q 456 235 376 146 l 544 689 l 735 689 l 599 0 m 422 1003 l 571 1003 l 658 796 l 536 796 l 485 908 l 479 908 l 385 796 l 253 796 l 422 1003 z "},"ũ":{"ha":757,"x_min":54,"x_max":735,"o":"m 599 0 l 444 0 l 447 93 l 442 93 q 337 16 394 49 q 217 -17 279 -17 q 92 28 131 -17 q 54 161 54 74 q 57 208 54 185 q 65 258 60 232 l 151 689 l 340 689 l 260 282 q 251 246 254 261 q 249 217 249 231 q 318 146 249 146 q 456 235 376 146 l 544 689 l 735 689 l 599 0 m 243 801 q 313 935 268 890 q 407 979 358 979 q 458 969 438 979 q 496 948 479 960 q 528 926 513 936 q 565 917 544 917 q 621 976 594 917 l 721 976 q 651 844 696 889 q 557 799 606 799 q 504 808 525 799 q 467 830 483 818 q 434 851 450 842 q 397 861 418 861 q 343 801 367 861 l 243 801 z "}}}
